<svg width="24" height="24" viewBox="0 0 24 24" fill="none" xmlns="http://www.w3.org/2000/svg">
<g id="Iconly/Regular/Bulk/Document">
<g id="Document">
<path id="Path" opacity="0.4" d="M16.191 2.00012H7.81C4.77 2.00012 3 3.78012 3 6.83012V17.1601C3 20.2601 4.77 22.0001 7.81 22.0001H16.191C19.28 22.0001 21 20.2601 21 17.1601V6.83012C21 3.78012 19.28 2.00012 16.191 2.00012Z" fill="black"/>
<path id="Combined Shape" fill-rule="evenodd" clip-rule="evenodd" d="M8.07996 6.65012V6.66012C7.64896 6.66012 7.29996 7.01012 7.29996 7.44012C7.29996 7.87012 7.64896 8.22012 8.07996 8.22012H11.069C11.5 8.22012 11.85 7.87012 11.85 7.42912C11.85 7.00012 11.5 6.65012 11.069 6.65012H8.07996ZM15.92 12.7401H8.07996C7.64896 12.7401 7.29996 12.3901 7.29996 11.9601C7.29996 11.5301 7.64896 11.1791 8.07996 11.1791H15.92C16.35 11.1791 16.7 11.5301 16.7 11.9601C16.7 12.3901 16.35 12.7401 15.92 12.7401ZM15.92 17.3101H8.07996C7.77996 17.3501 7.48996 17.2001 7.32996 16.9501C7.16996 16.6901 7.16996 16.3601 7.32996 16.1101C7.48996 15.8501 7.77996 15.7101 8.07996 15.7401H15.92C16.319 15.7801 16.62 16.1201 16.62 16.5301C16.62 16.9291 16.319 17.2701 15.92 17.3101Z" fill="black"/>
</g>
</g>
</svg>
