<svg width="24" height="24" viewBox="0 0 24 24" fill="none" xmlns="http://www.w3.org/2000/svg">
<g id="Iconly/Regular/Two-tone/3 User">
<g id="3 User">
<path id="Stroke 1" opacity="0.4" d="M17.8877 10.8967C19.2827 10.7007 20.3567 9.50473 20.3597 8.05573C20.3597 6.62773 19.3187 5.44373 17.9537 5.21973" stroke="black" stroke-width="1.5" stroke-linecap="round" stroke-linejoin="round"/>
<path id="Stroke 3" opacity="0.4" d="M19.7285 14.2505C21.0795 14.4525 22.0225 14.9255 22.0225 15.9005C22.0225 16.5715 21.5785 17.0075 20.8605 17.2815" stroke="black" stroke-width="1.5" stroke-linecap="round" stroke-linejoin="round"/>
<path id="Stroke 5" fill-rule="evenodd" clip-rule="evenodd" d="M11.8867 14.6638C8.67273 14.6638 5.92773 15.1508 5.92773 17.0958C5.92773 19.0398 8.65573 19.5408 11.8867 19.5408C15.1007 19.5408 17.8447 19.0588 17.8447 17.1128C17.8447 15.1668 15.1177 14.6638 11.8867 14.6638Z" stroke="black" stroke-width="1.5" stroke-linecap="round" stroke-linejoin="round"/>
<path id="Stroke 7" fill-rule="evenodd" clip-rule="evenodd" d="M11.8867 11.888C13.9957 11.888 15.7057 10.179 15.7057 8.069C15.7057 5.96 13.9957 4.25 11.8867 4.25C9.77766 4.25 8.06766 5.96 8.06766 8.069C8.05966 10.171 9.75666 11.881 11.8587 11.888H11.8867Z" stroke="black" stroke-width="1.5" stroke-linecap="round" stroke-linejoin="round"/>
<path id="Stroke 9" opacity="0.4" d="M5.88472 10.8967C4.48872 10.7007 3.41572 9.50473 3.41272 8.05573C3.41272 6.62773 4.45372 5.44373 5.81872 5.21973" stroke="black" stroke-width="1.5" stroke-linecap="round" stroke-linejoin="round"/>
<path id="Stroke 11" opacity="0.4" d="M4.04388 14.2505C2.69288 14.4525 1.74988 14.9255 1.74988 15.9005C1.74988 16.5715 2.19388 17.0075 2.91188 17.2815" stroke="black" stroke-width="1.5" stroke-linecap="round" stroke-linejoin="round"/>
</g>
</g>
</svg>
