<svg width="24" height="24" viewBox="0 0 24 24" fill="none" xmlns="http://www.w3.org/2000/svg">
<g id="Iconly/Curved/Light/Volume Down">
<g id="Volume Down">
<path id="Stroke 1" d="M18.6559 8.6347C19.9092 10.9058 19.9092 13.6774 18.6559 15.9405" stroke="black" stroke-width="1.5" stroke-linecap="round" stroke-linejoin="round"/>
<path id="Stroke 3" fill-rule="evenodd" clip-rule="evenodd" d="M4.66723 12.2874C4.66367 13.5061 4.66723 14.9354 5.67345 15.7896C6.67967 16.6447 7.47878 16.2918 8.781 16.7203C10.0841 17.1496 11.909 19.7967 13.925 18.6012C15.0148 17.827 15.5286 16.3656 15.5286 12.2874C15.5286 8.20918 15.0379 6.76385 13.925 5.97363C11.909 4.77896 10.0841 7.42607 8.781 7.85451C7.47878 8.28385 6.67967 7.93096 5.67345 8.78518C4.66723 9.6394 4.66367 11.0687 4.66723 12.2874Z" stroke="black" stroke-width="1.5" stroke-linecap="round" stroke-linejoin="round"/>
</g>
</g>
</svg>
