<svg width="24" height="24" viewBox="0 0 24 24" fill="none" xmlns="http://www.w3.org/2000/svg">
<g id="Iconly/Regular/Bulk/3 User">
<g id="3 User">
<path id="Fill 1" d="M11.9491 14.5401C8.49909 14.5401 5.58813 15.1038 5.58813 17.2795C5.58813 19.4562 8.51789 20.0001 11.9491 20.0001C15.3991 20.0001 18.31 19.4364 18.31 17.2606C18.31 15.084 15.3803 14.5401 11.9491 14.5401Z" fill="black"/>
<path id="Fill 3" opacity="0.4" d="M11.949 12.4672C14.2851 12.4672 16.1583 10.5832 16.1583 8.23364C16.1583 5.88318 14.2851 4.00012 11.949 4.00012C9.61293 4.00012 7.73975 5.88318 7.73975 8.23364C7.73975 10.5832 9.61293 12.4672 11.949 12.4672Z" fill="black"/>
<path id="Fill 6" opacity="0.4" d="M21.0879 9.21938C21.6923 6.84191 19.9203 4.7067 17.6639 4.7067C17.4186 4.7067 17.184 4.73371 16.9548 4.77964C16.9243 4.78685 16.8903 4.80215 16.8724 4.82917C16.8518 4.86339 16.867 4.90932 16.8894 4.93904C17.5672 5.89543 17.9567 7.05985 17.9567 8.30982C17.9567 9.50756 17.5995 10.6242 16.9727 11.5509C16.9082 11.6464 16.9655 11.7752 17.0792 11.795C17.2368 11.8229 17.398 11.8373 17.5627 11.8418C19.2058 11.885 20.6805 10.8215 21.0879 9.21938Z" fill="black"/>
<path id="Fill 8" d="M22.8093 14.8171C22.5084 14.1723 21.7823 13.7301 20.6782 13.5131C20.1571 13.3852 18.7468 13.2051 17.4351 13.2294C17.4154 13.2321 17.4046 13.2456 17.4028 13.2546C17.4002 13.2672 17.4055 13.2888 17.4315 13.3023C18.0377 13.604 20.381 14.9161 20.0864 17.6835C20.0738 17.8033 20.1696 17.9069 20.2887 17.8889C20.8654 17.806 22.349 17.4854 22.8093 16.4867C23.0636 15.959 23.0636 15.3457 22.8093 14.8171Z" fill="black"/>
<path id="Fill 11" opacity="0.4" d="M7.04483 4.77992C6.8165 4.73309 6.58101 4.70697 6.33567 4.70697C4.07926 4.70697 2.30726 6.84219 2.91255 9.21966C3.31906 10.8217 4.79379 11.8853 6.43685 11.8421C6.60161 11.8376 6.76368 11.8223 6.92037 11.7952C7.03409 11.7754 7.09139 11.6467 7.02692 11.5512C6.40014 10.6236 6.04288 9.50783 6.04288 8.3101C6.04288 7.05922 6.43327 5.8948 7.11109 4.93931C7.13258 4.9096 7.1487 4.86367 7.12721 4.82945C7.1093 4.80153 7.07617 4.78712 7.04483 4.77992Z" fill="black"/>
<path id="Fill 13" d="M3.32156 13.5128C2.21752 13.7298 1.49225 14.172 1.19139 14.8168C0.936203 15.3454 0.936203 15.9587 1.19139 16.4873C1.65163 17.4851 3.13531 17.8066 3.71195 17.8886C3.83104 17.9066 3.92595 17.8039 3.91342 17.6833C3.61883 14.9168 5.9621 13.6046 6.56918 13.303C6.59425 13.2886 6.59962 13.2678 6.59694 13.2543C6.59515 13.2453 6.5853 13.2318 6.5656 13.23C5.25294 13.2048 3.84358 13.3849 3.32156 13.5128Z" fill="black"/>
</g>
</g>
</svg>
