<svg width="24" height="24" viewBox="0 0 24 24" fill="none" xmlns="http://www.w3.org/2000/svg">
<g id="Iconly/Curved/Light/Edit Square">
<g id="Edit Square">
<path id="Stroke 1" d="M12.0002 2.75024C5.06324 2.75024 2.75024 5.06324 2.75024 12.0002C2.75024 18.9372 5.06324 21.2502 12.0002 21.2502C18.9372 21.2502 21.2502 18.9372 21.2502 12.0002" stroke="black" stroke-width="1.5" stroke-linecap="round" stroke-linejoin="round"/>
<path id="Stroke 3" fill-rule="evenodd" clip-rule="evenodd" d="M19.5285 4.30394V4.30394C18.5355 3.42494 17.0185 3.51694 16.1395 4.50994C16.1395 4.50994 11.7705 9.44494 10.2555 11.1579C8.73853 12.8699 9.85053 15.2349 9.85053 15.2349C9.85053 15.2349 12.3545 16.0279 13.8485 14.3399C15.3435 12.6519 19.7345 7.69294 19.7345 7.69294C20.6135 6.69994 20.5205 5.18294 19.5285 4.30394Z" stroke="black" stroke-width="1.5" stroke-linecap="round" stroke-linejoin="round"/>
<path id="Stroke 5" d="M15.009 5.80096L18.604 8.98396" stroke="black" stroke-width="1.5" stroke-linecap="round" stroke-linejoin="round"/>
</g>
</g>
</svg>
