<svg width="24" height="24" viewBox="0 0 24 24" fill="none" xmlns="http://www.w3.org/2000/svg">
<g id="Iconly/Regular/Outline/Paper">
<g id="Paper">
<g id="Group 3">
<mask id="mask0_33437_4402" style="mask-type:luminance" maskUnits="userSpaceOnUse" x="3" y="2" width="18" height="20">
<path id="Clip 2" fill-rule="evenodd" clip-rule="evenodd" d="M3.00024 2.01172H20.0529V21.8652H3.00024V2.01172Z" fill="white"/>
</mask>
<g mask="url(#mask0_33437_4402)">
<path id="Fill 1" fill-rule="evenodd" clip-rule="evenodd" d="M7.57335 3.51172C5.91635 3.51172 4.54035 4.85372 4.50135 6.50872V17.2037C4.46435 18.9167 5.81435 20.3277 7.51035 20.3657H15.5743C17.2433 20.2967 18.5653 18.9097 18.5533 17.2097V8.33972L13.9183 3.51172H7.58535H7.57335ZM7.58535 21.8657H7.47635C4.95435 21.8087 2.94635 19.7107 3.00135 17.1877V6.49072C3.05935 4.00972 5.10835 2.01172 7.57135 2.01172H7.58835H14.2383C14.4423 2.01172 14.6373 2.09472 14.7793 2.24172L19.8443 7.51872C19.9783 7.65772 20.0533 7.84472 20.0533 8.03772V17.2037C20.0713 19.7127 18.1173 21.7627 15.6043 21.8647L7.58535 21.8657Z" fill="black"/>
</g>
</g>
<path id="Fill 4" fill-rule="evenodd" clip-rule="evenodd" d="M19.2985 8.98437H16.5435C14.7135 8.97937 13.2255 7.48737 13.2255 5.65937V2.75037C13.2255 2.33637 13.5615 2.00037 13.9755 2.00037C14.3895 2.00037 14.7255 2.33637 14.7255 2.75037V5.65937C14.7255 6.66337 15.5425 7.48137 16.5455 7.48437H19.2985C19.7125 7.48437 20.0485 7.82037 20.0485 8.23437C20.0485 8.64837 19.7125 8.98437 19.2985 8.98437Z" fill="black"/>
<path id="Fill 6" fill-rule="evenodd" clip-rule="evenodd" d="M13.7887 16.1085H8.38867C7.97467 16.1085 7.63867 15.7725 7.63867 15.3585C7.63867 14.9445 7.97467 14.6085 8.38867 14.6085H13.7887C14.2027 14.6085 14.5387 14.9445 14.5387 15.3585C14.5387 15.7725 14.2027 16.1085 13.7887 16.1085Z" fill="black"/>
<path id="Fill 8" fill-rule="evenodd" clip-rule="evenodd" d="M11.7437 12.3564H8.3877C7.9737 12.3564 7.6377 12.0204 7.6377 11.6064C7.6377 11.1924 7.9737 10.8564 8.3877 10.8564H11.7437C12.1577 10.8564 12.4937 11.1924 12.4937 11.6064C12.4937 12.0204 12.1577 12.3564 11.7437 12.3564Z" fill="black"/>
</g>
</g>
</svg>
