<svg width="24" height="24" viewBox="0 0 24 24" fill="none" xmlns="http://www.w3.org/2000/svg">
<g id="Iconly/Regular/Light/Bag">
<g id="Bag">
<path id="Path_33955" fill-rule="evenodd" clip-rule="evenodd" d="M16.5136 21.5001H8.16579C5.09943 21.5001 2.74703 20.3925 3.41522 15.9349L4.19325 9.89369C4.60515 7.66943 6.02392 6.81818 7.26877 6.81818H17.4473C18.7104 6.81818 20.0468 7.73351 20.5228 9.89369L21.3008 15.9349C21.8683 19.8891 19.58 21.5001 16.5136 21.5001Z" stroke="black" stroke-width="1.5" stroke-linecap="round" stroke-linejoin="round"/>
<path id="Path_33956" d="M16.651 6.59851C16.651 4.21244 14.7167 2.27815 12.3306 2.27815V2.27815C11.1816 2.27328 10.078 2.72631 9.26381 3.53706C8.44963 4.34781 7.99193 5.4495 7.99194 6.59851H7.99194" stroke="black" stroke-width="1.5" stroke-linecap="round" stroke-linejoin="round"/>
<path id="Line_192" d="M15.2962 11.102H15.2505" stroke="black" stroke-width="1.5" stroke-linecap="round" stroke-linejoin="round"/>
<path id="Line_193" d="M9.46566 11.102H9.41989" stroke="black" stroke-width="1.5" stroke-linecap="round" stroke-linejoin="round"/>
</g>
</g>
</svg>
