<svg width="24" height="24" viewBox="0 0 24 24" fill="none" xmlns="http://www.w3.org/2000/svg">
<g id="Iconly/Regular/Outline/Arrow - Right 3">
<g id="Arrow - Right 3">
<path id="Fill 1" fill-rule="evenodd" clip-rule="evenodd" d="M12.7002 13.5005H3.75024C3.33624 13.5005 3.00024 13.1645 3.00024 12.7505C3.00024 12.3365 3.33624 12.0005 3.75024 12.0005H12.7002C13.1142 12.0005 13.4502 12.3365 13.4502 12.7505C13.4502 13.1645 13.1142 13.5005 12.7002 13.5005Z" fill="black"/>
<g id="Group 5">
<mask id="mask0_33437_5067" style="mask-type:luminance" maskUnits="userSpaceOnUse" x="11" y="7" width="11" height="12">
<path id="Clip 4" fill-rule="evenodd" clip-rule="evenodd" d="M11.9502 7.00049H21.3872V18.5015H11.9502V7.00049Z" fill="white"/>
</mask>
<g mask="url(#mask0_33437_5067)">
<path id="Fill 3" fill-rule="evenodd" clip-rule="evenodd" d="M13.4502 9.10893V16.3919L19.2302 12.7509L13.4502 9.10893ZM12.7002 18.5019C12.5752 18.5019 12.4512 18.4699 12.3382 18.4079C12.0982 18.2759 11.9502 18.0249 11.9502 17.7519V7.74993C11.9502 7.47593 12.0982 7.22493 12.3382 7.09293C12.5772 6.96193 12.8702 6.96993 13.0992 7.11493L21.0372 12.1159C21.2562 12.2539 21.3872 12.4929 21.3872 12.7509C21.3872 13.0079 21.2562 13.2479 21.0372 13.3849L13.0992 18.3859C12.9782 18.4629 12.8392 18.5019 12.7002 18.5019Z" fill="black"/>
</g>
</g>
</g>
</g>
</svg>
