<svg width="24" height="24" viewBox="0 0 24 24" fill="none" xmlns="http://www.w3.org/2000/svg">
<g id="Iconly/Regular/Outline/Lock">
<g id="Lock">
<path id="Fill 1" fill-rule="evenodd" clip-rule="evenodd" d="M16.9229 10.2001C16.5089 10.2001 16.1729 9.86413 16.1729 9.45013V7.30313C16.1729 5.20713 14.4679 3.50213 12.3719 3.50213H12.3559C11.3429 3.50213 10.3939 3.89213 9.67688 4.60313C8.95488 5.31713 8.55588 6.27013 8.55188 7.28613V9.45013C8.55188 9.86413 8.21588 10.2001 7.80188 10.2001C7.38788 10.2001 7.05188 9.86413 7.05188 9.45013V7.30313C7.05788 5.86313 7.61488 4.53413 8.61988 3.53813C9.62588 2.54113 10.9539 1.96413 12.3749 2.00213C15.2949 2.00213 17.6729 4.38013 17.6729 7.30313V9.45013C17.6729 9.86413 17.3369 10.2001 16.9229 10.2001Z" fill="black"/>
<path id="Fill 3" fill-rule="evenodd" clip-rule="evenodd" d="M8.542 10.1289C6.864 10.1289 5.5 11.4929 5.5 13.1709V17.4599C5.5 19.1379 6.864 20.5019 8.542 20.5019H16.183C17.86 20.5019 19.225 19.1379 19.225 17.4599V13.1709C19.225 11.4929 17.86 10.1289 16.183 10.1289H8.542ZM16.183 22.0019H8.542C6.037 22.0019 4 19.9649 4 17.4599V13.1709C4 10.6659 6.037 8.62891 8.542 8.62891H16.183C18.688 8.62891 20.725 10.6659 20.725 13.1709V17.4599C20.725 19.9649 18.688 22.0019 16.183 22.0019Z" fill="black"/>
<path id="Fill 5" fill-rule="evenodd" clip-rule="evenodd" d="M12.3623 17.1757C11.9483 17.1757 11.6123 16.8397 11.6123 16.4257V14.2047C11.6123 13.7907 11.9483 13.4547 12.3623 13.4547C12.7763 13.4547 13.1123 13.7907 13.1123 14.2047V16.4257C13.1123 16.8397 12.7763 17.1757 12.3623 17.1757Z" fill="black"/>
</g>
</g>
</svg>
