<svg width="24" height="24" viewBox="0 0 24 24" fill="none" xmlns="http://www.w3.org/2000/svg">
<g id="Iconly/Regular/Outline/Arrow - Up Square">
<g id="Arrow - Up Square">
<path id="Fill 1" fill-rule="evenodd" clip-rule="evenodd" d="M7.666 20.5001C5.136 20.5001 3.5 18.7671 3.5 16.0841V7.91612C3.5 5.23312 5.136 3.50012 7.666 3.50012H16.335C18.865 3.50012 20.5 5.23312 20.5 7.91612V16.0841C20.5 18.7671 18.865 20.5001 16.335 20.5001H7.666ZM16.335 2.00012H7.666C4.277 2.00012 2 4.37812 2 7.91612V16.0841C2 19.6221 4.277 22.0001 7.666 22.0001H16.335C19.724 22.0001 22 19.6221 22 16.0841V7.91612C22 4.37812 19.724 2.00012 16.335 2.00012Z" fill="black"/>
<path id="Fill 3" fill-rule="evenodd" clip-rule="evenodd" d="M12 7.16418C11.586 7.16418 11.25 7.50018 11.25 7.91418V16.0862C11.25 16.5002 11.586 16.8362 12 16.8362C12.414 16.8362 12.75 16.5002 12.75 16.0862V7.91418C12.75 7.50018 12.414 7.16418 12 7.16418Z" fill="black"/>
<path id="Fill 5" fill-rule="evenodd" clip-rule="evenodd" d="M11.9999 7.16323C11.801 7.16323 11.6089 7.24223 11.4689 7.38423L7.72095 11.1482C7.42795 11.4422 7.42995 11.9172 7.72295 12.2092C8.01695 12.5002 8.49095 12.5022 8.78295 12.2072L11.9999 8.97623L15.2169 12.2072C15.5099 12.5022 15.9839 12.5002 16.2769 12.2092C16.57 11.9172 16.5719 11.4422 16.2789 11.1482L12.5309 7.38423C12.3909 7.24223 12.1989 7.16323 11.9999 7.16323Z" fill="black"/>
</g>
</g>
</svg>
