<svg width="24" height="24" viewBox="0 0 24 24" fill="none" xmlns="http://www.w3.org/2000/svg">
<g id="Iconly/Regular/Outline/Discovery">
<g id="Discovery">
<path id="Fill 1" fill-rule="evenodd" clip-rule="evenodd" d="M11.2113 11.212L10.1643 14.559L13.5103 13.511L14.5583 10.164L11.2113 11.212ZM9.02033 16.452C8.82433 16.452 8.63233 16.375 8.48933 16.233C8.29233 16.035 8.22033 15.744 8.30433 15.479L9.89733 10.39C9.97033 10.154 10.1543 9.97101 10.3883 9.89801L15.4773 8.30501C15.7443 8.22001 16.0343 8.29301 16.2323 8.49001C16.4293 8.68801 16.5013 8.97901 16.4173 9.24401L14.8253 14.333C14.7523 14.568 14.5673 14.752 14.3333 14.825L9.24433 16.418C9.17033 16.441 9.09433 16.452 9.02033 16.452Z" fill="black"/>
<g id="Group 5">
<mask id="mask0_33437_4965" style="mask-type:luminance" maskUnits="userSpaceOnUse" x="2" y="2" width="21" height="21">
<path id="Clip 4" fill-rule="evenodd" clip-rule="evenodd" d="M2 2.00012H22.7218V22.7218H2V2.00012Z" fill="white"/>
</mask>
<g mask="url(#mask0_33437_4965)">
<path id="Fill 3" fill-rule="evenodd" clip-rule="evenodd" d="M12.3608 3.50012C7.47476 3.50012 3.49976 7.47612 3.49976 12.3611C3.49976 17.2471 7.47476 21.2221 12.3608 21.2221C17.2468 21.2221 21.2218 17.2471 21.2218 12.3611C21.2218 7.47612 17.2468 3.50012 12.3608 3.50012ZM12.3608 22.7221C6.64776 22.7221 1.99976 18.0741 1.99976 12.3611C1.99976 6.64812 6.64776 2.00012 12.3608 2.00012C18.0738 2.00012 22.7218 6.64812 22.7218 12.3611C22.7218 18.0741 18.0738 22.7221 12.3608 22.7221Z" fill="black"/>
</g>
</g>
</g>
</g>
</svg>
