<svg width="24" height="24" viewBox="0 0 24 24" fill="none" xmlns="http://www.w3.org/2000/svg">
<g id="Iconly/Regular/Outline/Work">
<g id="Work">
<path id="Fill 1" fill-rule="evenodd" clip-rule="evenodd" d="M11.9951 17.4269C11.5811 17.4269 11.2451 17.0909 11.2451 16.6769V14.1399C11.2451 13.7259 11.5811 13.3899 11.9951 13.3899C12.4091 13.3899 12.7451 13.7259 12.7451 14.1399V16.6769C12.7451 17.0909 12.4091 17.4269 11.9951 17.4269Z" fill="black"/>
<g id="Group 5">
<mask id="mask0_33437_4748" style="mask-type:luminance" maskUnits="userSpaceOnUse" x="2" y="4" width="20" height="11">
<path id="Clip 4" fill-rule="evenodd" clip-rule="evenodd" d="M2.00024 4.5802H21.99V14.8912H2.00024V4.5802Z" fill="white"/>
</mask>
<g mask="url(#mask0_33437_4748)">
<path id="Fill 3" fill-rule="evenodd" clip-rule="evenodd" d="M3.50024 11.3932C5.87624 12.6842 8.87224 13.3912 11.9902 13.3912C15.1142 13.3912 18.1132 12.6842 20.4902 11.3932V8.3912C20.4902 7.1162 19.4592 6.0802 18.1902 6.0802H5.81024C4.53624 6.0802 3.50024 7.1122 3.50024 8.3812V11.3932ZM11.9902 14.8912C8.44524 14.8912 5.02824 14.0332 2.37124 12.4772C2.14124 12.3432 2.00024 12.0972 2.00024 11.8302V8.3812C2.00024 6.2852 3.70924 4.5802 5.81024 4.5802H18.1902C20.2862 4.5802 21.9902 6.2892 21.9902 8.3912V11.8302C21.9902 12.0972 21.8482 12.3432 21.6192 12.4772C18.9622 14.0332 15.5422 14.8912 11.9902 14.8912Z" fill="black"/>
</g>
</g>
<g id="Group 8">
<mask id="mask1_33437_4748" style="mask-type:luminance" maskUnits="userSpaceOnUse" x="7" y="2" width="10" height="5">
<path id="Clip 7" fill-rule="evenodd" clip-rule="evenodd" d="M7.74512 2.00037H16.2451V6.07627H7.74512V2.00037Z" fill="white"/>
</mask>
<g mask="url(#mask1_33437_4748)">
<path id="Fill 6" fill-rule="evenodd" clip-rule="evenodd" d="M15.4951 6.07624C15.0811 6.07624 14.7451 5.74024 14.7451 5.32624V4.96024C14.7451 4.15524 14.0901 3.50024 13.2851 3.50024H10.7051C9.90012 3.50024 9.24512 4.15524 9.24512 4.96024V5.32624C9.24512 5.74024 8.90912 6.07624 8.49512 6.07624C8.08112 6.07624 7.74512 5.74024 7.74512 5.32624V4.96024C7.74512 3.32824 9.07312 2.00024 10.7051 2.00024H13.2851C14.9171 2.00024 16.2451 3.32824 16.2451 4.96024V5.32624C16.2451 5.74024 15.9091 6.07624 15.4951 6.07624Z" fill="black"/>
</g>
</g>
<path id="Fill 9" fill-rule="evenodd" clip-rule="evenodd" d="M17.7949 21.7404H6.19494C4.11994 21.7404 2.37294 20.1194 2.21594 18.0494L2.02594 15.5404C1.99494 15.1274 2.30494 14.7664 2.71794 14.7354C3.13294 14.7204 3.49094 15.0134 3.52294 15.4274L3.71194 17.9354C3.80994 19.2274 4.89994 20.2404 6.19494 20.2404H17.7949C19.0899 20.2404 20.1809 19.2274 20.2779 17.9354L20.4679 15.4274C20.4999 15.0134 20.8669 14.7194 21.2729 14.7354C21.6859 14.7664 21.9949 15.1274 21.9639 15.5404L21.7739 18.0494C21.6169 20.1194 19.8699 21.7404 17.7949 21.7404Z" fill="black"/>
</g>
</g>
</svg>
