<svg width="24" height="24" viewBox="0 0 24 24" fill="none" xmlns="http://www.w3.org/2000/svg">
<g id="Iconly/Regular/Bulk/Chart">
<g id="Chart">
<path id="Fill 1" opacity="0.4" d="M16.6756 2.00012H7.33333C3.92889 2.00012 2 3.92901 2 7.33346V16.6668C2 20.0712 3.92889 22.0001 7.33333 22.0001H16.6756C20.08 22.0001 22 20.0712 22 16.6668V7.33346C22 3.92901 20.08 2.00012 16.6756 2.00012Z" fill="black"/>
<path id="Fill 4" d="M7.36866 9.36909C6.91533 9.36909 6.54199 9.74243 6.54199 10.2047V17.0758C6.54199 17.5291 6.91533 17.9024 7.36866 17.9024C7.83088 17.9024 8.20421 17.5291 8.20421 17.0758V10.2047C8.20421 9.74243 7.83088 9.36909 7.36866 9.36909Z" fill="black"/>
<path id="Fill 6" d="M12.0354 6.0891C11.5821 6.0891 11.2087 6.46243 11.2087 6.92465V17.0758C11.2087 17.5291 11.5821 17.9024 12.0354 17.9024C12.4976 17.9024 12.871 17.5291 12.871 17.0758V6.92465C12.871 6.46243 12.4976 6.0891 12.0354 6.0891Z" fill="black"/>
<path id="Fill 8" d="M16.64 12.9958C16.1778 12.9958 15.8044 13.3691 15.8044 13.8313V17.0758C15.8044 17.5291 16.1778 17.9024 16.6311 17.9024C17.0933 17.9024 17.4667 17.5291 17.4667 17.0758V13.8313C17.4667 13.3691 17.0933 12.9958 16.64 12.9958Z" fill="black"/>
</g>
</g>
</svg>
