<svg width="24" height="24" viewBox="0 0 24 24" fill="none" xmlns="http://www.w3.org/2000/svg">
<g id="Iconly/Regular/Bulk/Plus">
<g id="Plus">
<path id="Path_34200" opacity="0.4" d="M16.6667 2.00012H7.33333C3.92889 2.00012 2 3.92901 2 7.33346V16.6668C2 20.0623 3.92 22.0001 7.33333 22.0001H16.6667C20.0711 22.0001 22 20.0623 22 16.6668V7.33346C22 3.92901 20.0711 2.00012 16.6667 2.00012Z" fill="black"/>
<path id="Path_34201" d="M15.3205 12.7085H12.7495V15.2571C12.7495 15.6675 12.4139 16.0001 12 16.0001C11.5861 16.0001 11.2505 15.6675 11.2505 15.2571V12.7085H8.67955C8.29342 12.6688 8 12.3463 8 11.9614C8 11.5766 8.29342 11.2541 8.67955 11.2144H11.2424V8.67377C11.2824 8.291 11.6078 8.00012 11.996 8.00012C12.3842 8.00012 12.7095 8.291 12.7495 8.67377V11.2144H15.3205C15.7066 11.2541 16 11.5766 16 11.9614C16 12.3463 15.7066 12.6688 15.3205 12.7085Z" fill="black"/>
</g>
</g>
</svg>
