<svg width="24" height="24" viewBox="0 0 24 24" fill="none" xmlns="http://www.w3.org/2000/svg">
<g id="Iconly/Regular/Outline/Filter 3">
<g id="Filter 2">
<mask id="mask0_33437_4576" style="mask-type:luminance" maskUnits="userSpaceOnUse" x="2" y="2" width="20" height="20">
<path id="Clip 2" fill-rule="evenodd" clip-rule="evenodd" d="M2.00037 2.00012H21.5V21.5008H2.00037V2.00012Z" fill="white"/>
</mask>
<g mask="url(#mask0_33437_4576)">
<path id="Fill 1" fill-rule="evenodd" clip-rule="evenodd" d="M8.77337 11.5989C8.79137 11.6149 8.80837 11.6299 8.82537 11.6479C9.90437 12.7539 10.4994 14.2189 10.4994 15.7739V19.7579L12.7354 18.5399C12.9114 18.4439 13.0204 18.2559 13.0204 18.0489V15.7619C13.0204 14.2129 13.6094 12.7529 14.6784 11.6529L19.5154 6.50788C19.8284 6.17488 20.0004 5.73788 20.0004 5.27688V4.34088C20.0004 3.87688 19.6344 3.49988 19.1864 3.49988H4.31537C3.86637 3.49988 3.50037 3.87688 3.50037 4.34088V5.27688C3.50037 5.73788 3.67237 6.17488 3.98537 6.50688L8.77337 11.5989ZM10.1464 21.5009C9.94437 21.5009 9.74437 21.4469 9.56237 21.3389C9.21037 21.1289 8.99937 20.7579 8.99937 20.3459V15.7739C8.99937 14.6389 8.57637 13.5699 7.80537 12.7509C7.78237 12.7319 7.75937 12.7109 7.73937 12.6889L2.89337 7.53588C2.31737 6.92388 2.00037 6.12088 2.00037 5.27688V4.34088C2.00037 3.04988 3.03937 1.99988 4.31537 1.99988H19.1864C20.4614 1.99988 21.5004 3.04988 21.5004 4.34088V5.27688C21.5004 6.11988 21.1834 6.92188 20.6094 7.53488L15.7624 12.6889C14.9594 13.5169 14.5204 14.6059 14.5204 15.7619V18.0489C14.5204 18.8049 14.1114 19.4969 13.4534 19.8569L10.6924 21.3609C10.5204 21.4539 10.3334 21.5009 10.1464 21.5009Z" fill="black"/>
</g>
</g>
</g>
</svg>
