<svg width="24" height="24" viewBox="0 0 24 24" fill="none" xmlns="http://www.w3.org/2000/svg">
<g id="Iconly/Regular/Bulk/Paper Plus">
<g id="Paper Plus">
<path id="Fill 3" opacity="0.4" d="M18.8088 9.02112C18.3573 9.02112 17.7592 9.01112 17.0146 9.01112C15.1987 9.01112 13.7055 7.50812 13.7055 5.67512V2.45912C13.7055 2.20612 13.5026 2.00012 13.253 2.00012H7.96363C5.49517 2.00012 3.5 4.02612 3.5 6.50912V17.2841C3.5 19.8891 5.59022 22.0001 8.16958 22.0001H16.0453C18.5058 22.0001 20.5 19.9871 20.5 17.5021V9.47112C20.5 9.21712 20.298 9.01212 20.0465 9.01312C19.6247 9.01612 19.1168 9.02112 18.8088 9.02112Z" fill="black"/>
<path id="Fill 1" opacity="0.4" d="M16.0841 2.56743C15.7851 2.25643 15.2631 2.47043 15.2631 2.90143V5.53843C15.2631 6.64443 16.1741 7.55443 17.2791 7.55443C17.9771 7.56243 18.9451 7.56443 19.7671 7.56243C20.1881 7.56143 20.4021 7.05843 20.1101 6.75443C19.0551 5.65743 17.1661 3.69143 16.0841 2.56743Z" fill="black"/>
<path id="Fill 6" d="M14.3673 12.2364H12.6393V10.5094C12.6393 10.0984 12.3063 9.76443 11.8953 9.76443C11.4843 9.76443 11.1503 10.0984 11.1503 10.5094V12.2364H9.42332C9.01232 12.2364 8.67932 12.5704 8.67932 12.9814C8.67932 13.3924 9.01232 13.7264 9.42332 13.7264H11.1503V15.4524C11.1503 15.8634 11.4843 16.1974 11.8953 16.1974C12.3063 16.1974 12.6393 15.8634 12.6393 15.4524V13.7264H14.3673C14.7783 13.7264 15.1123 13.3924 15.1123 12.9814C15.1123 12.5704 14.7783 12.2364 14.3673 12.2364Z" fill="black"/>
</g>
</g>
</svg>
