<svg width="24" height="24" viewBox="0 0 24 24" fill="none" xmlns="http://www.w3.org/2000/svg">
<g id="Iconly/Regular/Bulk/Home">
<g id="Home">
<path id="Home_2" d="M9.14373 20.7822V17.7154C9.14372 16.9382 9.77567 16.3068 10.5584 16.3019H13.4326C14.2189 16.3019 14.8563 16.9348 14.8563 17.7154V20.7733C14.8562 21.4474 15.404 21.9952 16.0829 22.0001H18.0438C18.9596 22.0025 19.8388 21.6429 20.4872 21.0008C21.1356 20.3587 21.5 19.4869 21.5 18.5776V9.86597C21.5 9.13151 21.1721 8.43483 20.6046 7.96362L13.943 2.67439C12.7785 1.74924 11.1154 1.77913 9.98539 2.74551L3.46701 7.96362C2.87274 8.42094 2.51755 9.11968 2.5 9.86597V18.5688C2.5 20.4638 4.04738 22.0001 5.95617 22.0001H7.87229C8.19917 22.0025 8.51349 21.8752 8.74547 21.6465C8.97746 21.4179 9.10793 21.1068 9.10792 20.7822H9.14373Z" fill="black"/>
</g>
</g>
</svg>
