<svg width="24" height="24" viewBox="0 0 24 24" fill="none" xmlns="http://www.w3.org/2000/svg">
<g id="Iconly/Regular/Outline/Danger Triangle">
<g id="Group 8">
<g id="Group 3">
<mask id="mask0_33437_4782" style="mask-type:luminance" maskUnits="userSpaceOnUse" x="2" y="3" width="21" height="19">
<path id="Clip 2" fill-rule="evenodd" clip-rule="evenodd" d="M2 3.00012H22.0137V21.1856H2V3.00012Z" fill="white"/>
</mask>
<g mask="url(#mask0_33437_4782)">
<path id="Fill 1" fill-rule="evenodd" clip-rule="evenodd" d="M12.0126 4.50012C11.5366 4.50012 11.1126 4.74612 10.8746 5.15912L3.67665 17.7241C3.44265 18.1341 3.44465 18.6231 3.68165 19.0321C3.91865 19.4411 4.34265 19.6861 4.81565 19.6861H19.1986C19.6706 19.6861 20.0946 19.4411 20.3316 19.0321C20.5696 18.6231 20.5716 18.1341 20.3356 17.7241L13.1506 5.15912C12.9136 4.74612 12.4896 4.50012 12.0126 4.50012ZM19.1986 21.1861H4.81565C3.80165 21.1861 2.89265 20.6621 2.38365 19.7841C1.87465 18.9071 1.87165 17.8581 2.37465 16.9791L9.57465 4.41312C10.0806 3.52812 10.9916 3.00012 12.0126 3.00012H12.0136C13.0336 3.00012 13.9466 3.52912 14.4526 4.41512L21.6386 16.9791C22.1416 17.8581 22.1386 18.9071 21.6296 19.7841C21.1206 20.6621 20.2116 21.1861 19.1986 21.1861Z" fill="black"/>
</g>
</g>
<path id="Fill 4" fill-rule="evenodd" clip-rule="evenodd" d="M12.0039 14.1641C11.5899 14.1641 11.2539 13.8281 11.2539 13.4141V10.3141C11.2539 9.90009 11.5899 9.56409 12.0039 9.56409C12.4179 9.56409 12.7539 9.90009 12.7539 10.3141V13.4141C12.7539 13.8281 12.4179 14.1641 12.0039 14.1641Z" fill="black"/>
<path id="Fill 6" fill-rule="evenodd" clip-rule="evenodd" d="M12.0059 17.4991C11.4529 17.4991 11.0009 17.0521 11.0009 16.4991C11.0009 15.9461 11.4439 15.4991 11.9959 15.4991H12.0059C12.5589 15.4991 13.0059 15.9461 13.0059 16.4991C13.0059 17.0521 12.5589 17.4991 12.0059 17.4991Z" fill="black"/>
</g>
</g>
</svg>
