<svg width="24" height="24" viewBox="0 0 24 24" fill="none" xmlns="http://www.w3.org/2000/svg">
<g id="Iconly/Regular/Outline/More Square">
<g id="More Square">
<path id="Fill 1" fill-rule="evenodd" clip-rule="evenodd" d="M7.665 3.50012C5.135 3.50012 3.5 5.23312 3.5 7.91612V16.0841C3.5 18.7671 5.135 20.5001 7.665 20.5001H16.333C18.864 20.5001 20.5 18.7671 20.5 16.0841V7.91612C20.5 5.23312 18.864 3.50012 16.334 3.50012H7.665ZM16.333 22.0001H7.665C4.276 22.0001 2 19.6221 2 16.0841V7.91612C2 4.37812 4.276 2.00012 7.665 2.00012H16.334C19.723 2.00012 22 4.37812 22 7.91612V16.0841C22 19.6221 19.723 22.0001 16.333 22.0001Z" fill="black"/>
<path id="Fill 3" fill-rule="evenodd" clip-rule="evenodd" d="M15.9482 13.0138C15.3952 13.0138 14.9432 12.5668 14.9432 12.0138C14.9432 11.4608 15.3862 11.0138 15.9382 11.0138H15.9482C16.5012 11.0138 16.9482 11.4608 16.9482 12.0138C16.9482 12.5668 16.5012 13.0138 15.9482 13.0138Z" fill="black"/>
<path id="Fill 5" fill-rule="evenodd" clip-rule="evenodd" d="M11.9384 13.0138C11.3854 13.0138 10.9344 12.5668 10.9344 12.0138C10.9344 11.4608 11.3764 11.0138 11.9294 11.0138H11.9384C12.4914 11.0138 12.9384 11.4608 12.9384 12.0138C12.9384 12.5668 12.4914 13.0138 11.9384 13.0138Z" fill="black"/>
<path id="Fill 7" fill-rule="evenodd" clip-rule="evenodd" d="M7.92968 13.0138C7.37668 13.0138 6.92468 12.5668 6.92468 12.0138C6.92468 11.4608 7.36768 11.0138 7.92068 11.0138H7.92968C8.48268 11.0138 8.92968 11.4608 8.92968 12.0138C8.92968 12.5668 8.48268 13.0138 7.92968 13.0138Z" fill="black"/>
</g>
</g>
</svg>
