<svg width="24" height="24" viewBox="0 0 24 24" fill="none" xmlns="http://www.w3.org/2000/svg">
<g id="Iconly/Regular/Bulk/Bag 3">
<g id="Bag 2">
<path id="Fill 4" opacity="0.4" d="M16.6203 22.0001H7.3797C4.68923 22.0001 2.5 19.8312 2.5 17.1647V11.8356C2.5 9.16906 4.68923 7.00012 7.3797 7.00012H16.6203C19.3108 7.00012 21.5 9.16906 21.5 11.8356V17.1647C21.5 19.8312 19.3108 22.0001 16.6203 22.0001Z" fill="black"/>
<path id="Fill 1" d="M15.7551 10.0001C15.344 10.0001 15.0103 9.67646 15.0103 9.27767V6.35702C15.0103 4.75124 13.6635 3.44503 12.0089 3.44503C11.2472 3.44503 10.4477 3.74172 9.87861 4.2879C9.30854 4.836 8.99272 5.5652 8.98974 6.34353V9.27767C8.98974 9.67646 8.65604 10.0001 8.24487 10.0001C7.8337 10.0001 7.5 9.67646 7.5 9.27767V6.35702C7.50497 5.17315 7.97771 4.0808 8.82984 3.26298C9.68098 2.44323 10.7814 2.03191 12.0119 2.00012C14.4849 2.00012 16.5 3.95461 16.5 6.35702V9.27767C16.5 9.67646 16.1663 10.0001 15.7551 10.0001Z" fill="black"/>
</g>
</g>
</svg>
