<svg width="24" height="24" viewBox="0 0 24 24" fill="none" xmlns="http://www.w3.org/2000/svg">
<g id="Iconly/Regular/Outline/Image">
<g id="Image">
<g id="Group 3">
<mask id="mask0_33437_4476" style="mask-type:luminance" maskUnits="userSpaceOnUse" x="2" y="2" width="20" height="20">
<path id="Clip 2" fill-rule="evenodd" clip-rule="evenodd" d="M2.00037 2.00037H21.96V21.9502H2.00037V2.00037Z" fill="white"/>
</mask>
<g mask="url(#mask0_33437_4476)">
<path id="Fill 1" fill-rule="evenodd" clip-rule="evenodd" d="M7.65037 3.50012C5.12937 3.50012 3.50037 5.22712 3.50037 7.89912V16.0511C3.50037 18.7241 5.12937 20.4501 7.65037 20.4501H16.3004C18.8274 20.4501 20.4604 18.7241 20.4604 16.0511V7.89912C20.4604 5.22712 18.8274 3.50012 16.3004 3.50012H7.65037ZM16.3004 21.9501H7.65037C4.27037 21.9501 2.00037 19.5791 2.00037 16.0511V7.89912C2.00037 4.37112 4.27037 2.00012 7.65037 2.00012H16.3004C19.6854 2.00012 21.9604 4.37112 21.9604 7.89912V16.0511C21.9604 19.5791 19.6854 21.9501 16.3004 21.9501Z" fill="black"/>
</g>
</g>
<path id="Fill 4" fill-rule="evenodd" clip-rule="evenodd" d="M5.28138 17.1806C5.09538 17.1806 4.91038 17.1126 4.76538 16.9746C4.46438 16.6906 4.45238 16.2146 4.73738 15.9156L6.26538 14.3026C7.07438 13.4436 8.43938 13.4016 9.30238 14.2116L10.2604 15.1836C10.5274 15.4536 10.9614 15.4586 11.2294 15.1946C11.3304 15.0756 13.5084 12.4306 13.5084 12.4306C13.9224 11.9286 14.5064 11.6186 15.1554 11.5546C15.8054 11.4976 16.4364 11.6866 16.9394 12.0996C16.9824 12.1346 17.0214 12.1686 19.2174 14.4236C19.5064 14.7196 19.5014 15.1946 19.2044 15.4836C18.9084 15.7746 18.4324 15.7656 18.1434 15.4696C18.1434 15.4696 16.0944 13.3666 15.9484 13.2246C15.7934 13.0976 15.5444 13.0236 15.2994 13.0476C15.0504 13.0726 14.8264 13.1916 14.6674 13.3846C12.3434 16.2036 12.3154 16.2306 12.2774 16.2676C11.4194 17.1096 10.0344 17.0956 9.19138 16.2356C9.19138 16.2356 8.26138 15.2916 8.24538 15.2726C8.01438 15.0586 7.60238 15.0726 7.35538 15.3336L5.82538 16.9466C5.67738 17.1026 5.47938 17.1806 5.28138 17.1806Z" fill="black"/>
<path id="Fill 6" fill-rule="evenodd" clip-rule="evenodd" d="M8.55757 8.12903C8.00457 8.12903 7.55457 8.57903 7.55457 9.13303C7.55457 9.68703 8.00457 10.138 8.55857 10.138C9.11257 10.138 9.56357 9.68703 9.56357 9.13303C9.56357 8.58003 9.11257 8.13003 8.55757 8.12903ZM8.55857 11.638C7.17757 11.638 6.05457 10.514 6.05457 9.13303C6.05457 7.75203 7.17757 6.62903 8.55857 6.62903C9.94057 6.63003 11.0636 7.75403 11.0636 9.13303C11.0636 10.514 9.93957 11.638 8.55857 11.638Z" fill="black"/>
</g>
</g>
</svg>
