<svg width="24" height="24" viewBox="0 0 24 24" fill="none" xmlns="http://www.w3.org/2000/svg">
<g id="Iconly/Curved/Light/Ticket Star">
<g id="Ticket Star">
<path id="Stroke 1" fill-rule="evenodd" clip-rule="evenodd" d="M21.4399 13.9941C18.7789 13.9941 18.7789 9.87967 21.4399 9.87967C21.4399 5.11251 21.4399 3.41104 12.0449 3.41104C2.6499 3.41104 2.6499 5.11251 2.6499 9.87967C5.3109 9.87967 5.3109 13.9941 2.6499 13.9941C2.6499 18.7622 2.6499 20.4637 12.0449 20.4637C21.4399 20.4637 21.4399 18.7622 21.4399 13.9941Z" stroke="black" stroke-width="1.5" stroke-linecap="round" stroke-linejoin="round"/>
<path id="Stroke 3" fill-rule="evenodd" clip-rule="evenodd" d="M12.0449 9.17123C11.3619 9.17123 11.2969 10.2607 10.8909 10.6463C10.4839 11.0309 9.22087 10.5913 9.04487 11.2744C8.86987 11.9584 10.0069 12.1905 10.1479 12.7769C10.2879 13.3633 9.59387 14.1875 10.1869 14.5987C10.7809 15.008 11.4199 14.0805 12.0449 14.0805C12.6699 14.0805 13.3089 15.008 13.9029 14.5987C14.4969 14.1875 13.8019 13.3633 13.9419 12.7769C14.0829 12.1905 15.2199 11.9584 15.0449 11.2744C14.8689 10.5913 13.6059 11.0309 13.1989 10.6463C12.7929 10.2607 12.7279 9.17123 12.0449 9.17123Z" stroke="black" stroke-width="1.5" stroke-linecap="round" stroke-linejoin="round"/>
</g>
</g>
</svg>
