<svg width="24" height="24" viewBox="0 0 24 24" fill="none" xmlns="http://www.w3.org/2000/svg">
<g id="Iconly/Regular/Outline/Camera">
<g id="Camera">
<path id="Stroke 1" fill-rule="evenodd" clip-rule="evenodd" d="M7.19406 4.83158C7.59601 4.10105 8.03328 3.61271 8.68213 3.35445C9.87114 2.88167 14.1295 2.88167 15.3176 3.35455C15.9661 3.61266 16.4035 4.10092 16.8058 4.8313L17.258 5.69845C17.2684 5.71563 17.2779 5.73074 17.2864 5.74374L17.3248 5.79625C17.5308 6.02075 17.8757 6.15638 18.1032 6.15638C20.2553 6.15638 22.0002 7.90097 22.0002 10.0524V15.8474C22.0002 18.5916 19.7745 20.8174 17.0302 20.8174H6.97024C4.22535 20.8174 2.00024 18.5919 2.00024 15.8474V10.0524C2.00024 7.90097 3.74522 6.15638 5.89724 6.15638C6.12402 6.15638 6.46932 6.02056 6.67568 5.79625C6.67981 5.79176 6.68519 5.78507 6.69169 5.77621L6.74312 5.69733L7.19406 4.83158ZM15.4919 5.55496C15.2419 5.10112 15.016 4.84897 14.7629 4.74821L14.6436 4.70854C13.6144 4.41766 10.0347 4.43088 9.2366 4.74821C8.98358 4.84892 8.75793 5.10093 8.50826 5.55468L8.1234 6.29878L8.02868 6.47021C7.9496 6.60174 7.87051 6.71276 7.78019 6.81117C7.27373 7.36167 6.52449 7.65638 5.89724 7.65638L5.73315 7.66191C4.48599 7.74624 3.50024 8.78459 3.50024 10.0524V15.8474C3.50024 17.7635 5.05383 19.3174 6.97024 19.3174H17.0302C18.946 19.3174 20.5002 17.7632 20.5002 15.8474V10.0524C20.5002 8.72947 19.4269 7.65638 18.1032 7.65638L17.9291 7.6491C17.3406 7.60067 16.6795 7.31154 16.2197 6.8105C16.1306 6.7134 16.0519 6.60317 15.9733 6.47275C15.962 6.45404 15.948 6.42941 15.9319 6.40027L15.8158 6.18252L15.4919 5.55496Z" fill="black"/>
<path id="Stroke 13" d="M17.5045 8.50012C18.0568 8.50012 18.5045 8.94784 18.5045 9.50012C18.5045 10.013 18.1184 10.4356 17.6211 10.4934L17.5045 10.5001C16.9432 10.5001 16.4955 10.0524 16.4955 9.50012C16.4955 8.98729 16.8815 8.56461 17.3789 8.50685L17.5045 8.50012Z" fill="black"/>
<path id="Stroke 5" fill-rule="evenodd" clip-rule="evenodd" d="M8.07092 13.1281C8.07092 10.9579 9.82971 9.1991 11.9999 9.1991C14.1701 9.1991 15.9289 10.9579 15.9289 13.1281C15.9289 15.2983 14.1701 17.0571 11.9999 17.0571C9.82971 17.0571 8.07092 15.2983 8.07092 13.1281ZM14.4289 13.1281C14.4289 11.7863 13.3417 10.6991 11.9999 10.6991C10.6581 10.6991 9.57092 11.7863 9.57092 13.1281C9.57092 14.4699 10.6581 15.5571 11.9999 15.5571C13.3417 15.5571 14.4289 14.4699 14.4289 13.1281Z" fill="black"/>
</g>
</g>
</svg>
