<svg width="24" height="24" viewBox="0 0 24 24" fill="none" xmlns="http://www.w3.org/2000/svg">
<g id="Iconly/Regular/Bulk/Image">
<g id="Image">
<path id="Fill 1" opacity="0.4" d="M16.3328 22.0001H7.66618C4.2769 22.0001 2 19.623 2 16.0844V7.91684C2 4.37823 4.2769 2.00012 7.66618 2.00012H16.3338C19.7231 2.00012 22 4.37823 22 7.91684V16.0844C22 19.623 19.7231 22.0001 16.3328 22.0001Z" fill="black"/>
<path id="Combined Shape" fill-rule="evenodd" clip-rule="evenodd" d="M11.245 8.67512C11.245 10.0451 10.13 11.1601 8.75997 11.1601C7.38897 11.1601 6.27497 10.0451 6.27497 8.67512C6.27497 7.30512 7.38897 6.18912 8.75997 6.18912C10.13 6.18912 11.245 7.30512 11.245 8.67512ZM19.4004 14.0877C19.6334 14.3137 19.8004 14.5717 19.9104 14.8467C20.2434 15.6787 20.0704 16.6787 19.7144 17.5027C19.2924 18.4837 18.4844 19.2247 17.4664 19.5487C17.0144 19.6937 16.5404 19.7557 16.0674 19.7557H7.68637C6.85237 19.7557 6.11437 19.5617 5.50937 19.1977C5.13037 18.9697 5.06337 18.4447 5.34437 18.1027C5.81437 17.5327 6.27837 16.9607 6.74637 16.3837C7.63837 15.2797 8.23937 14.9597 8.90737 15.2407C9.17837 15.3567 9.45037 15.5317 9.73037 15.7157C10.4764 16.2097 11.5134 16.8877 12.8794 16.1517C13.8131 15.6412 14.3551 14.7675 14.8269 14.007L14.8364 13.9917C14.8681 13.9408 14.8996 13.89 14.931 13.8392C15.0914 13.58 15.2494 13.3247 15.4284 13.0897C15.6504 12.7987 16.4744 11.8887 17.5394 12.5367C18.2184 12.9447 18.7894 13.4967 19.4004 14.0877Z" fill="black"/>
</g>
</g>
</svg>
