<svg width="24" height="24" viewBox="0 0 24 24" fill="none" xmlns="http://www.w3.org/2000/svg">
<g id="Iconly/Regular/Outline/Arrow - Right">
<g id="Arrow - Right">
<path id="Stroke 1" d="M4 11.7257C4 11.346 4.28215 11.0322 4.64823 10.9826L4.75 10.9757H19.75C20.1642 10.9757 20.5 11.3115 20.5 11.7257C20.5 12.1054 20.2178 12.4192 19.8518 12.4689L19.75 12.4757L4.75 12.4757C4.33579 12.4757 4 12.1399 4 11.7257Z" fill="black"/>
<path id="Stroke 3" d="M13.171 6.23284C12.8775 5.94057 12.8765 5.4657 13.1687 5.17218C13.4344 4.90534 13.851 4.88024 14.1451 5.09746L14.2294 5.1699L20.2794 11.1939C20.547 11.4604 20.5714 11.8785 20.3524 12.1726L20.2794 12.2568L14.2294 18.2818C13.9359 18.5741 13.4611 18.5731 13.1688 18.2796C12.9031 18.0128 12.8797 17.5961 13.0982 17.3029L13.171 17.2189L18.687 11.7251L13.171 6.23284Z" fill="black"/>
</g>
</g>
</svg>
