<svg width="24" height="24" viewBox="0 0 24 24" fill="none" xmlns="http://www.w3.org/2000/svg">
<g id="Iconly/Regular/Outline/Category">
<g id="Category">
<path id="Fill 1" fill-rule="evenodd" clip-rule="evenodd" d="M6.25 3.50012C3.5 3.50012 3.5 3.70812 3.5 6.25012V6.27512C3.5 7.38212 3.5 8.18212 3.771 8.52012C4.036 8.84812 4.823 9.00012 6.25 9.00012C7.677 9.00012 8.464 8.84712 8.729 8.51912C9 8.18212 9 7.38212 9 6.27412C9 3.70812 9 3.50012 6.25 3.50012ZM6.25 10.5001C4.564 10.5001 3.299 10.3231 2.604 9.46012C2 8.71112 2 7.68912 2 6.27512L2.75 6.25012H2C2 3.38012 2.181 2.00012 6.25 2.00012C10.319 2.00012 10.5 3.38012 10.5 6.25012C10.5 7.68812 10.5 8.71112 9.896 9.46012C9.201 10.3231 7.936 10.5001 6.25 10.5001Z" fill="black"/>
<path id="Fill 3" fill-rule="evenodd" clip-rule="evenodd" d="M17.25 3.50012C14.5 3.50012 14.5 3.70812 14.5 6.25012V6.27512C14.5 7.38212 14.5 8.18212 14.771 8.52012C15.036 8.84812 15.823 9.00012 17.25 9.00012C18.677 9.00012 19.464 8.84712 19.729 8.51912C20 8.18212 20 7.38212 20 6.27412C20 3.70812 20 3.50012 17.25 3.50012ZM17.25 10.5001C15.564 10.5001 14.299 10.3231 13.604 9.46012C13 8.71112 13 7.68912 13 6.27512L13.75 6.25012H13C13 3.38012 13.181 2.00012 17.25 2.00012C21.319 2.00012 21.5 3.38012 21.5 6.25012C21.5 7.68812 21.5 8.71112 20.896 9.46012C20.201 10.3231 18.936 10.5001 17.25 10.5001Z" fill="black"/>
<path id="Fill 5" fill-rule="evenodd" clip-rule="evenodd" d="M6.25 14.5001C3.5 14.5001 3.5 14.7081 3.5 17.2501V17.2751C3.5 18.3821 3.5 19.1821 3.771 19.5201C4.036 19.8481 4.823 20.0001 6.25 20.0001C7.677 20.0001 8.464 19.8471 8.729 19.5191C9 19.1821 9 18.3821 9 17.2741C9 14.7081 9 14.5001 6.25 14.5001ZM6.25 21.5001C4.564 21.5001 3.299 21.3231 2.604 20.4601C2 19.7111 2 18.6891 2 17.2751L2.75 17.2501H2C2 14.3801 2.181 13.0001 6.25 13.0001C10.319 13.0001 10.5 14.3801 10.5 17.2501C10.5 18.6881 10.5 19.7111 9.896 20.4601C9.201 21.3231 7.936 21.5001 6.25 21.5001Z" fill="black"/>
<path id="Fill 7" fill-rule="evenodd" clip-rule="evenodd" d="M17.25 14.5001C14.5 14.5001 14.5 14.7081 14.5 17.2501V17.2751C14.5 18.3821 14.5 19.1821 14.771 19.5201C15.036 19.8481 15.823 20.0001 17.25 20.0001C18.677 20.0001 19.464 19.8471 19.729 19.5191C20 19.1821 20 18.3821 20 17.2741C20 14.7081 20 14.5001 17.25 14.5001ZM17.25 21.5001C15.564 21.5001 14.299 21.3231 13.604 20.4601C13 19.7111 13 18.6891 13 17.2751L13.75 17.2501H13C13 14.3801 13.181 13.0001 17.25 13.0001C21.319 13.0001 21.5 14.3801 21.5 17.2501C21.5 18.6881 21.5 19.7111 20.896 20.4601C20.201 21.3231 18.936 21.5001 17.25 21.5001Z" fill="black"/>
</g>
</g>
</svg>
