<svg width="24" height="24" viewBox="0 0 24 24" fill="none" xmlns="http://www.w3.org/2000/svg">
<g id="Iconly/Regular/Bulk/Info Circle">
<path id="Fill 1" opacity="0.4" d="M21.9999 11.9999C21.9999 17.5239 17.5229 21.9999 11.9999 21.9999C6.47688 21.9999 1.99988 17.5239 1.99988 11.9999C1.99988 6.47792 6.47688 1.99992 11.9999 1.99992C17.5229 1.99992 21.9999 6.47792 21.9999 11.9999Z" fill="black"/>
<path id="Combined Shape" fill-rule="evenodd" clip-rule="evenodd" d="M12.87 12.6308C12.87 13.1128 12.477 13.5058 11.995 13.5058C11.513 13.5058 11.12 13.1128 11.12 12.6308V8.21082C11.12 7.72882 11.513 7.33582 11.995 7.33582C12.477 7.33582 12.87 7.72882 12.87 8.21082V12.6308ZM11.125 15.8036C11.125 15.3216 11.516 14.9286 11.995 14.9286C12.488 14.9286 12.88 15.3216 12.88 15.8036C12.88 16.2856 12.488 16.6786 12.005 16.6786C11.52 16.6786 11.125 16.2856 11.125 15.8036Z" fill="black"/>
</g>
</svg>
