<svg width="24" height="24" viewBox="0 0 24 24" fill="none" xmlns="http://www.w3.org/2000/svg">
<g id="Iconly/Regular/Outline/Image 3">
<g id="Image 2">
<g id="Group 3">
<mask id="mask0_33437_4623" style="mask-type:luminance" maskUnits="userSpaceOnUse" x="2" y="2" width="20" height="20">
<path id="Clip 2" fill-rule="evenodd" clip-rule="evenodd" d="M2.00037 2.00024H21.9534V21.9541H2.00037V2.00024Z" fill="white"/>
</mask>
<g mask="url(#mask0_33437_4623)">
<path id="Fill 1" fill-rule="evenodd" clip-rule="evenodd" d="M7.65137 3.50012C5.13037 3.50012 3.50037 5.22912 3.50037 7.90412V16.0501C3.50037 18.7261 5.13037 20.4541 7.65137 20.4541H16.2974C18.8224 20.4541 20.4534 18.7261 20.4534 16.0501V7.90412C20.4554 6.54112 20.0394 5.40312 19.2514 4.61412C18.5234 3.88512 17.5044 3.50012 16.3024 3.50012H7.65137ZM16.2974 21.9541H7.65137C4.27137 21.9541 2.00037 19.5811 2.00037 16.0501V7.90412C2.00037 4.37312 4.27137 2.00012 7.65137 2.00012H16.3024C17.9104 2.00012 19.2974 2.53712 20.3124 3.55412C21.3734 4.61612 21.9554 6.16112 21.9534 7.90512V16.0501C21.9534 19.5811 19.6804 21.9541 16.2974 21.9541Z" fill="black"/>
</g>
</g>
<path id="Fill 4" fill-rule="evenodd" clip-rule="evenodd" d="M8.85635 7.6897C8.25235 7.6897 7.76135 8.1807 7.76135 8.7857C7.76135 9.3897 8.25235 9.8807 8.85735 9.8807C9.46135 9.8807 9.95335 9.3897 9.95335 8.7867C9.95235 8.1817 9.46035 7.6907 8.85635 7.6897ZM8.85735 11.3807C7.42535 11.3807 6.26135 10.2167 6.26135 8.7857C6.26135 7.3537 7.42535 6.1897 8.85735 6.1897C10.2884 6.1907 11.4524 7.3547 11.4534 8.7847V8.7857C11.4534 10.2167 10.2894 11.3807 8.85735 11.3807Z" fill="black"/>
<path id="Fill 6" fill-rule="evenodd" clip-rule="evenodd" d="M3.74893 20.1114C3.62493 20.1114 3.49893 20.0804 3.38293 20.0154C3.02093 19.8124 2.89393 19.3554 3.09593 18.9944C3.15593 18.8864 4.59093 16.3494 6.16993 15.0494C7.42193 14.0194 8.76993 14.5854 9.85593 15.0424C10.4949 15.3114 11.0989 15.5654 11.6789 15.5654C12.2109 15.5654 12.8779 14.6254 13.4679 13.7964C14.2869 12.6404 15.2169 11.3324 16.5789 11.3324C18.7489 11.3324 20.6219 13.2684 21.6289 14.3084L21.7449 14.4284C22.0329 14.7254 22.0259 15.2004 21.7289 15.4894C21.4339 15.7784 20.9589 15.7714 20.6689 15.4734L20.5509 15.3514C19.6989 14.4704 18.1129 12.8324 16.5789 12.8324C15.9909 12.8324 15.3009 13.8054 14.6899 14.6644C13.8519 15.8444 12.9849 17.0654 11.6789 17.0654C10.7959 17.0654 9.98693 16.7254 9.27393 16.4244C8.13993 15.9464 7.62593 15.7934 7.12293 16.2074C5.75893 17.3314 4.41693 19.7054 4.40393 19.7284C4.26693 19.9734 4.01193 20.1114 3.74893 20.1114Z" fill="black"/>
</g>
</g>
</svg>
