<svg width="24" height="24" viewBox="0 0 24 24" fill="none" xmlns="http://www.w3.org/2000/svg">
<g id="Iconly/Regular/Outline/Video">
<g id="Video">
<g id="Group 3">
<mask id="mask0_33437_4468" style="mask-type:luminance" maskUnits="userSpaceOnUse" x="2" y="5" width="16" height="16">
<path id="Clip 2" fill-rule="evenodd" clip-rule="evenodd" d="M2.00024 5.00037H17.5005V20.5017H2.00024V5.00037Z" fill="white"/>
</mask>
<g mask="url(#mask0_33437_4468)">
<path id="Fill 1" fill-rule="evenodd" clip-rule="evenodd" d="M6.84735 6.50171C6.40835 6.50171 6.12535 6.50171 6.07635 6.50371C5.33835 6.53471 4.65735 6.84771 4.16635 7.38371C3.70835 7.88471 3.47235 8.52471 3.50335 9.18871C3.50335 12.0817 3.50435 16.4237 3.51135 16.6617C3.62535 18.0467 4.92335 19.1057 6.40935 18.9917C9.15935 18.9957 13.2334 19.0047 13.4244 18.9977C14.1594 18.9677 14.8414 18.6557 15.3324 18.1207C15.7914 17.6217 16.0274 16.9817 15.9984 16.3207C15.9974 16.3097 15.9974 16.2987 15.9974 16.2877C15.9984 13.4277 15.9984 9.08871 15.9914 8.85571C15.8784 7.46371 14.5744 6.39171 13.0804 6.50871C11.0144 6.50571 8.19535 6.50171 6.84735 6.50171ZM6.14635 20.5017C4.03235 20.5027 2.18835 18.8827 2.01435 16.7577C2.01135 16.7167 2.00135 16.5917 2.00435 9.22271C1.95635 8.19171 2.33035 7.16771 3.06035 6.37071C3.82235 5.53871 4.87335 5.05371 6.02035 5.00471C6.15935 4.99471 10.9674 5.00671 13.0264 5.01071C15.2764 4.85271 17.3074 6.52271 17.4884 8.76371C17.4964 8.87271 17.4994 11.3977 17.4974 16.2727C17.5394 17.3287 17.1634 18.3457 16.4374 19.1357C15.6744 19.9667 14.6224 20.4497 13.4764 20.4967C13.3364 20.5067 8.52635 20.4937 6.46435 20.4897C6.35835 20.4977 6.25235 20.5017 6.14635 20.5017Z" fill="black"/>
</g>
</g>
<path id="Fill 4" fill-rule="evenodd" clip-rule="evenodd" d="M20.8186 18.3494C20.3676 18.3494 19.9226 18.1944 19.5556 17.8934L16.2746 15.1974C15.9546 14.9344 15.9086 14.4614 16.1716 14.1414C16.4336 13.8224 16.9066 13.7744 17.2266 14.0384L20.5066 16.7344C20.7276 16.9144 20.9496 16.8404 21.0356 16.7984C21.1216 16.7584 21.3206 16.6334 21.3206 16.3494L21.3326 9.00043C21.3336 8.71643 21.1336 8.59143 21.0476 8.55043C20.9626 8.51043 20.7376 8.43543 20.5186 8.61543L17.2256 11.3104C16.9036 11.5734 16.4326 11.5264 16.1706 11.2044C15.9076 10.8844 15.9556 10.4124 16.2756 10.1504L19.5686 7.45443C20.1726 6.95943 20.9856 6.86243 21.6906 7.19543C22.3956 7.53043 22.8336 8.22243 22.8326 9.00243L22.8206 16.3514C22.8196 17.1314 22.3806 17.8234 21.6766 18.1554C21.4006 18.2864 21.1086 18.3494 20.8186 18.3494Z" fill="black"/>
</g>
</g>
</svg>
