<svg width="24" height="24" viewBox="0 0 24 24" fill="none" xmlns="http://www.w3.org/2000/svg">
<g id="Iconly/Curved/Light/Work">
<g id="Work">
<path id="Stroke 1" d="M11.9612 16.5169V13.8889" stroke="black" stroke-width="1.5" stroke-linecap="round" stroke-linejoin="round"/>
<path id="Stroke 2" d="M21.0895 11.4778L21.0605 11.4988C18.6385 12.9908 15.4405 13.8918 11.9565 13.8918C8.47252 13.8918 5.28352 12.9908 2.86252 11.4988L2.83252 11.4778" stroke="black" stroke-width="1.5" stroke-linecap="round" stroke-linejoin="round"/>
<path id="Stroke 4" fill-rule="evenodd" clip-rule="evenodd" d="M2.75024 13.3508C2.75024 7.1988 5.05324 5.1478 11.9612 5.1478C18.8702 5.1478 21.1722 7.1988 21.1722 13.3508C21.1722 19.5028 18.8702 21.5538 11.9612 21.5538C5.05324 21.5538 2.75024 19.5028 2.75024 13.3508Z" stroke="black" stroke-width="1.5" stroke-linecap="round" stroke-linejoin="round"/>
<path id="Stroke 6" d="M15.2237 5.36941V4.73941C15.2237 3.47541 14.3007 2.45041 13.1637 2.45041H10.7587C9.62173 2.45041 8.69873 3.47541 8.69873 4.73941V5.36941" stroke="black" stroke-width="1.5" stroke-linecap="round" stroke-linejoin="round"/>
</g>
</g>
</svg>
