<svg width="24" height="24" viewBox="0 0 24 24" fill="none" xmlns="http://www.w3.org/2000/svg">
<g id="Iconly/Regular/Outline/Play">
<g id="Play">
<path id="Fill 1" fill-rule="evenodd" clip-rule="evenodd" d="M12.25 3.50012C7.425 3.50012 3.5 7.42512 3.5 12.2501C3.5 17.0751 7.425 21.0001 12.25 21.0001C17.075 21.0001 21 17.0751 21 12.2501C21 7.42512 17.075 3.50012 12.25 3.50012ZM12.25 22.5001C6.598 22.5001 2 17.9021 2 12.2501C2 6.59812 6.598 2.00012 12.25 2.00012C17.902 2.00012 22.5 6.59812 22.5 12.2501C22.5 17.9021 17.902 22.5001 12.25 22.5001Z" fill="black"/>
<path id="Fill 3" fill-rule="evenodd" clip-rule="evenodd" d="M11.1338 10.0865C10.9568 11.0875 10.9538 13.4785 11.1308 14.4285C12.0088 14.1185 13.9108 12.8685 14.4228 12.2495C13.9128 11.6485 12.0348 10.4245 11.1338 10.0865ZM10.8278 16.0015C10.5578 16.0015 10.3018 15.9245 10.0928 15.7165C9.93176 15.5575 9.50176 15.1325 9.49976 12.3335C9.49876 9.36151 9.94576 8.91951 10.0928 8.77251C10.6158 8.25451 11.4678 8.60951 11.8308 8.76151C12.3508 8.97851 15.9998 10.8475 15.9998 12.2455C15.9998 13.5555 12.7158 15.3875 11.8768 15.7375C11.5498 15.8735 11.1768 16.0015 10.8278 16.0015Z" fill="black"/>
</g>
</g>
</svg>
