<svg width="24" height="24" viewBox="0 0 24 24" fill="none" xmlns="http://www.w3.org/2000/svg">
<g id="Iconly/Regular/Outline/Password">
<g id="Password">
<g id="Group 3">
<mask id="mask0_33437_4770" style="mask-type:luminance" maskUnits="userSpaceOnUse" x="2" y="2" width="20" height="21">
<path id="Clip 2" fill-rule="evenodd" clip-rule="evenodd" d="M2 2.00012H21.9999V22.0001H2V2.00012Z" fill="white"/>
</mask>
<g mask="url(#mask0_33437_4770)">
<path id="Fill 1" fill-rule="evenodd" clip-rule="evenodd" d="M7.664 3.50012C5.135 3.50012 3.5 5.23312 3.5 7.91612V16.0841C3.5 18.7671 5.135 20.5001 7.664 20.5001H16.332C18.864 20.5001 20.5 18.7671 20.5 16.0841V7.91612C20.5 5.23312 18.864 3.50012 16.334 3.50012H7.664ZM16.332 22.0001H7.664C4.276 22.0001 2 19.6221 2 16.0841V7.91612C2 4.37812 4.276 2.00012 7.664 2.00012H16.334C19.723 2.00012 22 4.37812 22 7.91612V16.0841C22 19.6221 19.723 22.0001 16.332 22.0001Z" fill="black"/>
</g>
</g>
<path id="Fill 4" fill-rule="evenodd" clip-rule="evenodd" d="M8.83874 10.8986C8.22874 10.8986 7.73474 11.3926 7.73474 12.0006C7.73474 12.6086 8.22874 13.1026 8.83674 13.1026C9.44374 13.1026 9.93874 12.6086 9.93874 12.0006C9.93874 11.3936 9.44474 10.8996 8.83874 10.8986ZM8.83674 14.6026C7.40174 14.6026 6.23474 13.4346 6.23474 12.0006C6.23474 10.5656 7.40174 9.39856 8.83674 9.39856C10.2737 9.39956 11.4387 10.5666 11.4387 12.0006C11.4387 13.4346 10.2717 14.6026 8.83674 14.6026Z" fill="black"/>
<path id="Fill 6" fill-rule="evenodd" clip-rule="evenodd" d="M17.0097 14.6026C16.5957 14.6026 16.2597 14.2666 16.2597 13.8526V12.7496H10.6917C10.2777 12.7496 9.94165 12.4146 9.94165 11.9996C9.94165 11.5856 10.2777 11.2496 10.6917 11.2496H17.0097C17.4237 11.2496 17.7597 11.5856 17.7597 11.9996V13.8526C17.7597 14.2666 17.4237 14.6026 17.0097 14.6026Z" fill="black"/>
<path id="Fill 8" fill-rule="evenodd" clip-rule="evenodd" d="M14.1815 14.6026C13.7675 14.6026 13.4315 14.2666 13.4315 13.8526V11.9996C13.4315 11.5856 13.7675 11.2496 14.1815 11.2496C14.5955 11.2496 14.9315 11.5856 14.9315 11.9996V13.8526C14.9315 14.2666 14.5955 14.6026 14.1815 14.6026Z" fill="black"/>
</g>
</g>
</svg>
