<svg width="24" height="24" viewBox="0 0 24 24" fill="none" xmlns="http://www.w3.org/2000/svg">
<g id="Iconly/Regular/Bulk/Camera">
<g id="Camera">
<path id="Combined Shape" fill-rule="evenodd" clip-rule="evenodd" d="M16.71 10.0723C16.71 10.5717 17.11 10.9713 17.61 10.9713C18.11 10.9713 18.52 10.5717 18.52 10.0723C18.52 9.57281 18.11 9.16327 17.61 9.16327C17.11 9.16327 16.71 9.57281 16.71 10.0723ZM14.77 16.1056C14.06 16.8148 13.08 17.2543 12 17.2543C10.95 17.2543 9.97 16.8447 9.22 16.1056C8.48 15.3564 8.07 14.3775 8.07 13.3286C8.06 12.2898 8.47 11.3109 9.21 10.5617C9.96 9.81255 10.95 9.403 12 9.403C13.05 9.403 14.04 9.81255 14.78 10.5517C15.52 11.3009 15.93 12.2898 15.93 13.3286C15.92 14.4174 15.48 15.3963 14.77 16.1056ZM12 10.9013C11.35 10.9013 10.74 11.1511 10.27 11.6205C9.81 12.08 9.56 12.6894 9.57 13.3187V13.3286C9.57 13.9779 9.82 14.5872 10.28 15.0467C10.74 15.5062 11.35 15.7559 12 15.7559C13.34 15.7559 14.42 14.6672 14.43 13.3286C14.43 12.6794 14.18 12.07 13.72 11.6105C13.26 11.1511 12.65 10.9013 12 10.9013Z" fill="black"/>
<path id="Path" opacity="0.4" d="M17.44 6.23653L17.34 6.01677C17.07 5.4474 16.76 4.78814 16.57 4.40856C16.11 3.50956 15.32 3.01011 14.35 3.00012H9.64C8.67 3.01011 7.89 3.50956 7.43 4.40856C7.23 4.80811 6.89 5.52731 6.61 6.11666L6.55 6.23653C6.52 6.31644 6.44 6.35639 6.36 6.35639C3.95 6.35639 2 8.31422 2 10.7116V16.645C2 19.0423 3.95 21.0001 6.36 21.0001H17.64C20.04 21.0001 22 19.0423 22 16.645V10.7116C22 8.31422 20.04 6.35639 17.64 6.35639C17.55 6.35639 17.48 6.30645 17.44 6.23653Z" fill="black"/>
</g>
</g>
</svg>
