<svg width="24" height="24" viewBox="0 0 24 24" fill="none" xmlns="http://www.w3.org/2000/svg">
<g id="Iconly/Regular/Bulk/Password">
<g id="Password">
<path id="Fill 1" opacity="0.4" d="M16.3344 1.99991H7.66537C4.27637 1.99991 2.00037 4.37791 2.00037 7.91691V16.0839C2.00037 19.6219 4.27637 21.9999 7.66537 21.9999H16.3334C19.7224 21.9999 22.0004 19.6219 22.0004 16.0839V7.91691C22.0004 4.37791 19.7234 1.99991 16.3344 1.99991Z" fill="black"/>
<path id="Combined Shape" fill-rule="evenodd" clip-rule="evenodd" d="M11.3141 11.2486H17.0141C17.4241 11.2486 17.7641 11.5886 17.7641 11.9986V13.8486C17.7641 14.2686 17.4241 14.5986 17.0141 14.5986C16.5941 14.5986 16.2641 14.2686 16.2641 13.8486V12.7486H14.9341V13.8486C14.9341 14.2686 14.5941 14.5986 14.1841 14.5986C13.7641 14.5986 13.4341 14.2686 13.4341 13.8486V12.7486H11.3141C10.9941 13.8186 10.0141 14.5986 8.84413 14.5986C7.40413 14.5986 6.23413 13.4386 6.23413 11.9986C6.23413 10.5686 7.40413 9.39862 8.84413 9.39862C10.0141 9.39862 10.9941 10.1786 11.3141 11.2486ZM7.73413 11.9986C7.73413 12.6086 8.23413 13.0986 8.84413 13.0986C9.44413 13.0986 9.94413 12.6086 9.94413 11.9986C9.94413 11.3886 9.44413 10.8986 8.84413 10.8986C8.23413 10.8986 7.73413 11.3886 7.73413 11.9986Z" fill="black"/>
</g>
</g>
</svg>
