<svg width="24" height="24" viewBox="0 0 24 24" fill="none" xmlns="http://www.w3.org/2000/svg">
<g id="Iconly/Regular/Outline/Unlock">
<g id="Unlock">
<path id="Fill 1" fill-rule="evenodd" clip-rule="evenodd" d="M7.80273 10.1984C7.38873 10.1984 7.05273 9.86237 7.05273 9.44837V7.30137C7.06573 4.36337 9.44173 2.00037 12.3547 2.00037H12.3747C14.6307 2.00037 16.6447 3.43337 17.3837 5.56737C17.5197 5.95837 17.3117 6.38537 16.9197 6.52137C16.5287 6.65837 16.1017 6.44937 15.9657 6.05737C15.4367 4.52837 13.9917 3.50037 12.3717 3.50037H12.3577C10.2657 3.50037 8.56173 5.19437 8.55273 7.28437V9.44837C8.55273 9.86237 8.21673 10.1984 7.80273 10.1984Z" fill="black"/>
<path id="Fill 3" fill-rule="evenodd" clip-rule="evenodd" d="M8.542 10.1271C6.864 10.1271 5.5 11.4921 5.5 13.1701V17.4581C5.5 19.1361 6.864 20.5011 8.542 20.5011H16.184C17.861 20.5011 19.226 19.1361 19.226 17.4581V13.1701C19.226 11.4921 17.861 10.1271 16.184 10.1271H8.542ZM16.184 22.0011H8.542C6.037 22.0011 4 19.9631 4 17.4581V13.1701C4 10.6651 6.037 8.62708 8.542 8.62708H16.184C18.688 8.62708 20.726 10.6651 20.726 13.1701V17.4581C20.726 19.9631 18.688 22.0011 16.184 22.0011Z" fill="black"/>
<path id="Fill 5" fill-rule="evenodd" clip-rule="evenodd" d="M12.3633 17.1749C11.9493 17.1749 11.6133 16.8389 11.6133 16.4249V14.2029C11.6133 13.7889 11.9493 13.4529 12.3633 13.4529C12.7773 13.4529 13.1133 13.7889 13.1133 14.2029V16.4249C13.1133 16.8389 12.7773 17.1749 12.3633 17.1749Z" fill="black"/>
</g>
</g>
</svg>
