<svg width="24" height="24" viewBox="0 0 24 24" fill="none" xmlns="http://www.w3.org/2000/svg">
<g id="Iconly/Regular/Outline/Activity">
<g id="Activity">
<path id="Fill 1" fill-rule="evenodd" clip-rule="evenodd" d="M7.21629 16.003C7.05629 16.003 6.89529 15.952 6.75929 15.848C6.43129 15.595 6.36929 15.124 6.62229 14.796L9.61529 10.906C9.73729 10.747 9.91829 10.644 10.1163 10.619C10.3183 10.593 10.5163 10.649 10.6733 10.774L13.4933 12.989L15.9603 9.80599C16.2143 9.47699 16.6843 9.41599 17.0123 9.67199C17.3403 9.92599 17.4003 10.397 17.1463 10.724L14.2163 14.504C14.0943 14.662 13.9143 14.765 13.7163 14.789C13.5163 14.816 13.3183 14.758 13.1603 14.635L10.3423 12.421L7.81129 15.71C7.66329 15.902 7.44129 16.003 7.21629 16.003Z" fill="black"/>
<g id="Group 5">
<mask id="mask0_33437_4865" style="mask-type:luminance" maskUnits="userSpaceOnUse" x="17" y="2" width="6" height="6">
<path id="Clip 4" fill-rule="evenodd" clip-rule="evenodd" d="M17.2954 2.00024H22.6394V7.34514H17.2954V2.00024Z" fill="white"/>
</mask>
<g mask="url(#mask0_33437_4865)">
<path id="Fill 3" fill-rule="evenodd" clip-rule="evenodd" d="M19.9674 3.50012C19.3214 3.50012 18.7954 4.02512 18.7954 4.67212C18.7954 5.31812 19.3214 5.84512 19.9674 5.84512C20.6134 5.84512 21.1394 5.31812 21.1394 4.67212C21.1394 4.02512 20.6134 3.50012 19.9674 3.50012ZM19.9674 7.34512C18.4944 7.34512 17.2954 6.14612 17.2954 4.67212C17.2954 3.19812 18.4944 2.00012 19.9674 2.00012C21.4414 2.00012 22.6394 3.19812 22.6394 4.67212C22.6394 6.14612 21.4414 7.34512 19.9674 7.34512Z" fill="black"/>
</g>
</g>
<g id="Group 8">
<mask id="mask1_33437_4865" style="mask-type:luminance" maskUnits="userSpaceOnUse" x="2" y="2" width="20" height="21">
<path id="Clip 7" fill-rule="evenodd" clip-rule="evenodd" d="M2 2.84229H21.8619V22.7033H2V2.84229Z" fill="white"/>
</mask>
<g mask="url(#mask1_33437_4865)">
<path id="Fill 6" fill-rule="evenodd" clip-rule="evenodd" d="M16.233 22.7033H7.629C4.262 22.7033 2 20.3383 2 16.8183V8.73629C2 5.21129 4.262 2.84229 7.629 2.84229H14.897C15.311 2.84229 15.647 3.17829 15.647 3.59229C15.647 4.00629 15.311 4.34229 14.897 4.34229H7.629C5.121 4.34229 3.5 6.06629 3.5 8.73629V16.8183C3.5 19.5233 5.082 21.2033 7.629 21.2033H16.233C18.741 21.2033 20.362 19.4823 20.362 16.8183V9.77928C20.362 9.36528 20.698 9.02928 21.112 9.02928C21.526 9.02928 21.862 9.36528 21.862 9.77928V16.8183C21.862 20.3383 19.6 22.7033 16.233 22.7033Z" fill="black"/>
</g>
</g>
</g>
</g>
</svg>
