<svg width="24" height="24" viewBox="0 0 24 24" fill="none" xmlns="http://www.w3.org/2000/svg">
<g id="Iconly/Regular/Light/2 User">
<g id="2 User">
<path id="Stroke 1" fill-rule="evenodd" clip-rule="evenodd" d="M9.59151 15.2069C13.2805 15.2069 16.4335 15.7659 16.4335 17.9989C16.4335 20.2319 13.3015 20.8069 9.59151 20.8069C5.90151 20.8069 2.74951 20.2529 2.74951 18.0189C2.74951 15.7849 5.88051 15.2069 9.59151 15.2069Z" stroke="black" stroke-width="1.5" stroke-linecap="round" stroke-linejoin="round"/>
<path id="Stroke 3" fill-rule="evenodd" clip-rule="evenodd" d="M9.59157 12.0199C7.16957 12.0199 5.20557 10.0569 5.20557 7.63494C5.20557 5.21294 7.16957 3.24994 9.59157 3.24994C12.0126 3.24994 13.9766 5.21294 13.9766 7.63494C13.9856 10.0479 12.0356 12.0109 9.62257 12.0199H9.59157Z" stroke="black" stroke-width="1.5" stroke-linecap="round" stroke-linejoin="round"/>
<path id="Stroke 5" d="M16.4832 10.8818C18.0842 10.6568 19.3172 9.28277 19.3202 7.61977C19.3202 5.98077 18.1252 4.62077 16.5582 4.36377" stroke="black" stroke-width="1.5" stroke-linecap="round" stroke-linejoin="round"/>
<path id="Stroke 7" d="M18.5955 14.7324C20.1465 14.9634 21.2295 15.5074 21.2295 16.6274C21.2295 17.3984 20.7195 17.8984 19.8955 18.2114" stroke="black" stroke-width="1.5" stroke-linecap="round" stroke-linejoin="round"/>
</g>
</g>
</svg>
