<svg width="24" height="24" viewBox="0 0 24 24" fill="none" xmlns="http://www.w3.org/2000/svg">
<g id="Iconly/Regular/Bulk/Voice">
<g id="Voice">
<path id="Fill 1" opacity="0.4" d="M19.5313 9.82581C18.9966 9.82581 18.5626 10.2534 18.5626 10.7825C18.5626 14.3555 15.6186 17.2628 12.0005 17.2628C8.38136 17.2628 5.43743 14.3555 5.43743 10.7825C5.43743 10.2534 5.00345 9.82581 4.46872 9.82581C3.93398 9.82581 3.5 10.2534 3.5 10.7825C3.5 15.0874 6.79945 18.6413 11.0318 19.1187V21.0435C11.0318 21.5715 11.4648 22.0001 12.0005 22.0001C12.5352 22.0001 12.9692 21.5715 12.9692 21.0435V19.1187C17.2006 18.6413 20.5 15.0874 20.5 10.7825C20.5 10.2534 20.066 9.82581 19.5313 9.82581Z" fill="black"/>
<path id="Fill 4" d="M11.8246 15.2172H12.1753C14.5777 15.2172 16.5268 13.2934 16.5268 10.9209V6.29739C16.5268 3.92299 14.5777 2.00012 12.1753 2.00012H11.8246C9.4222 2.00012 7.47314 3.92299 7.47314 6.29739V10.9209C7.47314 13.2934 9.4222 15.2172 11.8246 15.2172Z" fill="black"/>
</g>
</g>
</svg>
