<svg width="24" height="24" viewBox="0 0 24 24" fill="none" xmlns="http://www.w3.org/2000/svg">
<g id="Iconly/Regular/Bulk/Paper Download">
<g id="Paper Download">
<path id="Fill 3" opacity="0.4" d="M18.8089 9.02112C18.3574 9.02112 17.7594 9.01112 17.0149 9.01112C15.199 9.01112 13.7059 7.50812 13.7059 5.67512V2.45912C13.7059 2.20612 13.503 2.00012 13.2525 2.00012H7.96436C5.49604 2.00012 3.5 4.02612 3.5 6.50912V17.2841C3.5 19.8891 5.59109 22.0001 8.1703 22.0001H16.0455C18.5059 22.0001 20.5 19.9871 20.5 17.5021V9.47112C20.5 9.21712 20.298 9.01212 20.0465 9.01312C19.6238 9.01612 19.1168 9.02112 18.8089 9.02112Z" fill="black"/>
<path id="Fill 1" opacity="0.4" d="M16.0843 2.56743C15.7853 2.25643 15.2633 2.47043 15.2633 2.90143V5.53843C15.2633 6.64443 16.1733 7.55443 17.2793 7.55443C17.9773 7.56243 18.9453 7.56443 19.7673 7.56243C20.1883 7.56143 20.4023 7.05843 20.1103 6.75443C19.0553 5.65743 17.1663 3.69143 16.0843 2.56743Z" fill="black"/>
<path id="Fill 6" d="M15.1052 12.709C14.8132 12.42 14.3432 12.418 14.0512 12.711L12.4622 14.308V9.48102C12.4622 9.07002 12.1282 8.73602 11.7172 8.73602C11.3062 8.73602 10.9722 9.07002 10.9722 9.48102V14.308L9.38224 12.711C9.09124 12.418 8.62024 12.42 8.32924 12.709C8.03724 12.999 8.03724 13.47 8.32624 13.762L11.1892 16.638H11.1902C11.2582 16.706 11.3392 16.761 11.4302 16.799C11.5202 16.836 11.6182 16.856 11.7172 16.856C11.8172 16.856 11.9152 16.836 12.0052 16.798C12.0942 16.761 12.1752 16.706 12.2432 16.639L12.2452 16.638L15.1072 13.762C15.3972 13.47 15.3972 12.999 15.1052 12.709Z" fill="black"/>
</g>
</g>
</svg>
