<svg width="24" height="24" viewBox="0 0 24 24" fill="none" xmlns="http://www.w3.org/2000/svg">
<g id="Iconly/Regular/Bulk/Voice 3">
<g id="Voice 2">
<path id="Fill 1" d="M11.8251 15.2173H12.1748C14.0987 15.2173 15.731 13.9851 16.3054 12.2765C16.3887 12.0278 16.1979 11.7714 15.9334 11.7714H14.8562C14.5133 11.7714 14.2362 11.4978 14.2362 11.1601C14.2362 10.8214 14.5133 10.5469 14.8562 10.5469H15.9005C16.2463 10.5469 16.5263 10.2704 16.5263 9.92887C16.5263 9.58735 16.2463 9.31087 15.9005 9.31087H14.8562C14.5133 9.31087 14.2362 9.03631 14.2362 8.69861C14.2362 8.35996 14.5133 8.0854 14.8562 8.0854H15.9005C16.2463 8.0854 16.5263 7.80893 16.5263 7.4674C16.5263 7.12587 16.2463 6.8494 15.9005 6.8494H14.8562C14.5133 6.8494 14.2362 6.57484 14.2362 6.23619C14.2362 5.89849 14.5133 5.62393 14.8562 5.62393H15.9886C16.2483 5.62393 16.4343 5.37902 16.3645 5.13125C15.8501 3.32413 14.1694 2.00012 12.1748 2.00012H11.8251C9.42172 2.00012 7.47363 3.923 7.47363 6.29741V10.92C7.47363 13.2934 9.42172 15.2173 11.8251 15.2173Z" fill="black"/>
<path id="Fill 3" opacity="0.4" d="M19.5313 9.82574C18.9966 9.82574 18.5626 10.2534 18.5626 10.7824C18.5626 14.3555 15.6186 17.2628 12.0005 17.2628C8.38136 17.2628 5.43743 14.3555 5.43743 10.7824C5.43743 10.2534 5.00345 9.82574 4.46872 9.82574C3.93398 9.82574 3.5 10.2534 3.5 10.7824C3.5 15.0873 6.79945 18.6413 11.0318 19.1187V21.0435C11.0318 21.5715 11.4648 22.0001 12.0005 22.0001C12.5352 22.0001 12.9692 21.5715 12.9692 21.0435V19.1187C17.2006 18.6413 20.5 15.0873 20.5 10.7824C20.5 10.2534 20.066 9.82574 19.5313 9.82574Z" fill="black"/>
</g>
</g>
</svg>
