<svg width="24" height="24" viewBox="0 0 24 24" fill="none" xmlns="http://www.w3.org/2000/svg">
<g id="Iconly/Regular/Outline/Arrow - Right Square">
<g id="Arrow - Right Square">
<path id="Fill 1" fill-rule="evenodd" clip-rule="evenodd" d="M7.916 3.50012C5.233 3.50012 3.5 5.13512 3.5 7.66512V16.3341C3.5 18.8641 5.233 20.5001 7.916 20.5001H16.084C18.767 20.5001 20.5 18.8641 20.5 16.3341V7.66512C20.5 5.13512 18.767 3.50012 16.084 3.50012H7.916ZM16.084 22.0001H7.916C4.378 22.0001 2 19.7231 2 16.3341V7.66512C2 4.27612 4.378 2.00012 7.916 2.00012H16.084C19.622 2.00012 22 4.27612 22 7.66512V16.3341C22 19.7231 19.622 22.0001 16.084 22.0001Z" fill="black"/>
<path id="Fill 3" fill-rule="evenodd" clip-rule="evenodd" d="M16.0859 12.7501H7.91394C7.49994 12.7501 7.16394 12.4141 7.16394 12.0001C7.16394 11.5861 7.49994 11.2501 7.91394 11.2501H16.0859C16.4999 11.2501 16.8359 11.5861 16.8359 12.0001C16.8359 12.4141 16.4999 12.7501 16.0859 12.7501Z" fill="black"/>
<path id="Fill 5" fill-rule="evenodd" clip-rule="evenodd" d="M12.3223 16.4981C12.1303 16.4981 11.9373 16.4251 11.7913 16.2771C11.4993 15.9831 11.5003 15.5091 11.7933 15.2171L15.0233 12.0001L11.7933 8.78307C11.5003 8.49107 11.4993 8.01707 11.7913 7.72307C12.0833 7.42907 12.5573 7.42907 12.8513 7.72107L16.6153 11.4691C16.7573 11.6091 16.8363 11.8011 16.8363 12.0001C16.8363 12.1991 16.7573 12.3911 16.6153 12.5311L12.8513 16.2791C12.7053 16.4251 12.5133 16.4981 12.3223 16.4981Z" fill="black"/>
</g>
</g>
</svg>
