<svg width="24" height="24" viewBox="0 0 24 24" fill="none" xmlns="http://www.w3.org/2000/svg">
<g id="Iconly/Regular/Bulk/Edit Square">
<g id="Edit Square">
<path id="Fill 1" opacity="0.4" d="M16.6643 21.9898H7.33488C5.88835 22.0797 4.46781 21.5782 3.3989 20.6013C2.4219 19.5314 1.92041 18.1108 2.01032 16.6653V7.33495C1.92041 5.88944 2.4209 4.4689 3.3979 3.39901C4.46781 2.42202 5.88835 1.92053 7.33488 2.01044H16.6643C18.1089 1.92053 19.5284 2.42102 20.5973 3.39801C21.5733 4.4689 22.0758 5.88844 21.9899 7.33495V16.6653C22.0788 18.1108 21.5783 19.5314 20.6013 20.6013C19.5314 21.5782 18.1109 22.0797 16.6643 21.9898Z" fill="black"/>
<path id="Fill 4" d="M17.0545 10.3977L10.5018 16.983C10.161 17.3148 9.7131 17.5001 9.24574 17.5001H6.95762C6.83105 17.5001 6.71421 17.4513 6.62658 17.3635C6.53895 17.2757 6.5 17.1587 6.5 17.0318L6.55842 14.7196C6.56816 14.2611 6.75315 13.8318 7.07446 13.5099L11.7189 8.85622C11.7967 8.77817 11.9331 8.77817 12.011 8.85622L13.6399 10.4787C13.747 10.585 13.9028 10.6543 14.0683 10.6543C14.4286 10.6543 14.7109 10.3616 14.7109 10.0104C14.7109 9.83476 14.6428 9.67866 14.5357 9.56159C14.5065 9.52256 12.9554 7.97817 12.9554 7.97817C12.858 7.88061 12.858 7.71476 12.9554 7.6172L13.6078 6.95378C14.2114 6.3489 15.1851 6.3489 15.7888 6.95378L17.0545 8.22207C17.6485 8.8172 17.6485 9.79281 17.0545 10.3977Z" fill="black"/>
</g>
</g>
</svg>
