<svg width="24" height="24" viewBox="0 0 24 24" fill="none" xmlns="http://www.w3.org/2000/svg">
<g id="Iconly/Curved/Light/3 User">
<g id="3 User">
<path id="Stroke 1" fill-rule="evenodd" clip-rule="evenodd" d="M11.9726 20.3683C8.73355 20.3683 5.96655 19.8783 5.96655 17.9163C5.96655 15.9543 8.71555 14.2463 11.9726 14.2463C15.2116 14.2463 17.9786 15.9383 17.9786 17.8993C17.9786 19.8603 15.2296 20.3683 11.9726 20.3683Z" stroke="black" stroke-width="1.5" stroke-linecap="round" stroke-linejoin="round"/>
<path id="Stroke 3" fill-rule="evenodd" clip-rule="evenodd" d="M11.9726 11.4488C14.0986 11.4488 15.8226 9.72582 15.8226 7.59982C15.8226 5.47382 14.0986 3.74982 11.9726 3.74982C9.84657 3.74982 8.12257 5.47382 8.12257 7.59982C8.11657 9.71782 9.82657 11.4418 11.9456 11.4488H11.9726Z" stroke="black" stroke-width="1.5" stroke-linecap="round" stroke-linejoin="round"/>
<path id="Stroke 5" d="M18.362 10.3917C19.599 10.0607 20.511 8.93272 20.511 7.58972C20.511 6.18872 19.518 5.01872 18.196 4.74872" stroke="black" stroke-width="1.5" stroke-linecap="round" stroke-linejoin="round"/>
<path id="Stroke 7" d="M18.9431 13.5445C20.6971 13.5445 22.1951 14.7335 22.1951 15.7955C22.1951 16.4205 21.6781 17.1015 20.8941 17.2855" stroke="black" stroke-width="1.5" stroke-linecap="round" stroke-linejoin="round"/>
<path id="Stroke 9" d="M5.58384 10.3917C4.34584 10.0607 3.43384 8.93272 3.43384 7.58972C3.43384 6.18872 4.42784 5.01872 5.74884 4.74872" stroke="black" stroke-width="1.5" stroke-linecap="round" stroke-linejoin="round"/>
<path id="Stroke 11" d="M5.00176 13.5445C3.24776 13.5445 1.74976 14.7335 1.74976 15.7955C1.74976 16.4205 2.26676 17.1015 3.05176 17.2855" stroke="black" stroke-width="1.5" stroke-linecap="round" stroke-linejoin="round"/>
</g>
</g>
</svg>
