<svg width="24" height="24" viewBox="0 0 24 24" fill="none" xmlns="http://www.w3.org/2000/svg">
<g id="Iconly/Regular/Outline/Setting">
<g id="Setting">
<g id="Group 3">
<mask id="mask0_33437_5018" style="mask-type:luminance" maskUnits="userSpaceOnUse" x="2" y="2" width="20" height="21">
<path id="Clip 2" fill-rule="evenodd" clip-rule="evenodd" d="M2 2.00061H21.2849V22.7216H2V2.00061Z" fill="white"/>
</mask>
<g mask="url(#mask0_33437_5018)">
<path id="Fill 1" fill-rule="evenodd" clip-rule="evenodd" d="M7.20232 17.4406C7.43132 17.4406 7.66032 17.4696 7.88432 17.5296C8.56032 17.7116 9.14732 18.1636 9.49532 18.7706C9.72132 19.1516 9.84632 19.5966 9.85032 20.0506C9.85032 20.7006 10.3723 21.2216 11.0143 21.2216H12.2673C12.9063 21.2216 13.4283 20.7036 13.4313 20.0646C13.4273 19.3586 13.7033 18.6876 14.2083 18.1826C14.7063 17.6846 15.4023 17.3856 16.0983 17.4056C16.5543 17.4166 16.9933 17.5396 17.3803 17.7596C17.9373 18.0786 18.6483 17.8886 18.9703 17.3386L19.6343 16.2316C19.7823 15.9766 19.8253 15.6566 19.7463 15.3616C19.6683 15.0666 19.4723 14.8106 19.2083 14.6596C18.5903 14.3036 18.1493 13.7296 17.9663 13.0416C17.7853 12.3666 17.8843 11.6296 18.2373 11.0226C18.4673 10.6226 18.8043 10.2856 19.2083 10.0536C19.7503 9.73661 19.9403 9.02761 19.6253 8.47561C19.6123 8.45361 19.6003 8.43061 19.5903 8.40661L19.0043 7.39061C18.6853 6.83561 17.9753 6.64461 17.4183 6.96161C16.8163 7.31761 16.1003 7.41961 15.4123 7.23861C14.7253 7.06061 14.1493 6.62561 13.7903 6.01161C13.5603 5.62761 13.4353 5.18061 13.4313 4.72561C13.4403 4.38361 13.3203 4.07661 13.1023 3.85161C12.8853 3.62761 12.5803 3.50061 12.2673 3.50061H11.0143C10.7043 3.50061 10.4143 3.62161 10.1953 3.83961C9.97732 4.05861 9.85832 4.34961 9.86032 4.65961C9.83932 6.12161 8.64432 7.29861 7.19732 7.29861C6.73332 7.29361 6.28632 7.16861 5.89832 6.93661C5.35332 6.62661 4.64132 6.81761 4.32232 7.37261L3.64532 8.48561C3.33532 9.02361 3.52532 9.73461 4.07732 10.0556C4.89632 10.5296 5.40732 11.4136 5.40732 12.3616C5.40732 13.3096 4.89632 14.1926 4.07532 14.6676C3.52632 14.9856 3.33632 15.6926 3.65432 16.2426L4.28532 17.3306C4.44132 17.6116 4.69632 17.8146 4.99132 17.8976C5.28532 17.9796 5.60932 17.9446 5.87932 17.7946C6.27632 17.5616 6.73832 17.4406 7.20232 17.4406ZM12.2673 22.7216H11.0143C9.54532 22.7216 8.35032 21.5276 8.35032 20.0586C8.34832 19.8776 8.29632 19.6896 8.19932 19.5266C8.04232 19.2526 7.78832 19.0566 7.49532 18.9786C7.20432 18.9006 6.88532 18.9436 6.62332 19.0956C5.99532 19.4456 5.25632 19.5306 4.58032 19.3406C3.90532 19.1496 3.32232 18.6856 2.98032 18.0706L2.35532 16.9936C1.62432 15.7256 2.05932 14.1006 3.32532 13.3686C3.68432 13.1616 3.90732 12.7756 3.90732 12.3616C3.90732 11.9476 3.68432 11.5606 3.32532 11.3536C2.05832 10.6176 1.62432 8.98861 2.35432 7.72061L3.03232 6.60761C3.75332 5.35361 5.38332 4.91161 6.65432 5.64161C6.82732 5.74461 7.01532 5.79661 7.20632 5.79861C7.82932 5.79861 8.35032 5.28461 8.36032 4.65261C8.35632 3.95561 8.63132 3.28661 9.13232 2.78161C9.63532 2.27761 10.3033 2.00061 11.0143 2.00061H12.2673C12.9833 2.00061 13.6793 2.29461 14.1783 2.80561C14.6763 3.31961 14.9513 4.02461 14.9303 4.73961C14.9323 4.90061 14.9853 5.08661 15.0813 5.24961C15.2403 5.51961 15.4913 5.70961 15.7893 5.78761C16.0873 5.86161 16.3993 5.82161 16.6643 5.66461C17.9443 4.93361 19.5733 5.37161 20.3043 6.64161L20.9273 7.72061C20.9433 7.74961 20.9573 7.77761 20.9693 7.80661C21.6313 9.05761 21.1893 10.6326 19.9593 11.3516C19.7803 11.4546 19.6353 11.5986 19.5353 11.7726C19.3803 12.0416 19.3373 12.3616 19.4153 12.6556C19.4953 12.9556 19.6863 13.2046 19.9553 13.3586C20.5623 13.7076 21.0153 14.2956 21.1963 14.9746C21.3773 15.6526 21.2783 16.3886 20.9253 16.9956L20.2613 18.1016C19.5303 19.3576 17.9013 19.7926 16.6343 19.0606C16.4653 18.9636 16.2703 18.9106 16.0763 18.9056H16.0703C15.7813 18.9056 15.4843 19.0286 15.2683 19.2436C15.0493 19.4626 14.9293 19.7546 14.9313 20.0646C14.9243 21.5336 13.7293 22.7216 12.2673 22.7216Z" fill="black"/>
</g>
</g>
<path id="Fill 4" fill-rule="evenodd" clip-rule="evenodd" d="M11.645 10.4747C10.605 10.4747 9.75903 11.3217 9.75903 12.3617C9.75903 13.4017 10.605 14.2467 11.645 14.2467C12.685 14.2467 13.531 13.4017 13.531 12.3617C13.531 11.3217 12.685 10.4747 11.645 10.4747ZM11.645 15.7467C9.77803 15.7467 8.25903 14.2287 8.25903 12.3617C8.25903 10.4947 9.77803 8.97473 11.645 8.97473C13.512 8.97473 15.031 10.4947 15.031 12.3617C15.031 14.2287 13.512 15.7467 11.645 15.7467Z" fill="black"/>
</g>
</g>
</svg>
