<svg width="24" height="24" viewBox="0 0 24 24" fill="none" xmlns="http://www.w3.org/2000/svg">
<g id="Iconly/Regular/Bulk/Login">
<g id="Login">
<path id="Fill 1" opacity="0.4" d="M7.29614 6.44612C7.29614 3.99512 9.35594 2.00012 11.8876 2.00012H16.9199C19.4453 2.00012 21.5 3.99012 21.5 6.43612V17.5521C21.5 20.0041 19.4412 22.0001 16.9096 22.0001H11.8773C9.35181 22.0001 7.29614 20.0091 7.29614 17.5621V16.6221V6.44612Z" fill="black"/>
<path id="Fill 4" d="M16.0374 11.4539L13.0695 8.54493C12.7627 8.24493 12.2691 8.24493 11.9634 8.54693C11.6587 8.84893 11.6597 9.33593 11.9654 9.63593L13.5905 11.2289H3.2821C2.85042 11.2289 2.5 11.5739 2.5 11.9999C2.5 12.4249 2.85042 12.7689 3.2821 12.7689H13.5905L11.9654 14.3629C11.6597 14.6629 11.6587 15.1499 11.9634 15.4519C12.1168 15.6029 12.3168 15.6789 12.518 15.6789C12.717 15.6789 12.9171 15.6029 13.0695 15.4539L16.0374 12.5449C16.1847 12.3999 16.268 12.2039 16.268 11.9999C16.268 11.7949 16.1847 11.5989 16.0374 11.4539Z" fill="black"/>
</g>
</g>
</svg>
