<svg width="24" height="24" viewBox="0 0 24 24" fill="none" xmlns="http://www.w3.org/2000/svg">
<g id="Iconly/Regular/Bulk/Activity">
<g id="Activity">
<path id="Path_34168" fill-rule="evenodd" clip-rule="evenodd" d="M15.2428 4.73768C15.2428 6.95868 17.0459 8.75915 19.2702 8.75915C19.5151 8.75794 19.7594 8.73443 20 8.6889V16.6616C20 20.0157 18.0215 22.0001 14.6624 22.0001H7.34636C3.97851 22.0001 2 20.0157 2 16.6616V9.35622C2 6.00207 3.97851 4.00012 7.34636 4.00012H15.3131C15.2659 4.24313 15.2423 4.49014 15.2428 4.73768ZM13.15 14.8967L16.0078 11.2089V11.1913C16.2525 10.8626 16.1901 10.399 15.8671 10.1465C15.7108 10.0258 15.5122 9.97358 15.3167 10.0017C15.1211 10.0298 14.9453 10.1359 14.8295 10.2957L12.4201 13.3952L9.6766 11.2352C9.51997 11.1132 9.32071 11.0593 9.12381 11.0858C8.92691 11.1122 8.74898 11.2167 8.63019 11.3757L5.67562 15.1865C5.57177 15.3159 5.51586 15.4772 5.51734 15.643C5.5002 15.9783 5.71187 16.2828 6.03238 16.3839C6.35288 16.4851 6.70138 16.3574 6.88031 16.0733L9.35125 12.8772L12.0948 15.0284C12.2508 15.1542 12.4514 15.2113 12.6504 15.1864C12.8494 15.1616 13.0297 15.057 13.15 14.8967Z" fill="black"/>
<circle id="Ellipse_742" opacity="0.4" cx="19.5" cy="4.50012" r="2.5" fill="black"/>
</g>
</g>
</svg>
