<svg width="24" height="24" viewBox="0 0 24 24" fill="none" xmlns="http://www.w3.org/2000/svg">
<g id="Iconly/Regular/Outline/Paper Negative">
<g id="Group 7">
<path id="Fill 1" fill-rule="evenodd" clip-rule="evenodd" d="M7.5719 3.51184C5.9149 3.51184 4.5399 4.85384 4.5009 6.50884V17.3398C4.4719 18.9868 5.7789 20.3388 7.4129 20.3668L7.5609 20.3658H15.5729C17.2149 20.3478 18.5539 18.9908 18.5519 17.3408V8.34184L13.9169 3.51184H7.5849H7.5719ZM7.3989 21.8668C4.9259 21.8238 2.9589 19.7868 3.0009 17.3268V6.49084C3.0579 4.00984 5.1059 2.01184 7.5689 2.01184H7.5879H14.2359C14.4399 2.01184 14.6349 2.09484 14.7769 2.24184L19.8429 7.52084C19.9769 7.65984 20.0519 7.84684 20.0519 8.03984V17.3398C20.0559 19.8088 18.0499 21.8398 15.5809 21.8658L7.3989 21.8668Z" fill="black"/>
<path id="Fill 3" fill-rule="evenodd" clip-rule="evenodd" d="M19.2966 8.98449H16.5426C14.7116 8.97949 13.2236 7.48749 13.2236 5.65949V2.75049C13.2236 2.33649 13.5596 2.00049 13.9736 2.00049C14.3876 2.00049 14.7236 2.33649 14.7236 2.75049V5.65949C14.7236 6.66349 15.5406 7.48149 16.5446 7.48449H19.2966C19.7106 7.48449 20.0466 7.82049 20.0466 8.23449C20.0466 8.64849 19.7106 8.98449 19.2966 8.98449Z" fill="black"/>
<path id="Fill 5" fill-rule="evenodd" clip-rule="evenodd" d="M13.7926 14.4972H8.89355C8.47955 14.4972 8.14355 14.1612 8.14355 13.7472C8.14355 13.3332 8.47955 12.9972 8.89355 12.9972H13.7926C14.2066 12.9972 14.5426 13.3332 14.5426 13.7472C14.5426 14.1612 14.2066 14.4972 13.7926 14.4972Z" fill="black"/>
</g>
</g>
</svg>
