<svg width="24" height="24" viewBox="0 0 24 24" fill="none" xmlns="http://www.w3.org/2000/svg">
<g id="Iconly/Regular/Outline/Hide">
<g id="Hide">
<path id="Fill 1" fill-rule="evenodd" clip-rule="evenodd" d="M9.76082 15.6173C9.56882 15.6173 9.37682 15.5443 9.23082 15.3973C8.49282 14.6603 8.08582 13.6803 8.08582 12.6383C8.08582 10.4783 9.84182 8.72131 11.9998 8.72131C13.0378 8.72131 14.0458 9.14031 14.7648 9.87131C15.0548 10.1673 15.0518 10.6413 14.7558 10.9313C14.4608 11.2233 13.9868 11.2183 13.6958 10.9243C13.2568 10.4773 12.6388 10.2213 11.9998 10.2213C10.6688 10.2213 9.58582 11.3053 9.58582 12.6383C9.58582 13.2793 9.83682 13.8833 10.2908 14.3373C10.5838 14.6303 10.5838 15.1043 10.2918 15.3973C10.1448 15.5443 9.95282 15.6173 9.76082 15.6173Z" fill="black"/>
<path id="Fill 3" fill-rule="evenodd" clip-rule="evenodd" d="M12.5674 16.4913C12.2124 16.4913 11.8964 16.2373 11.8304 15.8753C11.7564 15.4683 12.0264 15.0773 12.4344 15.0033C13.4144 14.8253 14.1904 14.0473 14.3664 13.0663C14.4404 12.6593 14.8304 12.3913 15.2374 12.4613C15.6454 12.5343 15.9164 12.9243 15.8434 13.3323C15.5564 14.9253 14.2944 16.1893 12.7024 16.4793C12.6574 16.4873 12.6114 16.4913 12.5674 16.4913Z" fill="black"/>
<g id="Group 7">
<mask id="mask0_33437_4845" style="mask-type:luminance" maskUnits="userSpaceOnUse" x="2" y="4" width="17" height="15">
<path id="Clip 6" fill-rule="evenodd" clip-rule="evenodd" d="M2 4.62451H18.0862V18.7226H2V4.62451Z" fill="white"/>
</mask>
<g mask="url(#mask0_33437_4845)">
<path id="Fill 5" fill-rule="evenodd" clip-rule="evenodd" d="M6.6545 18.7226C6.4925 18.7226 6.3295 18.6696 6.1915 18.5626C4.5005 17.2346 3.0715 15.2876 2.0615 12.9336C1.9795 12.7436 1.9795 12.5296 2.0615 12.3406C3.0825 9.97664 4.5205 8.01964 6.2205 6.68264C9.6865 3.93964 14.3005 3.93064 17.8015 6.70264C18.1265 6.95964 18.1815 7.43164 17.9245 7.75664C17.6665 8.07964 17.1965 8.13664 16.8705 7.87864C13.9045 5.53064 10.0835 5.53864 7.1495 7.86064C5.7135 8.99064 4.4805 10.6366 3.5705 12.6386C4.4715 14.6286 5.6935 16.2646 7.1185 17.3826C7.4445 17.6386 7.5005 18.1106 7.2445 18.4356C7.0965 18.6236 6.8765 18.7226 6.6545 18.7226Z" fill="black"/>
</g>
</g>
<g id="Group 10">
<mask id="mask1_33437_4845" style="mask-type:luminance" maskUnits="userSpaceOnUse" x="8" y="8" width="14" height="13">
<path id="Clip 9" fill-rule="evenodd" clip-rule="evenodd" d="M8.71753 8.74133H22.0001V20.6895H8.71753V8.74133Z" fill="white"/>
</mask>
<g mask="url(#mask1_33437_4845)">
<path id="Fill 8" fill-rule="evenodd" clip-rule="evenodd" d="M12.0002 20.6895C11.0632 20.6895 10.1312 20.5375 9.23116 20.2385C8.83816 20.1075 8.62516 19.6825 8.75616 19.2895C8.88716 18.8955 9.31016 18.6865 9.70516 18.8145C10.4522 19.0635 11.2242 19.1895 12.0002 19.1895C15.4282 19.1895 18.5612 16.7475 20.4302 12.6365C19.9742 11.6375 19.4432 10.7325 18.8492 9.94254C18.6002 9.61154 18.6662 9.14054 18.9972 8.89154C19.3272 8.64254 19.7982 8.71054 20.0472 9.04054C20.7712 10.0015 21.4072 11.1125 21.9382 12.3385C22.0212 12.5285 22.0212 12.7445 21.9382 12.9335C19.8422 17.7905 16.1272 20.6895 12.0002 20.6895Z" fill="black"/>
</g>
</g>
<g id="Group 13">
<mask id="mask2_33437_4845" style="mask-type:luminance" maskUnits="userSpaceOnUse" x="3" y="4" width="18" height="18">
<path id="Clip 12" fill-rule="evenodd" clip-rule="evenodd" d="M3.36353 4.00049H20.637V21.2735H3.36353V4.00049Z" fill="white"/>
</mask>
<g mask="url(#mask2_33437_4845)">
<path id="Fill 11" fill-rule="evenodd" clip-rule="evenodd" d="M4.11328 21.2735C3.92128 21.2735 3.72928 21.2005 3.58328 21.0535C3.29028 20.7605 3.29028 20.2865 3.58328 19.9935L19.3573 4.21951C19.6503 3.92651 20.1243 3.92651 20.4173 4.21951C20.7103 4.51251 20.7103 4.98751 20.4173 5.28051L4.64328 21.0535C4.49728 21.2005 4.30528 21.2735 4.11328 21.2735Z" fill="black"/>
</g>
</g>
</g>
</g>
</svg>
