<svg width="24" height="24" viewBox="0 0 24 24" fill="none" xmlns="http://www.w3.org/2000/svg">
<g id="Iconly/Regular/Bulk/Work">
<g id="Work">
<path id="Fill 1" opacity="0.4" d="M2.00024 11.0786C2.05024 13.4166 2.19024 17.4156 2.21024 17.8566C2.28124 18.7996 2.64224 19.7526 3.20424 20.4246C3.98624 21.3676 4.94924 21.7886 6.29224 21.7886C8.14824 21.7986 10.1942 21.7986 12.1812 21.7986C14.1762 21.7986 16.1122 21.7986 17.7472 21.7886C19.0712 21.7886 20.0642 21.3566 20.8362 20.4246C21.3982 19.7526 21.7592 18.7896 21.8102 17.8566C21.8302 17.4856 21.9302 13.1446 21.9902 11.0786H2.00024Z" fill="black"/>
<path id="Fill 4" d="M11.2455 15.3843V16.6783C11.2455 17.0923 11.5815 17.4283 11.9955 17.4283C12.4095 17.4283 12.7455 17.0923 12.7455 16.6783V15.3843C12.7455 14.9703 12.4095 14.6343 11.9955 14.6343C11.5815 14.6343 11.2455 14.9703 11.2455 15.3843Z" fill="black"/>
<path id="Fill 6" fill-rule="evenodd" clip-rule="evenodd" d="M10.2114 14.5565C10.1114 14.9195 9.76237 15.1515 9.38437 15.1015C6.83337 14.7455 4.39537 13.8405 2.33737 12.4815C2.12637 12.3435 2.00037 12.1075 2.00037 11.8555V8.38952C2.00037 6.28952 3.71237 4.58152 5.81737 4.58152H7.78437C7.97237 3.12952 9.20237 2.00052 10.7044 2.00052H13.2864C14.7874 2.00052 16.0184 3.12952 16.2064 4.58152H18.1834C20.2824 4.58152 21.9904 6.28952 21.9904 8.38952V11.8555C21.9904 12.1075 21.8634 12.3425 21.6544 12.4815C19.5924 13.8465 17.1444 14.7555 14.5764 15.1105C14.5414 15.1155 14.5074 15.1175 14.4734 15.1175C14.1344 15.1175 13.8314 14.8885 13.7464 14.5525C13.5444 13.7565 12.8214 13.1995 11.9904 13.1995C11.1484 13.1995 10.4334 13.7445 10.2114 14.5565ZM13.2864 3.50052H10.7044C10.0314 3.50052 9.46937 3.96052 9.30137 4.58152H14.6884C14.5204 3.96052 13.9584 3.50052 13.2864 3.50052Z" fill="black"/>
</g>
</g>
</svg>
