<svg width="24" height="24" viewBox="0 0 24 24" fill="none" xmlns="http://www.w3.org/2000/svg">
<g id="Iconly/Regular/Outline/Arrow - Up">
<g id="Arrow - Up">
<path id="Stroke 1" d="M11.7256 20.0001C11.3459 20.0001 11.0321 19.718 10.9824 19.3519L10.9756 19.2501L10.9756 4.25012C10.9756 3.83591 11.3114 3.50012 11.7256 3.50012C12.1053 3.50012 12.4191 3.78228 12.4687 4.14835L12.4756 4.25012L12.4756 19.2501C12.4756 19.6643 12.1398 20.0001 11.7256 20.0001Z" fill="black"/>
<path id="Stroke 3" d="M6.23271 10.8291C5.94045 11.1226 5.46558 11.1237 5.17206 10.8314C4.90522 10.5657 4.88012 10.1491 5.09734 9.85501L5.16977 9.77074L11.1938 3.72074C11.4603 3.4531 11.8784 3.42876 12.1724 3.64771L12.2567 3.7207L18.2817 9.7707C18.574 10.0642 18.573 10.5391 18.2795 10.8314C18.0127 11.0971 17.5959 11.1204 17.3028 10.9019L17.2188 10.8292L11.7249 5.31313L6.23271 10.8291Z" fill="black"/>
</g>
</g>
</svg>
