<svg width="24" height="24" viewBox="0 0 24 24" fill="none" xmlns="http://www.w3.org/2000/svg">
<g id="Iconly/Regular/Outline/Show">
<g id="Show">
<path id="Fill 1" fill-rule="evenodd" clip-rule="evenodd" d="M11.9996 9.64148C10.6696 9.64148 9.58862 10.7235 9.58862 12.0535C9.58862 13.3825 10.6696 14.4635 11.9996 14.4635C13.3296 14.4635 14.4116 13.3825 14.4116 12.0535C14.4116 10.7235 13.3296 9.64148 11.9996 9.64148ZM11.9996 15.9635C9.84262 15.9635 8.08862 14.2095 8.08862 12.0535C8.08862 9.89648 9.84262 8.14148 11.9996 8.14148C14.1566 8.14148 15.9116 9.89648 15.9116 12.0535C15.9116 14.2095 14.1566 15.9635 11.9996 15.9635Z" fill="black"/>
<g id="Group 5">
<mask id="mask0_33437_4760" style="mask-type:luminance" maskUnits="userSpaceOnUse" x="2" y="4" width="20" height="17">
<path id="Clip 4" fill-rule="evenodd" clip-rule="evenodd" d="M2.00024 4.00037H22.0001V20.1054H2.00024V4.00037Z" fill="white"/>
</mask>
<g mask="url(#mask0_33437_4760)">
<path id="Fill 3" fill-rule="evenodd" clip-rule="evenodd" d="M3.56999 12.0526C5.42999 16.1616 8.56299 18.6046 12 18.6056C15.437 18.6046 18.57 16.1616 20.43 12.0526C18.57 7.94463 15.437 5.50163 12 5.50063C8.56399 5.50163 5.42999 7.94463 3.56999 12.0526ZM12.002 20.1056H11.998H11.997C7.86099 20.1026 4.14699 17.2036 2.06099 12.3486C1.97999 12.1596 1.97999 11.9456 2.06099 11.7566C4.14699 6.90263 7.86199 4.00363 11.997 4.00063C11.999 3.99963 11.999 3.99963 12 4.00063C12.002 3.99963 12.002 3.99963 12.003 4.00063C16.139 4.00363 19.853 6.90263 21.939 11.7566C22.021 11.9456 22.021 12.1596 21.939 12.3486C19.854 17.2036 16.139 20.1026 12.003 20.1056H12.002Z" fill="black"/>
</g>
</g>
</g>
</g>
</svg>
