<svg width="24" height="24" viewBox="0 0 24 24" fill="none" xmlns="http://www.w3.org/2000/svg">
<g id="Iconly/Curved/Light/Category">
<g id="Category">
<path id="Stroke 1" fill-rule="evenodd" clip-rule="evenodd" d="M21.0004 6.67392C21.0004 8.70252 19.3552 10.3477 17.3266 10.3477C15.298 10.3477 13.6537 8.70252 13.6537 6.67392C13.6537 4.64532 15.298 3.00012 17.3266 3.00012C19.3552 3.00012 21.0004 4.64532 21.0004 6.67392Z" stroke="black" stroke-width="1.5" stroke-linecap="round" stroke-linejoin="round"/>
<path id="Stroke 3" fill-rule="evenodd" clip-rule="evenodd" d="M10.3467 6.67392C10.3467 8.70252 8.7024 10.3477 6.6729 10.3477C4.6452 10.3477 3 8.70252 3 6.67392C3 4.64532 4.6452 3.00012 6.6729 3.00012C8.7024 3.00012 10.3467 4.64532 10.3467 6.67392Z" stroke="black" stroke-width="1.5" stroke-linecap="round" stroke-linejoin="round"/>
<path id="Stroke 5" fill-rule="evenodd" clip-rule="evenodd" d="M21.0004 17.2621C21.0004 19.2907 19.3552 20.935 17.3266 20.935C15.298 20.935 13.6537 19.2907 13.6537 17.2621C13.6537 15.2335 15.298 13.5883 17.3266 13.5883C19.3552 13.5883 21.0004 15.2335 21.0004 17.2621Z" stroke="black" stroke-width="1.5" stroke-linecap="round" stroke-linejoin="round"/>
<path id="Stroke 7" fill-rule="evenodd" clip-rule="evenodd" d="M10.3467 17.2621C10.3467 19.2907 8.7024 20.935 6.6729 20.935C4.6452 20.935 3 19.2907 3 17.2621C3 15.2335 4.6452 13.5883 6.6729 13.5883C8.7024 13.5883 10.3467 15.2335 10.3467 17.2621Z" stroke="black" stroke-width="1.5" stroke-linecap="round" stroke-linejoin="round"/>
</g>
</g>
</svg>
