<svg width="24" height="24" viewBox="0 0 24 24" fill="none" xmlns="http://www.w3.org/2000/svg">
<g id="Iconly/Regular/Outline/Calendar">
<g id="Calendar">
<path id="Fill 1" fill-rule="evenodd" clip-rule="evenodd" d="M20.6665 9.90442H2.84253C2.42853 9.90442 2.09253 9.56842 2.09253 9.15442C2.09253 8.74042 2.42853 8.40442 2.84253 8.40442H20.6665C21.0805 8.40442 21.4165 8.74042 21.4165 9.15442C21.4165 9.56842 21.0805 9.90442 20.6665 9.90442Z" fill="black"/>
<path id="Fill 3" fill-rule="evenodd" clip-rule="evenodd" d="M16.2013 13.8097C15.7873 13.8097 15.4473 13.4737 15.4473 13.0597C15.4473 12.6457 15.7783 12.3097 16.1923 12.3097H16.2013C16.6153 12.3097 16.9513 12.6457 16.9513 13.0597C16.9513 13.4737 16.6153 13.8097 16.2013 13.8097Z" fill="black"/>
<path id="Fill 5" fill-rule="evenodd" clip-rule="evenodd" d="M11.7638 13.8097C11.3498 13.8097 11.0098 13.4737 11.0098 13.0597C11.0098 12.6457 11.3408 12.3097 11.7548 12.3097H11.7638C12.1778 12.3097 12.5138 12.6457 12.5138 13.0597C12.5138 13.4737 12.1778 13.8097 11.7638 13.8097Z" fill="black"/>
<path id="Fill 7" fill-rule="evenodd" clip-rule="evenodd" d="M7.31701 13.8097C6.90301 13.8097 6.56201 13.4737 6.56201 13.0597C6.56201 12.6457 6.89401 12.3097 7.30801 12.3097H7.31701C7.73101 12.3097 8.06701 12.6457 8.06701 13.0597C8.06701 13.4737 7.73101 13.8097 7.31701 13.8097Z" fill="black"/>
<path id="Fill 9" fill-rule="evenodd" clip-rule="evenodd" d="M16.2013 17.6964C15.7873 17.6964 15.4473 17.3604 15.4473 16.9464C15.4473 16.5324 15.7783 16.1964 16.1923 16.1964H16.2013C16.6153 16.1964 16.9513 16.5324 16.9513 16.9464C16.9513 17.3604 16.6153 17.6964 16.2013 17.6964Z" fill="black"/>
<path id="Fill 11" fill-rule="evenodd" clip-rule="evenodd" d="M11.7638 17.6964C11.3498 17.6964 11.0098 17.3604 11.0098 16.9464C11.0098 16.5324 11.3408 16.1964 11.7548 16.1964H11.7638C12.1778 16.1964 12.5138 16.5324 12.5138 16.9464C12.5138 17.3604 12.1778 17.6964 11.7638 17.6964Z" fill="black"/>
<path id="Fill 13" fill-rule="evenodd" clip-rule="evenodd" d="M7.31701 17.6964C6.90301 17.6964 6.56201 17.3604 6.56201 16.9464C6.56201 16.5324 6.89401 16.1964 7.30801 16.1964H7.31701C7.73101 16.1964 8.06701 16.5324 8.06701 16.9464C8.06701 17.3604 7.73101 17.6964 7.31701 17.6964Z" fill="black"/>
<path id="Fill 15" fill-rule="evenodd" clip-rule="evenodd" d="M15.7935 5.79112C15.3795 5.79112 15.0435 5.45512 15.0435 5.04112V1.75012C15.0435 1.33612 15.3795 1.00012 15.7935 1.00012C16.2075 1.00012 16.5435 1.33612 16.5435 1.75012V5.04112C16.5435 5.45512 16.2075 5.79112 15.7935 5.79112Z" fill="black"/>
<path id="Fill 17" fill-rule="evenodd" clip-rule="evenodd" d="M7.71533 5.79112C7.30133 5.79112 6.96533 5.45512 6.96533 5.04112V1.75012C6.96533 1.33612 7.30133 1.00012 7.71533 1.00012C8.12933 1.00012 8.46533 1.33612 8.46533 1.75012V5.04112C8.46533 5.45512 8.12933 5.79112 7.71533 5.79112Z" fill="black"/>
<g id="Group 21">
<mask id="mask0_33437_4876" style="mask-type:luminance" maskUnits="userSpaceOnUse" x="2" y="2" width="20" height="21">
<path id="Clip 20" fill-rule="evenodd" clip-rule="evenodd" d="M2 2.57922H21.5V22.5001H2V2.57922Z" fill="white"/>
</mask>
<g mask="url(#mask0_33437_4876)">
<path id="Fill 19" fill-rule="evenodd" clip-rule="evenodd" d="M7.521 4.07922C4.928 4.07922 3.5 5.46222 3.5 7.97322V17.0222C3.5 19.5882 4.928 21.0002 7.521 21.0002H15.979C18.572 21.0002 20 19.6142 20 17.0982V7.97322C20.004 6.73822 19.672 5.77822 19.013 5.11822C18.335 4.43822 17.29 4.07922 15.988 4.07922H7.521ZM15.979 22.5002H7.521C4.116 22.5002 2 20.4012 2 17.0222V7.97322C2 4.64522 4.116 2.57922 7.521 2.57922H15.988C17.697 2.57922 19.11 3.09122 20.075 4.05822C21.012 4.99922 21.505 6.35222 21.5 7.97522V17.0982C21.5 20.4302 19.384 22.5002 15.979 22.5002Z" fill="black"/>
</g>
</g>
</g>
</g>
</svg>
