<svg width="24" height="24" viewBox="0 0 24 24" fill="none" xmlns="http://www.w3.org/2000/svg">
<g id="Iconly/Regular/Outline/Filter">
<g id="Group 10">
<path id="Fill 1" fill-rule="evenodd" clip-rule="evenodd" d="M10.0801 18.5929H3.77905C3.36505 18.5929 3.02905 18.2569 3.02905 17.8429C3.02905 17.4289 3.36505 17.0929 3.77905 17.0929H10.0801C10.4941 17.0929 10.8301 17.4289 10.8301 17.8429C10.8301 18.2569 10.4941 18.5929 10.0801 18.5929Z" fill="black"/>
<path id="Fill 3" fill-rule="evenodd" clip-rule="evenodd" d="M19.1909 8.90051H12.8909C12.4769 8.90051 12.1409 8.56451 12.1409 8.15051C12.1409 7.73651 12.4769 7.40051 12.8909 7.40051H19.1909C19.6049 7.40051 19.9409 7.73651 19.9409 8.15051C19.9409 8.56451 19.6049 8.90051 19.1909 8.90051Z" fill="black"/>
<g id="Group 7">
<mask id="mask0_33437_4432" style="mask-type:luminance" maskUnits="userSpaceOnUse" x="3" y="5" width="7" height="7">
<path id="Clip 6" fill-rule="evenodd" clip-rule="evenodd" d="M3 5.00049H9.2258V11.1921H3V5.00049Z" fill="white"/>
</mask>
<g mask="url(#mask0_33437_4432)">
<path id="Fill 5" fill-rule="evenodd" clip-rule="evenodd" d="M6.11276 6.50012C5.22376 6.50012 4.49976 7.21612 4.49976 8.09712C4.49976 8.97712 5.22376 9.69212 6.11276 9.69212C7.00276 9.69212 7.72576 8.97712 7.72576 8.09712C7.72576 7.21612 7.00276 6.50012 6.11276 6.50012ZM6.11276 11.1921C4.39676 11.1921 2.99976 9.80412 2.99976 8.09712C2.99976 6.39012 4.39676 5.00012 6.11276 5.00012C7.82976 5.00012 9.22576 6.39012 9.22576 8.09712C9.22576 9.80412 7.82976 11.1921 6.11276 11.1921Z" fill="black"/>
</g>
</g>
<path id="Fill 8" fill-rule="evenodd" clip-rule="evenodd" d="M17.3877 16.2081C16.4977 16.2081 15.7737 16.9241 15.7737 17.8041C15.7737 18.6851 16.4977 19.4001 17.3877 19.4001C18.2767 19.4001 18.9997 18.6851 18.9997 17.8041C18.9997 16.9241 18.2767 16.2081 17.3877 16.2081ZM17.3877 20.9001C15.6707 20.9001 14.2737 19.5111 14.2737 17.8041C14.2737 16.0971 15.6707 14.7081 17.3877 14.7081C19.1037 14.7081 20.4997 16.0971 20.4997 17.8041C20.4997 19.5111 19.1037 20.9001 17.3877 20.9001Z" fill="black"/>
</g>
</g>
</svg>
