<svg width="24" height="24" viewBox="0 0 24 24" fill="none" xmlns="http://www.w3.org/2000/svg">
<g id="Iconly/Regular/Outline/Arrow - Left">
<g id="Arrow - Left">
<path id="Stroke 1" d="M20 12.2745C20 12.6542 19.7178 12.968 19.3518 13.0177L19.25 13.0245L4.25 13.0245C3.83579 13.0245 3.5 12.6887 3.5 12.2745C3.5 11.8948 3.78215 11.581 4.14823 11.5314L4.25 11.5245L19.25 11.5245C19.6642 11.5245 20 11.8603 20 12.2745Z" fill="black"/>
<path id="Stroke 3" d="M10.829 17.7674C11.1225 18.0597 11.1235 18.5345 10.8313 18.8281C10.5656 19.0949 10.149 19.12 9.85489 18.9028L9.77062 18.8303L3.72062 12.8063C3.45298 12.5399 3.42863 12.1217 3.64759 11.8277L3.72057 11.7435L9.77057 5.71845C10.0641 5.42616 10.5389 5.42715 10.8312 5.72065C11.0969 5.98746 11.1203 6.40418 10.9018 6.69734L10.829 6.7813L5.313 12.2752L10.829 17.7674Z" fill="black"/>
</g>
</g>
</svg>
