<svg width="24" height="24" viewBox="0 0 24 24" fill="none" xmlns="http://www.w3.org/2000/svg">
<g id="Iconly/Curved/Light/Image">
<g id="Image">
<path id="Stroke 1" d="M6.07056 16.4591C6.07056 16.4591 6.88256 14.8221 8.06456 14.8221C9.24656 14.8221 9.85056 16.1971 11.1606 16.1971C12.4696 16.1971 13.9386 12.7491 15.4226 12.7491C16.9046 12.7491 17.9706 15.1401 17.9706 15.1401" stroke="black" stroke-width="1.5" stroke-linecap="round" stroke-linejoin="round"/>
<path id="Stroke 3" fill-rule="evenodd" clip-rule="evenodd" d="M10.1392 9.10506C10.1392 9.96506 9.44217 10.6631 8.58117 10.6631C7.72117 10.6631 7.02417 9.96506 7.02417 9.10506C7.02417 8.24506 7.72117 7.54706 8.58117 7.54706C9.44217 7.54806 10.1392 8.24506 10.1392 9.10506Z" stroke="black" stroke-width="1.5" stroke-linecap="round" stroke-linejoin="round"/>
<path id="Stroke 5" fill-rule="evenodd" clip-rule="evenodd" d="M2.75024 12.0002C2.75024 18.9372 5.06324 21.2502 12.0002 21.2502C18.9372 21.2502 21.2502 18.9372 21.2502 12.0002C21.2502 5.06324 18.9372 2.75024 12.0002 2.75024C5.06324 2.75024 2.75024 5.06324 2.75024 12.0002Z" stroke="black" stroke-width="1.5" stroke-linecap="round" stroke-linejoin="round"/>
</g>
</g>
</svg>
