<svg width="24" height="24" viewBox="0 0 24 24" fill="none" xmlns="http://www.w3.org/2000/svg">
<g id="Iconly/Regular/Bulk/Logout">
<g id="Logout">
<path id="Fill 1" opacity="0.4" d="M2 6.44712C2 3.99612 4.03024 2.00012 6.52453 2.00012H11.4856C13.9748 2.00012 16 3.99012 16 6.43712V17.5531C16 20.0051 13.9698 22.0001 11.4744 22.0001H6.51537C4.02515 22.0001 2 20.0101 2 17.5631V16.6231V6.44712Z" fill="black"/>
<path id="Fill 3" d="M21.779 11.4549L18.9332 8.54592C18.6391 8.24592 18.1657 8.24592 17.8726 8.54792C17.5804 8.84992 17.5814 9.33692 17.8745 9.63692L19.4338 11.2299H17.9388H9.5485C9.13459 11.2299 8.79858 11.5749 8.79858 11.9999C8.79858 12.4259 9.13459 12.7699 9.5485 12.7699H19.4338L17.8745 14.3629C17.5814 14.6629 17.5804 15.1499 17.8726 15.4519C18.0196 15.6029 18.2115 15.6789 18.4043 15.6789C18.5952 15.6789 18.7871 15.6029 18.9332 15.4539L21.779 12.5459C21.9202 12.4009 22 12.2049 22 11.9999C22 11.7959 21.9202 11.5999 21.779 11.4549Z" fill="black"/>
</g>
</g>
</svg>
