<svg width="24" height="24" viewBox="0 0 24 24" fill="none" xmlns="http://www.w3.org/2000/svg">
<g id="Iconly/Regular/Bulk/Upload">
<g id="Upload">
<path id="Fill 1" opacity="0.4" d="M6.447 22.0001C3.996 22.0001 2 19.9699 2 17.4756V12.5145C2 10.0253 3.99 8.00012 6.437 8.00012L17.553 8.00012C20.005 8.00012 22 10.0304 22 12.5257V17.4847C22 19.975 20.01 22.0001 17.563 22.0001H16.623H6.447Z" fill="black"/>
<path id="Fill 3" d="M11.4548 2.2212L8.5458 5.06699C8.2458 5.36111 8.2458 5.83444 8.5478 6.12759C8.8498 6.41976 9.3368 6.41879 9.6368 6.12564L11.2298 4.56639V6.06136V14.4517C11.2298 14.8656 11.5748 15.2016 11.9998 15.2016C12.4258 15.2016 12.7698 14.8656 12.7698 14.4517V4.56639L14.3628 6.12564C14.6628 6.41879 15.1498 6.41976 15.4518 6.12759C15.6028 5.98052 15.6788 5.78866 15.6788 5.59583C15.6788 5.40494 15.6028 5.21308 15.4538 5.06699L12.5458 2.2212C12.4008 2.07998 12.2048 2.00012 11.9998 2.00012C11.7958 2.00012 11.5998 2.07998 11.4548 2.2212Z" fill="black"/>
</g>
</g>
</svg>
