<svg width="24" height="24" viewBox="0 0 24 24" fill="none" xmlns="http://www.w3.org/2000/svg">
<g id="Iconly/Curved/Light/2 User">
<g id="2 User">
<path id="Stroke 1" fill-rule="evenodd" clip-rule="evenodd" d="M9.55851 21.4563C5.88651 21.4563 2.74951 20.9013 2.74951 18.6773C2.74951 16.4533 5.86651 14.4493 9.55851 14.4493C13.2305 14.4493 16.3665 16.4343 16.3665 18.6573C16.3665 20.8803 13.2505 21.4563 9.55851 21.4563Z" stroke="black" stroke-width="1.5" stroke-linecap="round" stroke-linejoin="round"/>
<path id="Stroke 3" fill-rule="evenodd" clip-rule="evenodd" d="M9.55861 11.2776C11.9686 11.2776 13.9226 9.32362 13.9226 6.91362C13.9226 4.50362 11.9686 2.54962 9.55861 2.54962C7.14861 2.54962 5.19461 4.50362 5.19461 6.91362C5.18561 9.31562 7.12661 11.2696 9.52761 11.2776H9.55861Z" stroke="black" stroke-width="1.5" stroke-linecap="round" stroke-linejoin="round"/>
<path id="Stroke 5" d="M16.8013 10.0789C18.2043 9.70395 19.2383 8.42495 19.2383 6.90295C19.2393 5.31495 18.1123 3.98895 16.6143 3.68195" stroke="black" stroke-width="1.5" stroke-linecap="round" stroke-linejoin="round"/>
<path id="Stroke 7" d="M17.4607 13.6536C19.4487 13.6536 21.1467 15.0016 21.1467 16.2046C21.1467 16.9136 20.5617 17.6416 19.6717 17.8506" stroke="black" stroke-width="1.5" stroke-linecap="round" stroke-linejoin="round"/>
</g>
</g>
</svg>
