<svg width="24" height="24" viewBox="0 0 24 24" fill="none" xmlns="http://www.w3.org/2000/svg">
<g id="Iconly/Regular/Outline/2 User">
<g id="2 User">
<g id="Union">
<path fill-rule="evenodd" clip-rule="evenodd" d="M4.45581 7.13512C4.45581 9.96612 6.75981 12.2701 9.59181 12.2701H9.62581C10.9928 12.2651 12.2778 11.7281 13.2398 10.7571C14.2038 9.78712 14.7328 8.49912 14.7268 7.13512C14.7268 4.30412 12.4228 2.00012 9.59181 2.00012C6.75981 2.00012 4.45581 4.30412 4.45581 7.13512ZM5.95581 7.13512C5.95581 5.13112 7.58681 3.50012 9.59181 3.50012C11.5958 3.50012 13.2268 5.13112 13.2268 7.13812C13.2308 8.10412 12.8578 9.01512 12.1758 9.70012C11.4948 10.3871 10.5868 10.7661 9.62281 10.7701H9.59181C7.58681 10.7701 5.95581 9.13912 5.95581 7.13512Z" fill="black"/>
<path fill-rule="evenodd" clip-rule="evenodd" d="M1.99976 17.5192C1.99976 21.0572 7.51576 21.0572 9.59176 21.0572C11.4698 21.0572 17.1838 21.0572 17.1838 17.4992C17.1838 14.3242 12.8508 13.9572 9.59176 13.9572C7.71376 13.9572 1.99976 13.9572 1.99976 17.5192ZM3.49976 17.5192C3.49976 15.8142 6.81276 15.4572 9.59176 15.4572C13.6338 15.4572 15.6838 16.1442 15.6838 17.4992C15.6838 18.8642 13.6338 19.5572 9.59176 19.5572C5.54976 19.5572 3.49976 18.8712 3.49976 17.5192Z" fill="black"/>
<path d="M16.4824 11.1319C16.1144 11.1319 15.7934 10.8609 15.7404 10.4859C15.6834 10.0759 15.9684 9.69589 16.3784 9.63889C17.6264 9.46389 18.5684 8.38089 18.5704 7.11889C18.5704 5.86489 17.6724 4.80689 16.4374 4.60489C16.0284 4.53689 15.7514 4.15189 15.8184 3.74289C15.8854 3.33389 16.2724 3.05889 16.6794 3.12389C18.6444 3.44589 20.0704 5.12689 20.0704 7.11989C20.0664 9.12489 18.5694 10.8469 16.5874 11.1249C16.5524 11.1299 16.5174 11.1319 16.4824 11.1319Z" fill="black"/>
<path d="M19.1945 17.977C19.3075 18.276 19.5925 18.461 19.8955 18.461C19.9845 18.461 20.0745 18.445 20.1615 18.412C21.6645 17.843 21.9795 16.856 21.9795 16.127C21.9795 15.148 21.4125 13.895 18.7065 13.49C18.3045 13.437 17.9155 13.712 17.8535 14.122C17.7925 14.531 18.0755 14.913 18.4855 14.975C19.8085 15.172 20.4795 15.56 20.4795 16.127C20.4795 16.295 20.4795 16.688 19.6295 17.01C19.2425 17.156 19.0475 17.59 19.1945 17.977Z" fill="black"/>
</g>
</g>
</g>
</svg>
