<svg width="24" height="24" viewBox="0 0 24 24" fill="none" xmlns="http://www.w3.org/2000/svg">
<g id="Iconly/Curved/Light/Buy">
<g id="Buy">
<path id="Stroke 65" d="M5.40901 6.64209C7.71901 6.53309 10.028 6.42009 12.339 6.33809C13.412 6.30009 14.485 6.26709 15.558 6.25309C16.583 6.24009 17.693 6.10609 18.656 6.53909C21.959 8.02609 20.566 14.0011 18.283 15.7751C16.692 17.0111 14.148 17.1031 12.217 17.0531C10.425 17.0081 8.26301 16.8031 6.75501 15.7291C4.15601 13.8781 5.51401 8.83409 5.42901 5.38509C5.48001 3.45509 3.38501 3.14209 3.38501 3.14209" stroke="black" stroke-width="1.5" stroke-linecap="round" stroke-linejoin="round"/>
<path id="Stroke 67" d="M12.885 10.1421H15.658" stroke="black" stroke-width="1.5" stroke-linecap="round" stroke-linejoin="round"/>
<path id="Fill 69" fill-rule="evenodd" clip-rule="evenodd" d="M7.149 19.769C7.449 19.769 7.693 20.013 7.693 20.313C7.693 20.614 7.449 20.858 7.149 20.858C6.848 20.858 6.604 20.614 6.604 20.313C6.604 20.013 6.848 19.769 7.149 19.769Z" fill="black"/>
<path id="Stroke 71" fill-rule="evenodd" clip-rule="evenodd" d="M7.149 19.769C7.449 19.769 7.693 20.013 7.693 20.313C7.693 20.614 7.449 20.858 7.149 20.858C6.848 20.858 6.604 20.614 6.604 20.313C6.604 20.013 6.848 19.769 7.149 19.769Z" stroke="black" stroke-width="1.5" stroke-linecap="round" stroke-linejoin="round"/>
<path id="Fill 73" fill-rule="evenodd" clip-rule="evenodd" d="M17.48 19.769C17.781 19.769 18.025 20.013 18.025 20.313C18.025 20.614 17.781 20.858 17.48 20.858C17.18 20.858 16.936 20.614 16.936 20.313C16.936 20.013 17.18 19.769 17.48 19.769Z" fill="black"/>
<path id="Stroke 75" fill-rule="evenodd" clip-rule="evenodd" d="M17.48 19.769C17.781 19.769 18.025 20.013 18.025 20.313C18.025 20.614 17.781 20.858 17.48 20.858C17.18 20.858 16.936 20.614 16.936 20.313C16.936 20.013 17.18 19.769 17.48 19.769Z" stroke="black" stroke-width="1.5" stroke-linecap="round" stroke-linejoin="round"/>
</g>
</g>
</svg>
