<svg width="24" height="24" viewBox="0 0 24 24" fill="none" xmlns="http://www.w3.org/2000/svg">
<g id="Iconly/Regular/Outline/Scan">
<g id="Scan">
<path id="Fill 1" fill-rule="evenodd" clip-rule="evenodd" d="M22.75 13.9551H1.75C1.336 13.9551 1 13.6191 1 13.2051C1 12.7911 1.336 12.4551 1.75 12.4551H22.75C23.164 12.4551 23.5 12.7911 23.5 13.2051C23.5 13.6191 23.164 13.9551 22.75 13.9551Z" fill="black"/>
<path id="Fill 3" fill-rule="evenodd" clip-rule="evenodd" d="M20.8799 9.74512C20.4659 9.74512 20.1299 9.40912 20.1299 8.99512V7.48112C20.1299 5.83812 18.7919 4.50012 17.1469 4.50012H15.9419C15.5279 4.50012 15.1919 4.16412 15.1919 3.75012C15.1919 3.33612 15.5279 3.00012 15.9419 3.00012H17.1469C19.6189 3.00012 21.6299 5.01112 21.6299 7.48112V8.99512C21.6299 9.40912 21.2939 9.74512 20.8799 9.74512Z" fill="black"/>
<path id="Fill 5" fill-rule="evenodd" clip-rule="evenodd" d="M3.62012 9.74512C3.20612 9.74512 2.87012 9.40912 2.87012 8.99512V7.48112C2.87012 5.01112 4.88112 3.00012 7.35312 3.00012H8.58912C9.00312 3.00012 9.33912 3.33612 9.33912 3.75012C9.33912 4.16412 9.00312 4.50012 8.58912 4.50012H7.35312C5.70812 4.50012 4.37012 5.83812 4.37012 7.48112V8.99512C4.37012 9.40912 4.03412 9.74512 3.62012 9.74512Z" fill="black"/>
<path id="Fill 7" fill-rule="evenodd" clip-rule="evenodd" d="M17.1469 21.7607H15.9419C15.5279 21.7607 15.1919 21.4247 15.1919 21.0107C15.1919 20.5967 15.5279 20.2607 15.9419 20.2607H17.1469C18.7919 20.2607 20.1299 18.9227 20.1299 17.2787V13.2037C20.1299 12.7897 20.4659 12.4537 20.8799 12.4537C21.2939 12.4537 21.6299 12.7897 21.6299 13.2037V17.2787C21.6299 19.7497 19.6189 21.7607 17.1469 21.7607Z" fill="black"/>
<path id="Fill 9" fill-rule="evenodd" clip-rule="evenodd" d="M8.58887 21.7607H7.35287C4.88087 21.7607 2.86987 19.7497 2.86987 17.2787V13.2037C2.86987 12.7897 3.20587 12.4537 3.61987 12.4537C4.03387 12.4537 4.36987 12.7897 4.36987 13.2037V17.2787C4.36987 18.9227 5.70787 20.2607 7.35287 20.2607H8.58887C9.00287 20.2607 9.33887 20.5967 9.33887 21.0107C9.33887 21.4247 9.00287 21.7607 8.58887 21.7607Z" fill="black"/>
</g>
</g>
</svg>
