<svg width="24" height="24" viewBox="0 0 24 24" fill="none" xmlns="http://www.w3.org/2000/svg">
<g id="Iconly/Regular/Bulk/Download">
<g id="Download">
<path id="Fill 1" opacity="0.4" d="M17.554 7.29631C20.005 7.29631 22 9.35611 22 11.8877V16.92C22 19.4455 20.01 21.5001 17.564 21.5001L6.448 21.5001C3.996 21.5001 2 19.4414 2 16.9097V11.8774C2 9.35198 3.991 7.29631 6.438 7.29631H7.378L17.554 7.29631Z" fill="black"/>
<path id="Fill 4" d="M12.5462 16.0375L15.4552 13.0696C15.7552 12.7629 15.7552 12.2692 15.4532 11.9635C15.1512 11.6588 14.6642 11.6598 14.3642 11.9655L12.7712 13.5907L12.7712 3.28222C12.7712 2.85054 12.4262 2.50012 12.0002 2.50012C11.5752 2.50012 11.2312 2.85054 11.2312 3.28222L11.2312 13.5907L9.63718 11.9655C9.33718 11.6598 8.85018 11.6588 8.54818 11.9635C8.39718 12.1169 8.32118 12.317 8.32118 12.5181C8.32118 12.7172 8.39718 12.9173 8.54618 13.0696L11.4552 16.0375C11.6002 16.1848 11.7962 16.2681 12.0002 16.2681C12.2052 16.2681 12.4012 16.1848 12.5462 16.0375Z" fill="black"/>
</g>
</g>
</svg>
