<svg width="24" height="24" viewBox="0 0 24 24" fill="none" xmlns="http://www.w3.org/2000/svg">
<g id="Iconly/Regular/Bulk/Lock">
<g id="Lock">
<path id="Fill 1" fill-rule="evenodd" clip-rule="evenodd" d="M7.7688 8.71396H16.2312C18.5886 8.71396 20.5 10.5832 20.5 12.8886V17.8255C20.5 20.1309 18.5886 22.0001 16.2312 22.0001H7.7688C5.41136 22.0001 3.5 20.1309 3.5 17.8255V12.8886C3.5 10.5832 5.41136 8.71396 7.7688 8.71396ZM11.9949 17.3296C12.4928 17.3296 12.8891 16.942 12.8891 16.4551V14.249C12.8891 13.772 12.4928 13.3845 11.9949 13.3845C11.5072 13.3845 11.1109 13.772 11.1109 14.249V16.4551C11.1109 16.942 11.5072 17.3296 11.9949 17.3296Z" fill="black"/>
<path id="Fill 4" opacity="0.4" d="M17.5228 7.39607V8.86679C17.1672 8.76742 16.7912 8.71773 16.4051 8.71773H15.7446V7.39607C15.7446 5.3788 14.068 3.73915 12.0052 3.73915C9.94245 3.73915 8.26582 5.36887 8.25566 7.3762V8.71773H7.60533C7.20904 8.71773 6.83307 8.76742 6.47742 8.87673V7.39607C6.48758 4.41489 8.9568 2.00012 11.9849 2.00012C15.0536 2.00012 17.5228 4.41489 17.5228 7.39607Z" fill="black"/>
</g>
</g>
</svg>
