<svg width="24" height="24" viewBox="0 0 24 24" fill="none" xmlns="http://www.w3.org/2000/svg">
<g id="Iconly/Regular/Outline/Location">
<g id="Location">
<path id="Fill 1" fill-rule="evenodd" clip-rule="evenodd" d="M12.2505 8.50012C11.2855 8.50012 10.5005 9.28512 10.5005 10.2511C10.5005 11.2161 11.2855 12.0001 12.2505 12.0001C13.2155 12.0001 14.0005 11.2161 14.0005 10.2511C14.0005 9.28512 13.2155 8.50012 12.2505 8.50012ZM12.2505 13.5001C10.4585 13.5001 9.00049 12.0431 9.00049 10.2511C9.00049 8.45812 10.4585 7.00012 12.2505 7.00012C14.0425 7.00012 15.5005 8.45812 15.5005 10.2511C15.5005 12.0431 14.0425 13.5001 12.2505 13.5001Z" fill="black"/>
<g id="Group 5">
<mask id="mask0_33437_4981" style="mask-type:luminance" maskUnits="userSpaceOnUse" x="4" y="2" width="17" height="20">
<path id="Clip 4" fill-rule="evenodd" clip-rule="evenodd" d="M4 2.00012H20.4995V21.5001H4V2.00012Z" fill="white"/>
</mask>
<g mask="url(#mask0_33437_4981)">
<path id="Fill 3" fill-rule="evenodd" clip-rule="evenodd" d="M12.2495 3.50012C8.52751 3.50012 5.49951 6.55712 5.49951 10.3131C5.49951 15.0921 11.1235 19.7481 12.2495 19.9961C13.3755 19.7471 18.9995 15.0911 18.9995 10.3131C18.9995 6.55712 15.9715 3.50012 12.2495 3.50012ZM12.2495 21.5001C10.4555 21.5001 3.99951 15.9481 3.99951 10.3131C3.99951 5.72912 7.70051 2.00012 12.2495 2.00012C16.7985 2.00012 20.4995 5.72912 20.4995 10.3131C20.4995 15.9481 14.0435 21.5001 12.2495 21.5001Z" fill="black"/>
</g>
</g>
</g>
</g>
</svg>
