<svg width="24" height="24" viewBox="0 0 24 24" fill="none" xmlns="http://www.w3.org/2000/svg">
<g id="Iconly/Regular/Bulk/Volume Down">
<g id="Volume Down">
<path id="Fill 1" d="M15.3716 6.4507C15.3212 5.96436 15.2687 5.45976 15.1396 4.95625C14.7879 3.75167 13.8136 3.00015 12.7691 3.00015C12.1864 2.998 11.4494 3.35658 11.0316 3.71946L7.56822 6.61711H5.75517C4.42084 6.61711 3.34792 7.64454 3.1453 9.12718C2.97313 10.5508 2.93114 13.238 3.1453 14.8044C3.33112 16.3708 4.35575 17.3832 5.75517 17.3832H7.56822L11.0988 20.3238C11.461 20.6383 12.1003 20.9991 12.6882 20.9991C12.726 21.0001 12.7596 21.0001 12.7932 21.0001C13.8577 21.0001 14.7952 20.2207 15.1469 19.0193C15.2802 18.5083 15.3264 18.0295 15.3716 17.5668L15.4188 17.1083C15.5994 15.6214 15.5994 8.36922 15.4188 6.89302L15.3716 6.4507Z" fill="black"/>
<path id="Fill 4" opacity="0.4" d="M19.4263 6.49471C19.1397 6.07064 18.5665 5.96543 18.1476 6.25852C17.7319 6.55483 17.629 7.14102 17.9177 7.56617C18.7208 8.74927 19.1628 10.3232 19.1628 12.0001C19.1628 13.676 18.7208 15.251 17.9177 16.4341C17.629 16.8593 17.7319 17.4454 18.1476 17.7417C18.302 17.8513 18.4836 17.9092 18.6715 17.9092C18.9728 17.9092 19.2542 17.7579 19.4263 17.5056C20.4405 16.0122 21 14.0572 21 12.0001C21 9.94312 20.4405 7.98809 19.4263 6.49471Z" fill="black"/>
</g>
</g>
</svg>
