<svg width="24" height="24" viewBox="0 0 24 24" fill="none" xmlns="http://www.w3.org/2000/svg">
<g id="Iconly/Regular/Outline/Star">
<path id="Star" fill-rule="evenodd" clip-rule="evenodd" d="M11.7499 4.50012C11.6589 4.50012 11.4349 4.52512 11.3159 4.76312L9.48992 8.41412C9.20092 8.99112 8.64392 9.39212 7.99992 9.48412L3.91192 10.0731C3.64192 10.1121 3.54992 10.3121 3.52192 10.3961C3.49692 10.4771 3.45692 10.6831 3.64292 10.8611L6.59892 13.7011C7.06992 14.1541 7.28392 14.8071 7.17192 15.4461L6.47592 19.4561C6.43292 19.7071 6.58992 19.8531 6.65992 19.9031C6.73392 19.9591 6.93192 20.0701 7.17692 19.9421L10.8319 18.0471C11.4079 17.7501 12.0939 17.7501 12.6679 18.0471L16.3219 19.9411C16.5679 20.0681 16.7659 19.9571 16.8409 19.9031C16.9109 19.8531 17.0679 19.7071 17.0249 19.4561L16.3269 15.4461C16.2149 14.8071 16.4289 14.1541 16.8999 13.7011L19.8559 10.8611C20.0429 10.6831 20.0029 10.4761 19.9769 10.3961C19.9499 10.3121 19.8579 10.1121 19.5879 10.0731L15.4999 9.48412C14.8569 9.39212 14.2999 8.99112 14.0109 8.41312L12.1829 4.76312C12.0649 4.52512 11.8409 4.50012 11.7499 4.50012ZM6.94692 21.5001C6.53392 21.5001 6.12392 21.3701 5.77292 21.1141C5.16692 20.6701 4.86992 19.9371 4.99892 19.1991L5.69492 15.1891C5.72092 15.0401 5.66992 14.8891 5.55992 14.7831L2.60392 11.9431C2.05992 11.4221 1.86492 10.6521 2.09492 9.93712C2.32692 9.21412 2.94092 8.69712 3.69792 8.58912L7.78592 8.00012C7.94392 7.97812 8.07992 7.88112 8.14792 7.74312L9.97492 4.09112C10.3119 3.41812 10.9919 3.00012 11.7499 3.00012C12.5079 3.00012 13.1879 3.41812 13.5249 4.09112L15.3529 7.74212C15.4219 7.88112 15.5569 7.97812 15.7139 8.00012L19.8019 8.58912C20.5589 8.69712 21.1729 9.21412 21.4049 9.93712C21.6349 10.6521 21.4389 11.4221 20.8949 11.9431L17.9389 14.7831C17.8289 14.8891 17.7789 15.0401 17.8049 15.1881L18.5019 19.1991C18.6299 19.9381 18.3329 20.6711 17.7259 21.1141C17.1109 21.5651 16.3099 21.6261 15.6309 21.2721L11.9779 19.3791C11.8349 19.3051 11.6639 19.3051 11.5209 19.3791L7.86792 21.2731C7.57592 21.4251 7.26092 21.5001 6.94692 21.5001Z" fill="black"/>
</g>
</svg>
