<svg width="24" height="24" viewBox="0 0 24 24" fill="none" xmlns="http://www.w3.org/2000/svg">
<g id="Iconly/Regular/Bulk/Image 3">
<g id="Image 2">
<path id="Fill 1" d="M21.9999 14.7025V16.086C21.9999 16.3156 21.9899 16.5472 21.9699 16.7768C21.6893 19.9359 19.4949 22.0001 16.3286 22.0001H7.67126C6.06806 22.0001 4.71535 21.4798 3.74341 20.5364C3.36265 20.1865 3.042 19.7754 2.7915 19.3042C3.12217 18.9022 3.49291 18.4621 3.85363 18.021C4.46485 17.2891 5.05603 16.5662 5.42677 16.096C5.97788 15.4143 7.43078 13.6197 9.44481 14.4619C9.85563 14.6323 10.2164 14.8729 10.547 15.0835C11.3586 15.6248 11.6993 15.7852 12.2705 15.4745C12.9017 15.1336 13.3125 14.4619 13.7434 13.7601C13.9739 13.3881 14.2043 13.0282 14.4548 12.6974C15.547 11.2737 17.2304 10.8927 18.6332 11.7349C19.3346 12.156 19.9358 12.6873 20.4969 13.2277C20.6172 13.348 20.7374 13.4593 20.8476 13.5696C20.9979 13.72 21.4989 14.2213 21.9999 14.7025Z" fill="black"/>
<path id="Fill 3" opacity="0.4" d="M16.3387 2.00012H7.67134C4.27455 2.00012 2 4.37619 2 7.91423V16.0861C2 17.3183 2.28056 18.4121 2.79158 19.3043C3.12224 18.9023 3.49299 18.4622 3.85371 18.0201C4.46493 17.2892 5.05611 16.5663 5.42685 16.0961C5.97796 15.4144 7.43086 13.6198 9.44489 14.462C9.85571 14.6324 10.2164 14.873 10.5471 15.0836C11.3587 15.6249 11.6994 15.7853 12.2705 15.4735C12.9018 15.1337 13.3126 14.462 13.7435 13.7592C13.9739 13.3882 14.2044 13.0283 14.4549 12.6975C15.5471 11.2738 17.2305 10.8928 18.6333 11.735C19.3347 12.1561 19.9359 12.6874 20.497 13.2278C20.6172 13.3481 20.7375 13.4594 20.8477 13.5697C20.998 13.7191 21.499 14.2203 22 14.7026V7.91423C22 4.37619 19.7255 2.00012 16.3387 2.00012Z" fill="black"/>
<path id="Fill 5" d="M11.4544 8.79679C11.4544 10.2054 10.2811 11.3784 8.87325 11.3784C7.46644 11.3784 6.29309 10.2054 6.29309 8.79679C6.29309 7.38919 7.46644 6.21519 8.87325 6.21519C10.2811 6.21519 11.4544 7.38919 11.4544 8.79679Z" fill="black"/>
</g>
</g>
</svg>
