<svg width="24" height="24" viewBox="0 0 24 24" fill="none" xmlns="http://www.w3.org/2000/svg">
<g id="Iconly/Regular/Bulk/Swap">
<g id="Swap">
<path id="Fill 1" opacity="0.4" d="M6.70555 12.8907C6.18944 12.8907 5.77163 13.3147 5.77163 13.8385L5.51416 18.4172C5.51416 19.0847 6.04783 19.6251 6.70555 19.6251C7.36328 19.6251 7.89577 19.0847 7.89577 18.4172L7.63947 13.8385C7.63947 13.3147 7.22167 12.8907 6.70555 12.8907Z" fill="black"/>
<path id="Fill 3" d="M7.98037 3.67357C7.98037 3.67357 7.71236 3.39801 7.54618 3.27805C7.30509 3.09277 7.00783 3.00012 6.71173 3.00012C6.37936 3.00012 6.07039 3.10464 5.81877 3.30181C5.77313 3.34813 5.57886 3.52273 5.41852 3.68545C4.41204 4.63682 2.76539 7.12038 2.26215 8.42096C2.18257 8.61812 2.01053 9.11697 2 9.38421C2 9.63839 2.05618 9.88306 2.17087 10.1147C2.3312 10.4045 2.58282 10.6373 2.88009 10.7644C3.08606 10.8463 3.70282 10.9734 3.71453 10.9734C4.38981 11.1017 5.48757 11.1706 6.70003 11.1706C7.85514 11.1706 8.90727 11.1017 9.59308 10.9972C9.60478 10.9853 10.3702 10.8582 10.6335 10.718C11.1133 10.4627 11.4118 9.96383 11.4118 9.43053V9.38421C11.4001 9.0362 11.1016 8.30456 11.0911 8.30456C10.5879 7.07406 9.02079 4.6487 7.98037 3.67357Z" fill="black"/>
<path id="Fill 6" opacity="0.4" d="M17.2947 11.1097C17.8108 11.1097 18.2286 10.6857 18.2286 10.1619L18.4849 5.58308C18.4849 4.91555 17.9524 4.37512 17.2947 4.37512C16.6369 4.37512 16.1033 4.91555 16.1033 5.58308L16.3607 10.1619C16.3607 10.6857 16.7785 11.1097 17.2947 11.1097Z" fill="black"/>
<path id="Fill 8" d="M21.8292 13.8854C21.6688 13.5956 21.4172 13.364 21.1199 13.2357C20.914 13.1538 20.296 13.0267 20.2855 13.0267C19.6102 12.8984 18.5124 12.8295 17.3 12.8295C16.1449 12.8295 15.0928 12.8984 14.4069 13.0029C14.3952 13.0148 13.6298 13.1431 13.3665 13.282C12.8855 13.5374 12.5883 14.0363 12.5883 14.5708V14.6171C12.6 14.9651 12.8972 15.6956 12.9089 15.6956C13.4122 16.9261 14.9781 19.3527 16.0197 20.3267C16.0197 20.3267 16.2877 20.6022 16.4538 20.721C16.6938 20.9075 16.991 21.0001 17.2895 21.0001C17.6207 21.0001 17.9285 20.8956 18.1812 20.6984C18.2269 20.6521 18.4212 20.4775 18.5815 20.316C19.5868 19.3634 21.2346 16.8798 21.7367 15.5804C21.8175 15.3832 21.9895 14.8831 22 14.6171C22 14.3617 21.9438 14.117 21.8292 13.8854Z" fill="black"/>
</g>
</g>
</svg>
