<svg width="24" height="24" viewBox="0 0 24 24" fill="none" xmlns="http://www.w3.org/2000/svg">
<g id="Iconly/Regular/Outline/3 User">
<g id="3 User">
<g id="Union">
<path fill-rule="evenodd" clip-rule="evenodd" d="M11.8598 13.1381H11.8868C14.4068 13.1381 16.4558 11.0881 16.4558 8.56912C16.4558 6.05012 14.4068 4.00012 11.8868 4.00012C9.36776 4.00012 7.31877 6.05012 7.31877 8.56612C7.31377 9.78312 7.78277 10.9291 8.64077 11.7921C9.49677 12.6561 10.6398 13.1341 11.8598 13.1381ZM8.81877 8.56912C8.81877 6.87712 10.1948 5.50012 11.8868 5.50012C13.5788 5.50012 14.9558 6.87712 14.9558 8.56912C14.9558 10.2621 13.5788 11.6381 11.8868 11.6381H11.8618C11.0458 11.6351 10.2798 11.3141 9.70477 10.7351C9.12977 10.1561 8.81576 9.38912 8.81877 8.56912Z" fill="black"/>
<path d="M17.1448 11.5006C17.1978 11.8756 17.5188 12.1466 17.8868 12.1466C17.9208 12.1466 17.9558 12.1446 17.9908 12.1396C19.7658 11.8906 21.1068 10.3506 21.1108 8.55563C21.1108 6.77263 19.8338 5.26863 18.0758 4.97963C17.6648 4.91463 17.2818 5.18863 17.2138 5.59763C17.1468 6.00663 17.4238 6.39263 17.8318 6.45963C18.8628 6.62863 19.6108 7.51063 19.6108 8.55363C19.6088 9.60563 18.8238 10.5076 17.7838 10.6536C17.3728 10.7106 17.0878 11.0896 17.1448 11.5006Z" fill="black"/>
<path d="M20.1604 18.0483C20.2744 18.3473 20.5594 18.5313 20.8614 18.5313C20.9504 18.5313 21.0404 18.5153 21.1284 18.4823C22.5584 17.9373 22.7724 16.9443 22.7724 16.4003C22.7724 15.5093 22.2634 14.3713 19.8404 14.0083C19.4274 13.9553 19.0474 14.2283 18.9864 14.6383C18.9254 15.0493 19.2084 15.4303 19.6174 15.4923C20.7154 15.6563 21.2724 15.9623 21.2724 16.4003C21.2724 16.5373 21.2724 16.8223 20.5944 17.0803C20.2074 17.2273 20.0124 17.6613 20.1604 18.0483Z" fill="black"/>
<path fill-rule="evenodd" clip-rule="evenodd" d="M11.8867 20.7911C10.2277 20.7911 5.17773 20.7911 5.17773 17.5961C5.17773 14.4141 10.2277 14.4141 11.8867 14.4141C13.5457 14.4141 18.5947 14.4141 18.5947 17.6131C18.5947 20.7911 13.7217 20.7911 11.8867 20.7911ZM11.8867 15.9141C9.51073 15.9141 6.67773 16.2061 6.67773 17.5961C6.67773 18.9971 9.51073 19.2911 11.8867 19.2911C14.2627 19.2911 17.0947 19.0001 17.0947 17.6131C17.0947 16.2091 14.2627 15.9141 11.8867 15.9141Z" fill="black"/>
<path d="M5.88572 12.1466C5.85172 12.1466 5.81672 12.1446 5.78172 12.1396C4.00672 11.8906 2.66672 10.3506 2.66272 8.55757C2.66272 6.77257 3.93972 5.26857 5.69772 4.97957C6.11872 4.91357 6.49172 5.19057 6.55972 5.59757C6.62672 6.00657 6.34972 6.39257 5.94172 6.45957C4.91072 6.62857 4.16272 7.51057 4.16272 8.55557C4.16472 9.60557 4.94972 10.5086 5.98872 10.6536C6.39972 10.7106 6.68472 11.0896 6.62772 11.5006C6.57472 11.8756 6.25372 12.1466 5.88572 12.1466Z" fill="black"/>
<path d="M2.64512 18.4823C2.73312 18.5153 2.82312 18.5313 2.91212 18.5313C3.21412 18.5313 3.49912 18.3473 3.61312 18.0483C3.76112 17.6613 3.56612 17.2273 3.17912 17.0803C2.50012 16.8213 2.50012 16.5373 2.50012 16.4003C2.50012 15.9623 3.05712 15.6563 4.15512 15.4923C4.56412 15.4303 4.84712 15.0493 4.78612 14.6383C4.72412 14.2283 4.34612 13.9563 3.93312 14.0083C1.50912 14.3713 1.00012 15.5103 1.00012 16.4003C1.00012 16.9433 1.21412 17.9363 2.64512 18.4823Z" fill="black"/>
</g>
</g>
</g>
</svg>
