<svg width="24" height="24" viewBox="0 0 24 24" fill="none" xmlns="http://www.w3.org/2000/svg">
<g id="Iconly/Regular/Bulk/Call Silent">
<g id="Call Silent">
<g id="Group">
<path id="Stroke 1" fill-rule="evenodd" clip-rule="evenodd" d="M6.1853 14.2054C-0.246186 6.91829 2.96956 4.73967 3.25411 4.3855C6.32281 1.27318 6.79883 2.68982 9.20958 5.13675C11.2406 7.20806 8.60768 8.19542 9.68665 10.6531L6.1853 14.2054Z" fill="black"/>
<path id="Stroke 3" fill-rule="evenodd" clip-rule="evenodd" d="M12.0904 13.3826C15.3705 16.0763 16.2957 12.2235 18.6192 14.5846C21.0162 17.0315 22.3945 17.5252 19.3551 20.6268C18.9976 20.938 16.6952 24.4689 8.79968 16.7417L12.0904 13.3826Z" fill="black"/>
</g>
<path id="Fill 6" opacity="0.4" d="M21.3749 3.85945V3.86961L11.9586 13.5152L3.44441 22.246C3.27591 22.4086 3.06777 22.5001 2.84971 22.5001C2.63165 22.5001 2.4235 22.4086 2.24509 22.246C1.96756 21.9513 1.92791 21.5142 2.11623 21.189L2.14597 21.1483C2.16579 21.1168 2.18562 21.0873 2.21535 21.0568L20.1755 2.62961C20.3242 2.46699 20.5423 2.36433 20.7702 2.36433C20.9982 2.36433 21.2163 2.46699 21.3749 2.62961C21.7019 2.97519 21.7019 3.51388 21.3749 3.85945Z" fill="black"/>
</g>
</g>
</svg>
