<svg width="24" height="24" viewBox="0 0 24 24" fill="none" xmlns="http://www.w3.org/2000/svg">
<g id="Iconly/Regular/Bulk/Star">
<g id="Star">
<path id="Fill 1" opacity="0.4" d="M12.9763 3.11374L15.2028 7.58801C15.3668 7.91218 15.6799 8.13729 16.041 8.18732L21.042 8.91569C21.3341 8.95671 21.5992 9.11079 21.7782 9.3459C21.9552 9.57802 22.0312 9.87217 21.9882 10.1613C21.9532 10.4014 21.8402 10.6236 21.6672 10.7936L18.0434 14.3064C17.7783 14.5516 17.6583 14.9147 17.7223 15.2699L18.6145 20.2084C18.7095 20.8047 18.3144 21.367 17.7223 21.4801C17.4783 21.5191 17.2282 21.4781 17.0082 21.366L12.5472 19.0418C12.2161 18.8748 11.8251 18.8748 11.494 19.0418L7.03303 21.366C6.48491 21.6572 5.80576 21.4591 5.5007 20.9188C5.38767 20.7037 5.34766 20.4586 5.38467 20.2194L6.27686 15.2799C6.34088 14.9257 6.21985 14.5606 5.95579 14.3154L2.33202 10.8046C1.90092 10.3884 1.88792 9.70309 2.30301 9.27187C2.31201 9.26286 2.32201 9.25286 2.33202 9.24285C2.50405 9.06776 2.7301 8.95671 2.97415 8.92769L7.97523 8.19832C8.33531 8.1473 8.64837 7.92418 8.81341 7.59802L10.9599 3.11374C11.1509 2.72954 11.547 2.49042 11.9771 2.50042H12.1111C12.4842 2.54545 12.8093 2.77656 12.9763 3.11374Z" fill="black"/>
<path id="Fill 4" d="M11.992 18.9172C11.7983 18.9232 11.6096 18.9753 11.4399 19.0684L7.00072 21.3873C6.45756 21.6465 5.80756 21.4453 5.50303 20.9259C5.39021 20.7137 5.34927 20.4705 5.38721 20.2323L6.27384 15.3033C6.33375 14.945 6.21394 14.5807 5.95334 14.3285L2.32794 10.8186C1.8976 10.3973 1.88961 9.70569 2.31096 9.27433C2.31695 9.26833 2.32195 9.26332 2.32794 9.25832C2.49967 9.08818 2.72133 8.97609 2.95996 8.94106L7.96523 8.20446C8.32767 8.15842 8.64219 7.93223 8.80194 7.60396L10.9776 3.06324C11.1843 2.69694 11.5806 2.47876 12 2.50178C11.992 2.79902 11.992 18.7151 11.992 18.9172Z" fill="black"/>
</g>
</g>
</svg>
