<svg width="24" height="24" viewBox="0 0 24 24" fill="none" xmlns="http://www.w3.org/2000/svg">
<g id="Iconly/Regular/Outline/Time Circle">
<g id="Time Circle">
<path id="Fill 1" fill-rule="evenodd" clip-rule="evenodd" d="M12 3.50012C7.313 3.50012 3.5 7.31312 3.5 12.0001C3.5 16.6871 7.313 20.5001 12 20.5001C16.687 20.5001 20.5 16.6871 20.5 12.0001C20.5 7.31312 16.687 3.50012 12 3.50012ZM12 22.0001C6.486 22.0001 2 17.5141 2 12.0001C2 6.48612 6.486 2.00012 12 2.00012C17.514 2.00012 22 6.48612 22 12.0001C22 17.5141 17.514 22.0001 12 22.0001Z" fill="black"/>
<path id="Fill 3" fill-rule="evenodd" clip-rule="evenodd" d="M15.4311 15.6926C15.3001 15.6926 15.1681 15.6586 15.0471 15.5876L11.2771 13.3386C11.0511 13.2026 10.9111 12.9576 10.9111 12.6936V7.84558C10.9111 7.43158 11.2471 7.09558 11.6611 7.09558C12.0761 7.09558 12.4111 7.43158 12.4111 7.84558V12.2676L15.8161 14.2976C16.1711 14.5106 16.2881 14.9706 16.0761 15.3266C15.9351 15.5616 15.6861 15.6926 15.4311 15.6926Z" fill="black"/>
</g>
</g>
</svg>
