<svg width="24" height="24" viewBox="0 0 24 24" fill="none" xmlns="http://www.w3.org/2000/svg">
<g id="Iconly/Regular/Outline/Close Square">
<g id="Close Square">
<path id="Fill 1" fill-rule="evenodd" clip-rule="evenodd" d="M9.60253 15.1368C9.41053 15.1368 9.21853 15.0638 9.07253 14.9168C8.77953 14.6238 8.77953 14.1498 9.07253 13.8568L13.8645 9.06484C14.1575 8.77184 14.6315 8.77184 14.9245 9.06484C15.2175 9.35784 15.2175 9.83184 14.9245 10.1248L10.1325 14.9168C9.98653 15.0638 9.79453 15.1368 9.60253 15.1368Z" fill="black"/>
<path id="Fill 3" fill-rule="evenodd" clip-rule="evenodd" d="M14.3965 15.1398C14.2045 15.1398 14.0125 15.0668 13.8665 14.9198L9.07046 10.1228C8.77746 9.82977 8.77746 9.35577 9.07046 9.06277C9.36446 8.76977 9.83846 8.76977 10.1305 9.06277L14.9265 13.8598C15.2195 14.1528 15.2195 14.6268 14.9265 14.9198C14.7805 15.0668 14.5875 15.1398 14.3965 15.1398Z" fill="black"/>
<path id="Fill 5" fill-rule="evenodd" clip-rule="evenodd" d="M7.665 3.50012C5.135 3.50012 3.5 5.23312 3.5 7.91612V16.0841C3.5 18.7671 5.135 20.5001 7.665 20.5001H16.333C18.864 20.5001 20.5 18.7671 20.5 16.0841V7.91612C20.5 5.23312 18.864 3.50012 16.334 3.50012H7.665ZM16.333 22.0001H7.665C4.276 22.0001 2 19.6221 2 16.0841V7.91612C2 4.37812 4.276 2.00012 7.665 2.00012H16.334C19.723 2.00012 22 4.37812 22 7.91612V16.0841C22 19.6221 19.723 22.0001 16.333 22.0001Z" fill="black"/>
</g>
</g>
</svg>
