<svg width="24" height="24" viewBox="0 0 24 24" fill="none" xmlns="http://www.w3.org/2000/svg">
<g id="Iconly/Regular/Outline/Volume Down">
<g id="Volume Down">
<g id="Group 3">
<mask id="mask0_33437_5028" style="mask-type:luminance" maskUnits="userSpaceOnUse" x="3" y="5" width="13" height="16">
<path id="Clip 2" fill-rule="evenodd" clip-rule="evenodd" d="M3 5.00037H15.02V20.5023H3V5.00037Z" fill="white"/>
</mask>
<g mask="url(#mask0_33437_5028)">
<path id="Fill 1" fill-rule="evenodd" clip-rule="evenodd" d="M12.208 6.50625C11.34 6.50625 10.23 7.38725 9.30598 8.12125C8.41698 8.82625 7.71498 9.38425 7.01498 9.43625C6.70498 9.45825 6.43898 9.46825 6.20498 9.47625C5.45798 9.50125 5.26898 9.51825 4.93198 9.79625C4.48998 10.1593 4.49698 11.6423 4.50098 12.5273L4.50198 12.7483V12.7523L4.50098 12.9733C4.49698 13.8593 4.48998 15.3423 4.93198 15.7053C5.26798 15.9833 5.45698 15.9993 6.20198 16.0263C6.43698 16.0333 6.70398 16.0433 7.01498 16.0663C7.71498 16.1173 8.41698 16.6753 9.30598 17.3803C10.409 18.2553 11.776 19.3403 12.681 18.8893C13.439 18.2323 13.52 16.4903 13.52 12.7503C13.52 9.01025 13.439 7.26925 12.681 6.61125C12.534 6.53825 12.375 6.50625 12.208 6.50625ZM12.218 20.5023C10.827 20.5023 9.44798 19.4073 8.37398 18.5553C7.88898 18.1703 7.15598 17.5883 6.90298 17.5623C6.61598 17.5403 6.36798 17.5313 6.14898 17.5253C5.35098 17.4963 4.71998 17.4753 3.97798 16.8633C2.98598 16.0463 2.99498 14.3383 3.00098 12.9663L3.00198 12.7503L3.00098 12.5343C2.99498 11.1623 2.98598 9.45525 3.97798 8.63825C4.72098 8.02625 5.35298 8.00425 6.15298 7.97725C6.37098 7.96925 6.61798 7.96125 6.90498 7.94025C7.15598 7.91325 7.88898 7.33125 8.37398 6.94625C9.77198 5.83525 11.689 4.31825 13.474 5.33525C13.505 5.35425 13.536 5.37425 13.564 5.39725C14.958 6.49225 15.02 8.55725 15.02 12.7503C15.02 16.9443 14.958 19.0093 13.564 20.1053C13.536 20.1273 13.505 20.1483 13.473 20.1663C13.059 20.4023 12.638 20.5023 12.218 20.5023Z" fill="black"/>
</g>
</g>
<path id="Fill 4" fill-rule="evenodd" clip-rule="evenodd" d="M18.3306 17.1869C18.2036 17.1869 18.0756 17.1549 17.9576 17.0869C17.5986 16.8809 17.4746 16.4219 17.6806 16.0639C18.8516 14.0229 18.8516 11.4849 17.6806 9.43793C17.4746 9.07793 17.5996 8.61993 17.9586 8.41393C18.3186 8.21193 18.7756 8.33293 18.9816 8.69193C20.4166 11.1999 20.4166 14.3099 18.9816 16.8099C18.8426 17.0519 18.5906 17.1869 18.3306 17.1869Z" fill="black"/>
</g>
</g>
</svg>
