<svg width="24" height="24" viewBox="0 0 24 24" fill="none" xmlns="http://www.w3.org/2000/svg">
<g id="Iconly/Regular/Outline/Volume Up">
<g id="Volume Up">
<g id="Group 3">
<mask id="mask0_33437_5007" style="mask-type:luminance" maskUnits="userSpaceOnUse" x="2" y="5" width="13" height="16">
<path id="Clip 2" fill-rule="evenodd" clip-rule="evenodd" d="M2 5.00037H14.02V20.5023H2V5.00037Z" fill="white"/>
</mask>
<g mask="url(#mask0_33437_5007)">
<path id="Fill 1" fill-rule="evenodd" clip-rule="evenodd" d="M11.208 6.50625C10.34 6.50625 9.22998 7.38725 8.30598 8.12125C7.41698 8.82625 6.71498 9.38425 6.01498 9.43625C5.70498 9.45825 5.43898 9.46825 5.20498 9.47625C4.45798 9.50125 4.26898 9.51825 3.93198 9.79625C3.48998 10.1593 3.49698 11.6423 3.50098 12.5273L3.50198 12.7483V12.7523L3.50098 12.9733C3.49698 13.8593 3.48998 15.3423 3.93198 15.7053C4.26798 15.9833 4.45698 15.9993 5.20198 16.0263C5.43698 16.0333 5.70398 16.0433 6.01498 16.0663C6.71498 16.1173 7.41698 16.6753 8.30598 17.3803C9.40898 18.2553 10.775 19.3403 11.681 18.8893C12.439 18.2323 12.52 16.4903 12.52 12.7503C12.52 9.01025 12.439 7.26925 11.681 6.61125C11.534 6.53825 11.375 6.50625 11.208 6.50625ZM11.218 20.5023C9.82698 20.5023 8.44798 19.4073 7.37398 18.5553C6.88898 18.1703 6.15598 17.5883 5.90298 17.5623C5.61598 17.5403 5.36798 17.5313 5.14898 17.5253C4.35098 17.4963 3.71998 17.4753 2.97798 16.8633C1.98598 16.0463 1.99498 14.3383 2.00098 12.9663L2.00198 12.7503L2.00098 12.5343C1.99498 11.1623 1.98598 9.45525 2.97798 8.63825C3.72098 8.02625 4.35298 8.00425 5.15298 7.97725C5.37098 7.96925 5.61798 7.96125 5.90498 7.94025C6.15598 7.91325 6.88898 7.33125 7.37398 6.94625C8.77298 5.83525 10.689 4.31825 12.474 5.33525C12.505 5.35425 12.536 5.37425 12.564 5.39725C13.958 6.49225 14.02 8.55725 14.02 12.7503C14.02 16.9443 13.958 19.0093 12.564 20.1053C12.536 20.1273 12.505 20.1483 12.473 20.1663C12.059 20.4023 11.638 20.5023 11.218 20.5023Z" fill="black"/>
</g>
</g>
<g id="Group 6">
<mask id="mask1_33437_5007" style="mask-type:luminance" maskUnits="userSpaceOnUse" x="19" y="5" width="4" height="15">
<path id="Clip 5" fill-rule="evenodd" clip-rule="evenodd" d="M19.0837 5.90369H22.4838V19.596H19.0837V5.90369Z" fill="white"/>
</mask>
<g mask="url(#mask1_33437_5007)">
<path id="Fill 4" fill-rule="evenodd" clip-rule="evenodd" d="M19.8334 19.596C19.6854 19.596 19.5364 19.552 19.4054 19.461C19.0654 19.225 18.9814 18.758 19.2184 18.417C21.6114 14.977 21.6114 10.528 19.2184 7.08201C18.9814 6.74201 19.0654 6.27501 19.4064 6.03801C19.7464 5.80101 20.2124 5.88601 20.4494 6.22701C23.1624 10.131 23.1624 15.374 20.4494 19.275C20.3034 19.484 20.0704 19.596 19.8334 19.596Z" fill="black"/>
</g>
</g>
<path id="Fill 7" fill-rule="evenodd" clip-rule="evenodd" d="M17.3306 17.1869C17.2036 17.1869 17.0756 17.1549 16.9576 17.0869C16.5986 16.8809 16.4746 16.4219 16.6806 16.0639C17.8516 14.0229 17.8516 11.4849 16.6806 9.43793C16.4746 9.07793 16.5996 8.61993 16.9586 8.41393C17.3186 8.21193 17.7756 8.33293 17.9816 8.69193C19.4166 11.1999 19.4166 14.3099 17.9816 16.8099C17.8426 17.0519 17.5906 17.1869 17.3306 17.1869Z" fill="black"/>
</g>
</g>
</svg>
