<svg width="24" height="24" viewBox="0 0 24 24" fill="none" xmlns="http://www.w3.org/2000/svg">
<g id="Iconly/Regular/Outline/Arrow - Down Circle">
<g id="Arrow - Down Circle">
<path id="Fill 1" fill-rule="evenodd" clip-rule="evenodd" d="M12 3.50012C7.313 3.50012 3.5 7.31312 3.5 12.0001C3.5 16.6871 7.313 20.5001 12 20.5001C16.687 20.5001 20.5 16.6871 20.5 12.0001C20.5 7.31312 16.687 3.50012 12 3.50012ZM12 22.0001C6.486 22.0001 2 17.5141 2 12.0001C2 6.48612 6.486 2.00012 12 2.00012C17.514 2.00012 22 6.48612 22 12.0001C22 17.5141 17.514 22.0001 12 22.0001Z" fill="black"/>
<path id="Fill 3" fill-rule="evenodd" clip-rule="evenodd" d="M12 14.794C11.801 14.794 11.609 14.715 11.469 14.573L7.99805 11.087C7.70505 10.793 7.70705 10.318 8.00005 10.026C8.29405 9.734 8.76905 9.734 9.06105 10.028L12 12.982L14.94 10.028C15.232 9.734 15.707 9.734 16.001 10.026C16.294 10.318 16.295 10.793 16.003 11.087L12.531 14.573C12.391 14.715 12.199 14.794 12 14.794Z" fill="black"/>
</g>
</g>
</svg>
