<svg width="24" height="24" viewBox="0 0 24 24" fill="none" xmlns="http://www.w3.org/2000/svg">
<g id="Iconly/Regular/Bulk/Filter">
<g id="Filter">
<path id="Fill 1" opacity="0.4" d="M10.0833 15.9581H3.50777C2.67555 15.9581 2 16.6218 2 17.4394C2 18.2559 2.67555 18.9207 3.50777 18.9207H10.0833C10.9155 18.9207 11.5911 18.2559 11.5911 17.4394C11.5911 16.6218 10.9155 15.9581 10.0833 15.9581Z" fill="black"/>
<path id="Fill 4" opacity="0.4" d="M22 6.37869C22 5.56216 21.3244 4.89845 20.4933 4.89845H13.9178C13.0856 4.89845 12.41 5.56216 12.41 6.37869C12.41 7.19631 13.0856 7.86001 13.9178 7.86001H20.4933C21.3244 7.86001 22 7.19631 22 6.37869Z" fill="black"/>
<path id="Fill 6" d="M8.87774 6.37868C8.87774 8.24535 7.33886 9.75833 5.43887 9.75833C3.53999 9.75833 2 8.24535 2 6.37868C2 4.51311 3.53999 3.00012 5.43887 3.00012C7.33886 3.00012 8.87774 4.51311 8.87774 6.37868Z" fill="black"/>
<path id="Fill 9" d="M22.0001 17.3993C22.0001 19.2649 20.4612 20.7779 18.5612 20.7779C16.6623 20.7779 15.1223 19.2649 15.1223 17.3993C15.1223 15.5327 16.6623 14.0197 18.5612 14.0197C20.4612 14.0197 22.0001 15.5327 22.0001 17.3993Z" fill="black"/>
</g>
</g>
</svg>
