<svg width="24" height="24" viewBox="0 0 24 24" fill="none" xmlns="http://www.w3.org/2000/svg">
<g id="Iconly/Regular/Outline/Send">
<g id="Send">
<mask id="mask0_33437_4693" style="mask-type:luminance" maskUnits="userSpaceOnUse" x="2" y="3" width="20" height="20">
<path id="Clip 2" fill-rule="evenodd" clip-rule="evenodd" d="M2 3.00049H21.499V22.4995H2V3.00049Z" fill="white"/>
</mask>
<g mask="url(#mask0_33437_4693)">
<path id="Fill 1" fill-rule="evenodd" clip-rule="evenodd" d="M10.8049 14.8179L14.4619 20.7509C14.6219 21.0109 14.8719 21.0079 14.9729 20.9939C15.0739 20.9799 15.3169 20.9179 15.4049 20.6229L19.9779 5.17789C20.0579 4.90489 19.9109 4.71889 19.8449 4.65289C19.7809 4.58689 19.5979 4.44589 19.3329 4.52089L3.87695 9.04689C3.58394 9.13289 3.51994 9.37889 3.50594 9.47989C3.49194 9.58289 3.48794 9.83789 3.74695 10.0009L9.74794 13.7539L15.0499 8.39589C15.3409 8.10189 15.8159 8.09889 16.1109 8.38989C16.4059 8.68089 16.4079 9.15689 16.1169 9.45089L10.8049 14.8179ZM14.8949 22.4999C14.1989 22.4999 13.5609 22.1459 13.1849 21.5379L9.30794 15.2469L2.95194 11.2719C2.26694 10.8429 1.90894 10.0789 2.01994 9.27589C2.12994 8.47289 2.68094 7.83489 3.45494 7.60789L18.9109 3.08189C19.6219 2.87389 20.3839 3.07089 20.9079 3.59289C21.4319 4.11989 21.6269 4.88989 21.4149 5.60389L16.8419 21.0479C16.6129 21.8249 15.9729 22.3739 15.1719 22.4809C15.0779 22.4929 14.9869 22.4999 14.8949 22.4999Z" fill="black"/>
</g>
</g>
</g>
</svg>
