<svg width="24" height="24" viewBox="0 0 24 24" fill="none" xmlns="http://www.w3.org/2000/svg">
<g id="Iconly/Regular/Outline/Paper Download">
<g id="Paper Download">
<g id="Group 3">
<mask id="mask0_33437_4492" style="mask-type:luminance" maskUnits="userSpaceOnUse" x="3" y="2" width="18" height="20">
<path id="Clip 2" fill-rule="evenodd" clip-rule="evenodd" d="M3.00024 2.01172H20.0524V21.8652H3.00024V2.01172Z" fill="white"/>
</mask>
<g mask="url(#mask0_33437_4492)">
<path id="Fill 1" fill-rule="evenodd" clip-rule="evenodd" d="M7.57331 3.51172C5.91631 3.51172 4.54031 4.85372 4.50131 6.50872V17.2277C4.46531 18.9287 5.80531 20.3287 7.49031 20.3657H15.5733C17.2423 20.3057 18.5633 18.9287 18.5523 17.2327V8.33972L13.9183 3.51172H7.58531H7.57331ZM7.58531 21.8657H7.45931C4.94731 21.8117 2.94731 19.7237 3.00131 17.2117V6.49072C3.06031 4.00972 5.10831 2.01172 7.57031 2.01172H7.58831H14.2373C14.4413 2.01172 14.6363 2.09472 14.7783 2.24172L19.8443 7.51872C19.9773 7.65772 20.0523 7.84472 20.0523 8.03772V17.2277C20.0683 19.7367 18.1123 21.7757 15.5993 21.8657H7.58531Z" fill="black"/>
</g>
</g>
<path id="Fill 4" fill-rule="evenodd" clip-rule="evenodd" d="M19.298 8.98437H16.544C14.713 8.97937 13.226 7.48737 13.226 5.65937V2.75037C13.226 2.33637 13.562 2.00037 13.976 2.00037C14.39 2.00037 14.726 2.33637 14.726 2.75037V5.65937C14.726 6.66337 15.542 7.48137 16.546 7.48437H19.298C19.712 7.48437 20.048 7.82037 20.048 8.23437C20.048 8.64837 19.712 8.98437 19.298 8.98437Z" fill="black"/>
<path id="Fill 6" fill-rule="evenodd" clip-rule="evenodd" d="M11.1427 16.7003C10.7287 16.7003 10.3927 16.3643 10.3927 15.9503V9.9093C10.3927 9.4953 10.7287 9.1593 11.1427 9.1593C11.5567 9.1593 11.8927 9.4953 11.8927 9.9093V15.9503C11.8927 16.3643 11.5567 16.7003 11.1427 16.7003Z" fill="black"/>
<path id="Fill 8" fill-rule="evenodd" clip-rule="evenodd" d="M11.1417 16.6992C10.9427 16.6992 10.7507 16.6202 10.6107 16.4782L8.26574 14.1242C7.97374 13.8302 7.97474 13.3552 8.26774 13.0632C8.56174 12.7712 9.03674 12.7712 9.32874 13.0652L11.1417 14.8872L12.9547 13.0652C13.2467 12.7712 13.7217 12.7712 14.0157 13.0632C14.3087 13.3552 14.3097 13.8302 14.0177 14.1242L11.6727 16.4782C11.5327 16.6202 11.3407 16.6992 11.1417 16.6992Z" fill="black"/>
</g>
</g>
</svg>
