<svg width="24" height="24" viewBox="0 0 24 24" fill="none" xmlns="http://www.w3.org/2000/svg">
<g id="Iconly/Curved/Light/Activity">
<g id="Activity">
<path id="Stroke 1" d="M6.91711 14.854L9.91011 10.965L13.3241 13.645L16.2531 9.86502" stroke="black" stroke-width="1.5" stroke-linecap="round" stroke-linejoin="round"/>
<path id="Stroke 2" fill-rule="evenodd" clip-rule="evenodd" d="M19.6671 2.35013C20.7291 2.35013 21.5891 3.21013 21.5891 4.27213C21.5891 5.33313 20.7291 6.19413 19.6671 6.19413C18.6051 6.19413 17.7451 5.33313 17.7451 4.27213C17.7451 3.21013 18.6051 2.35013 19.6671 2.35013Z" stroke="black" stroke-width="1.5" stroke-linecap="round" stroke-linejoin="round"/>
<path id="Stroke 4" d="M20.7555 9.26913C20.8885 10.1641 20.9495 11.1721 20.9495 12.3031C20.9495 19.2411 18.6375 21.5531 11.6995 21.5531C4.76246 21.5531 2.44946 19.2411 2.44946 12.3031C2.44946 5.36613 4.76246 3.05313 11.6995 3.05313C12.8095 3.05313 13.8005 3.11213 14.6825 3.24013" stroke="black" stroke-width="1.5" stroke-linecap="round" stroke-linejoin="round"/>
</g>
</g>
</svg>
