<svg width="24" height="24" viewBox="0 0 24 24" fill="none" xmlns="http://www.w3.org/2000/svg">
<g id="Iconly/Regular/Outline/Paper Plus">
<g id="Paper Plus">
<path id="Fill 1" fill-rule="evenodd" clip-rule="evenodd" d="M7.5729 3.51184C5.9149 3.51184 4.5399 4.85384 4.5009 6.50884V17.3398C4.4719 18.9868 5.7789 20.3388 7.4139 20.3668L7.5609 20.3658H15.5729C17.2149 20.3478 18.5539 18.9908 18.5519 17.3408V8.34184L13.9179 3.51184H7.5849H7.5729ZM7.3999 21.8668C4.9269 21.8238 2.9589 19.7868 3.0009 17.3268V6.49084C3.0579 4.00984 5.1069 2.01184 7.5699 2.01184H7.5879H14.2369C14.4409 2.01184 14.6359 2.09484 14.7779 2.24184L19.8439 7.52084C19.9769 7.65984 20.0519 7.84684 20.0519 8.03984V17.3398C20.0559 19.8088 18.0499 21.8398 15.5809 21.8658L7.3999 21.8668Z" fill="black"/>
<path id="Fill 3" fill-rule="evenodd" clip-rule="evenodd" d="M19.2975 8.98449H16.5435C14.7125 8.97949 13.2245 7.48749 13.2245 5.65949V2.75049C13.2245 2.33649 13.5605 2.00049 13.9745 2.00049C14.3885 2.00049 14.7245 2.33649 14.7245 2.75049V5.65949C14.7245 6.66349 15.5415 7.48149 16.5455 7.48449H19.2975C19.7115 7.48449 20.0475 7.82049 20.0475 8.23449C20.0475 8.64849 19.7115 8.98449 19.2975 8.98449Z" fill="black"/>
<path id="Fill 5" fill-rule="evenodd" clip-rule="evenodd" d="M13.7937 13.6642H8.89465C8.48065 13.6642 8.14465 13.3282 8.14465 12.9142C8.14465 12.5002 8.48065 12.1642 8.89465 12.1642H13.7937C14.2077 12.1642 14.5437 12.5002 14.5437 12.9142C14.5437 13.3282 14.2077 13.6642 13.7937 13.6642Z" fill="black"/>
<path id="Fill 7" fill-rule="evenodd" clip-rule="evenodd" d="M11.3444 16.1144C10.9304 16.1144 10.5944 15.7784 10.5944 15.3644V10.4644C10.5944 10.0504 10.9304 9.71436 11.3444 9.71436C11.7584 9.71436 12.0944 10.0504 12.0944 10.4644V15.3644C12.0944 15.7784 11.7584 16.1144 11.3444 16.1144Z" fill="black"/>
</g>
</g>
</svg>
