<svg width="24" height="24" viewBox="0 0 24 24" fill="none" xmlns="http://www.w3.org/2000/svg">
<g id="Iconly/Regular/Outline/Graph">
<g id="Graph">
<path id="Fill 1" fill-rule="evenodd" clip-rule="evenodd" d="M8.98249 6.30362C8.95049 6.30362 8.91849 6.30762 8.88649 6.31562C5.91649 7.04662 3.50049 10.2646 3.50049 13.4886C3.50049 17.5446 6.80049 20.8446 10.8575 20.8446C14.5145 20.8446 17.5705 18.2396 18.1245 14.6496C18.1285 14.6196 18.1425 14.5326 18.0605 14.4356C17.9825 14.3446 17.8585 14.2906 17.7285 14.2906C16.3175 14.2906 15.2405 14.3226 14.3995 14.3466C12.3635 14.4076 11.5215 14.4306 10.6895 13.8136C9.43549 12.8846 9.32949 11.2886 9.32949 6.59462C9.32949 6.51062 9.29349 6.44062 9.22149 6.38462C9.15449 6.33162 9.06949 6.30362 8.98249 6.30362ZM10.8575 22.3446C5.97349 22.3446 2.00049 18.3716 2.00049 13.4886C2.00049 9.61662 4.92849 5.74462 8.52749 4.85862C9.08949 4.72162 9.69349 4.84962 10.1475 5.20362C10.5805 5.54362 10.8295 6.05062 10.8295 6.59462C10.8295 10.9796 10.9775 12.1596 11.5825 12.6086C11.9795 12.9016 12.5235 12.8986 14.3565 12.8476C15.2085 12.8226 16.2995 12.7906 17.7285 12.7906C18.2985 12.7906 18.8355 13.0346 19.1995 13.4596C19.5375 13.8546 19.6855 14.3706 19.6075 14.8786C18.9395 19.2036 15.2595 22.3446 10.8575 22.3446Z" fill="black"/>
<g id="Group 5">
<mask id="mask0_33437_4338" style="mask-type:luminance" maskUnits="userSpaceOnUse" x="12" y="1" width="11" height="11">
<path id="Clip 4" fill-rule="evenodd" clip-rule="evenodd" d="M12.4741 1.00061H22.8931V11.2899H12.4741V1.00061Z" fill="white"/>
</mask>
<g mask="url(#mask0_33437_4338)">
<path id="Fill 3" fill-rule="evenodd" clip-rule="evenodd" d="M14.0109 2.50186C13.9009 5.02086 14.0639 8.27486 14.1399 9.56386C14.1439 9.64086 14.1999 9.69686 14.2759 9.70086C15.3039 9.75986 18.8459 9.92386 21.3929 9.54886C21.3989 8.14486 20.4379 6.24086 18.9909 4.79486C17.5069 3.31286 15.7509 2.50186 14.0329 2.50186H14.0109ZM17.3149 11.2899C16.0049 11.2899 14.8519 11.2369 14.1889 11.1989C13.3549 11.1499 12.6909 10.4849 12.6429 9.65086C12.5649 8.32886 12.3959 4.96986 12.5159 2.37186C12.5489 1.61686 13.1589 1.01586 13.9049 1.00286C16.0419 0.940864 18.2469 1.93286 20.0509 3.73386C21.8089 5.49086 22.9249 7.79986 22.8929 9.61686C22.8809 10.3259 22.3659 10.9179 21.6699 11.0229C20.3119 11.2279 18.7219 11.2899 17.3149 11.2899Z" fill="black"/>
</g>
</g>
</g>
</g>
</svg>
