<svg width="24" height="24" viewBox="0 0 24 24" fill="none" xmlns="http://www.w3.org/2000/svg">
<g id="Iconly/Regular/Bulk/Info Square">
<path id="Fill 1" opacity="0.4" d="M16.34 1.99992H7.67C4.28 1.99992 2 4.37992 2 7.91992V16.0899C2 19.6199 4.28 21.9999 7.67 21.9999H16.34C19.73 21.9999 22 19.6199 22 16.0899V7.91992C22 4.37992 19.73 1.99992 16.34 1.99992Z" fill="black"/>
<path id="Combined Shape" fill-rule="evenodd" clip-rule="evenodd" d="M11.1248 8.18942C11.1248 8.67142 11.5158 9.06442 11.9948 9.06442C12.4878 9.06442 12.8798 8.67142 12.8798 8.18942C12.8798 7.70742 12.4878 7.31442 12.0048 7.31442C11.5198 7.31442 11.1248 7.70742 11.1248 8.18942ZM12.8698 11.3622C12.8698 10.8802 12.4768 10.4872 11.9948 10.4872C11.5128 10.4872 11.1198 10.8802 11.1198 11.3622V15.7822C11.1198 16.2642 11.5128 16.6572 11.9948 16.6572C12.4768 16.6572 12.8698 16.2642 12.8698 15.7822V11.3622Z" fill="black"/>
</g>
</svg>
