<svg width="24" height="24" viewBox="0 0 24 24" fill="none" xmlns="http://www.w3.org/2000/svg">
<g id="Iconly/Regular/Bulk/Send">
<g id="Send">
<path id="Fill 1" d="M21.4274 2.57842C20.9274 2.06742 20.1874 1.87842 19.4974 2.07842L3.40742 6.72742C2.67942 6.92942 2.16342 7.50642 2.02442 8.23842C1.88242 8.98442 2.37842 9.93242 3.02642 10.3284L8.05742 13.4004C8.57342 13.7164 9.23942 13.6374 9.66642 13.2094L15.4274 7.44842C15.7174 7.14742 16.1974 7.14742 16.4874 7.44842C16.7774 7.73742 16.7774 8.20842 16.4874 8.50842L10.7164 14.2694C10.2884 14.6974 10.2084 15.3614 10.5234 15.8784L13.5974 20.9284C13.9574 21.5274 14.5774 21.8684 15.2574 21.8684C15.3374 21.8684 15.4274 21.8684 15.5074 21.8574C16.2874 21.7584 16.9074 21.2274 17.1374 20.4774L21.9074 4.50842C22.1174 3.82842 21.9274 3.08842 21.4274 2.57842Z" fill="black"/>
<path id="Combined Shape" opacity="0.4" fill-rule="evenodd" clip-rule="evenodd" d="M3.01049 16.8079C2.81849 16.8079 2.62649 16.7349 2.48049 16.5879C2.18749 16.2949 2.18749 15.8209 2.48049 15.5279L3.84549 14.1619C4.13849 13.8699 4.61349 13.8699 4.90649 14.1619C5.19849 14.4549 5.19849 14.9299 4.90649 15.2229L3.54049 16.5879C3.39449 16.7349 3.20249 16.8079 3.01049 16.8079ZM6.77169 18.0003C6.57969 18.0003 6.38769 17.9273 6.24169 17.7803C5.94869 17.4873 5.94869 17.0133 6.24169 16.7203L7.60669 15.3543C7.89969 15.0623 8.37469 15.0623 8.66769 15.3543C8.95969 15.6473 8.95969 16.1223 8.66769 16.4153L7.30169 17.7803C7.15569 17.9273 6.96369 18.0003 6.77169 18.0003ZM7.02539 21.5683C7.17139 21.7153 7.36339 21.7883 7.55539 21.7883C7.74739 21.7883 7.93939 21.7153 8.08539 21.5683L9.45139 20.2033C9.74339 19.9103 9.74339 19.4353 9.45139 19.1423C9.15839 18.8503 8.68339 18.8503 8.39039 19.1423L7.02539 20.5083C6.73239 20.8013 6.73239 21.2753 7.02539 21.5683Z" fill="black"/>
</g>
</g>
</svg>
