<svg width="24" height="24" viewBox="0 0 24 24" fill="none" xmlns="http://www.w3.org/2000/svg">
<g id="Iconly/Regular/Bulk/Location">
<g id="Location">
<path id="Path_34175" fill-rule="evenodd" clip-rule="evenodd" d="M8.53162 2.93689C10.7165 1.6674 13.402 1.68959 15.5664 2.99502C17.7095 4.32704 19.012 6.7043 18.9998 9.26157C18.95 11.8021 17.5533 14.1901 15.8075 16.0362C14.7998 17.1065 13.6726 18.053 12.4488 18.8562C12.3228 18.929 12.1848 18.9778 12.0415 19.0001C11.9036 18.9943 11.7693 18.9535 11.6508 18.8816C9.78243 17.6747 8.14334 16.1342 6.81233 14.3341C5.69859 12.8315 5.06584 11.0161 5 9.13454C4.99856 6.57237 6.34677 4.20639 8.53162 2.93689ZM9.79416 10.1949C10.1617 11.101 11.0292 11.692 11.9916 11.692C12.6221 11.6965 13.2282 11.4439 13.6748 10.9906C14.1214 10.5372 14.3715 9.92076 14.3692 9.2785C14.3726 8.29816 13.7955 7.41244 12.9073 7.0349C12.0191 6.65736 10.995 6.86247 10.3133 7.55447C9.63159 8.24647 9.42664 9.28885 9.79416 10.1949Z" fill="black"/>
<ellipse id="Ellipse_743" opacity="0.4" cx="12" cy="21.0001" rx="5" ry="1" fill="black"/>
</g>
</g>
</svg>
