<svg width="24" height="24" viewBox="0 0 24 24" fill="none" xmlns="http://www.w3.org/2000/svg">
<g id="Iconly/Regular/Bulk/Paper Fail">
<g id="Paper Fail">
<path id="Fill 3" opacity="0.4" d="M18.8089 9.02112C18.3574 9.02112 17.7594 9.01112 17.0149 9.01112C15.199 9.01112 13.7059 7.50812 13.7059 5.67512V2.45912C13.7059 2.20612 13.503 2.00012 13.2525 2.00012H7.96337C5.49604 2.00012 3.5 4.02612 3.5 6.50912V17.2841C3.5 19.8891 5.59109 22.0001 8.1703 22.0001H16.0455C18.5059 22.0001 20.5 19.9871 20.5 17.5021V9.47112C20.5 9.21712 20.298 9.01212 20.0465 9.01312C19.6238 9.01612 19.1168 9.02112 18.8089 9.02112Z" fill="black"/>
<path id="Fill 1" opacity="0.4" d="M16.0839 2.56743C15.7859 2.25643 15.2629 2.47043 15.2629 2.90143V5.53843C15.2629 6.64443 16.1739 7.55443 17.2799 7.55443C17.9769 7.56243 18.9449 7.56443 19.7669 7.56243C20.1879 7.56143 20.4019 7.05843 20.1099 6.75443C19.0549 5.65743 17.1659 3.69143 16.0839 2.56743Z" fill="black"/>
<path id="Fill 6" d="M12.935 12.9854L14.156 11.7634C14.447 11.4734 14.447 11.0024 14.156 10.7114C13.865 10.4204 13.394 10.4204 13.103 10.7114L11.882 11.9314L10.661 10.7114C10.37 10.4204 9.89804 10.4204 9.60704 10.7114C9.31604 11.0024 9.31604 11.4734 9.60704 11.7634L10.829 12.9854L9.60704 14.2064C9.31604 14.4974 9.31604 14.9684 9.60704 15.2584C9.75304 15.4044 9.94304 15.4774 10.134 15.4774C10.325 15.4774 10.515 15.4044 10.661 15.2584L11.882 14.0384L13.103 15.2584C13.248 15.4044 13.439 15.4774 13.63 15.4774C13.82 15.4774 14.011 15.4044 14.156 15.2584C14.447 14.9684 14.447 14.4974 14.156 14.2064L12.935 12.9854Z" fill="black"/>
</g>
</g>
</svg>
