<svg width="24" height="24" viewBox="0 0 24 24" fill="none" xmlns="http://www.w3.org/2000/svg">
<g id="Iconly/Regular/Outline/Ticket Star">
<g id="Ticket Star">
<g id="Group 3">
<mask id="mask0_33437_4412" style="mask-type:luminance" maskUnits="userSpaceOnUse" x="2" y="3" width="20" height="19">
<path id="Clip 2" fill-rule="evenodd" clip-rule="evenodd" d="M2 3.00061H22V21.1666H2V3.00061Z" fill="white"/>
</mask>
<g mask="url(#mask0_33437_4412)">
<path id="Fill 1" fill-rule="evenodd" clip-rule="evenodd" d="M3.5 14.9796V17.0246C3.5 17.7306 3.774 18.3936 4.273 18.8926C4.772 19.3916 5.436 19.6666 6.141 19.6666H17.857C19.313 19.6666 20.499 18.4826 20.5 17.0266V14.9786C19.214 14.6456 18.261 13.4746 18.26 12.0856C18.26 10.6966 19.213 9.52561 20.499 9.19161L20.5 7.14661C20.501 5.68861 19.318 4.50161 17.861 4.50061H6.144C4.687 4.50061 3.501 5.68561 3.5 7.14261V9.25961C3.986 9.37561 4.437 9.61461 4.812 9.96461C5.381 10.4956 5.709 11.2156 5.737 11.9936C5.74 13.4596 4.787 14.6436 3.5 14.9796ZM17.857 21.1666H6.142C5.035 21.1666 3.995 20.7366 3.212 19.9536C2.43 19.1706 2 18.1306 2 17.0246V14.3246C2 13.9106 2.336 13.5746 2.75 13.5746C3.574 13.5736 4.24 12.9056 4.239 12.0856C4.225 11.6676 4.065 11.3196 3.789 11.0616C3.514 10.8036 3.158 10.6626 2.776 10.6836C2.569 10.6856 2.375 10.6146 2.229 10.4736C2.083 10.3326 2 10.1366 2 9.93361V7.14361C2.001 4.85861 3.86 3.00061 6.144 3.00061H17.856C20.146 3.00161 22.002 4.86361 22 7.14761V9.84661C22 10.2606 21.664 10.5966 21.25 10.5966C20.429 10.5966 19.76 11.2646 19.76 12.0846C19.761 12.9066 20.429 13.5746 21.25 13.5746C21.664 13.5746 22 13.9106 22 14.3246V17.0246C21.999 19.3086 20.14 21.1666 17.857 21.1666Z" fill="black"/>
</g>
</g>
<path id="Fill 4" fill-rule="evenodd" clip-rule="evenodd" d="M10.104 11.3816L10.613 11.8776C10.889 12.1486 11.014 12.5346 10.948 12.9116L10.828 13.6096L11.457 13.2786C11.796 13.0976 12.203 13.0986 12.545 13.2806L13.17 13.6086L13.05 12.9096C12.987 12.5266 13.113 12.1436 13.386 11.8776L13.8949 11.3816L13.1899 11.2796C12.812 11.2246 12.484 10.9866 12.3149 10.6416L12 10.0046L11.685 10.6426C11.516 10.9866 11.188 11.2246 10.808 11.2796L10.104 11.3816ZM13.6179 15.3876C13.432 15.3876 13.246 15.3426 13.074 15.2516L12 14.6886L10.925 15.2526C10.529 15.4596 10.058 15.4266 9.69795 15.1646C9.33695 14.9016 9.15995 14.4656 9.23495 14.0256L9.43995 12.8296L8.57095 11.9826C8.25195 11.6716 8.13795 11.2146 8.27495 10.7906C8.41295 10.3656 8.77295 10.0606 9.21395 9.99664L10.418 9.82064L10.955 8.73164C11.152 8.33164 11.552 8.08264 12 8.08264C12.446 8.08264 12.847 8.33164 13.044 8.73264L13.582 9.82064L14.784 9.99664C15.226 10.0606 15.5869 10.3656 15.7239 10.7906C15.8609 11.2146 15.748 11.6716 15.4279 11.9836L14.558 12.8306L14.7639 14.0256C14.8389 14.4666 14.661 14.9036 14.299 15.1656C14.095 15.3126 13.8569 15.3876 13.6179 15.3876Z" fill="black"/>
</g>
</g>
</svg>
