<svg width="24" height="24" viewBox="0 0 24 24" fill="none" xmlns="http://www.w3.org/2000/svg">
<g id="Iconly/Regular/Outline/Ticket">
<g id="Group 10">
<path id="Fill 1" fill-rule="evenodd" clip-rule="evenodd" d="M13.5996 8.171C13.1856 8.171 12.8496 7.835 12.8496 7.421V5C12.8496 4.586 13.1856 4.25 13.5996 4.25C14.0136 4.25 14.3496 4.586 14.3496 5V7.421C14.3496 7.835 14.0136 8.171 13.5996 8.171Z" fill="black"/>
<path id="Fill 3" fill-rule="evenodd" clip-rule="evenodd" d="M13.5996 21.2844C13.1856 21.2844 12.8496 20.9484 12.8496 20.5344V18.5114C12.8496 18.0964 13.1856 17.7614 13.5996 17.7614C14.0136 17.7614 14.3496 18.0964 14.3496 18.5114V20.5344C14.3496 20.9484 14.0136 21.2844 13.5996 21.2844Z" fill="black"/>
<path id="Fill 5" fill-rule="evenodd" clip-rule="evenodd" d="M13.5996 15.8253C13.1856 15.8253 12.8496 15.4893 12.8496 15.0753V10.2543C12.8496 9.84027 13.1856 9.50427 13.5996 9.50427C14.0136 9.50427 14.3496 9.84027 14.3496 10.2543V15.0753C14.3496 15.4893 14.0136 15.8253 13.5996 15.8253Z" fill="black"/>
<g id="Group 9">
<mask id="mask0_33437_4422" style="mask-type:luminance" maskUnits="userSpaceOnUse" x="1" y="4" width="22" height="18">
<path id="Clip 8" fill-rule="evenodd" clip-rule="evenodd" d="M1 4.00012H22.5V21.4998H1V4.00012Z" fill="white"/>
</mask>
<g mask="url(#mask0_33437_4422)">
<path id="Fill 7" fill-rule="evenodd" clip-rule="evenodd" d="M2.5 15.5539V17.4929C2.5 18.8749 3.643 19.9999 5.048 19.9999H18.452C19.857 19.9999 21 18.8749 21 17.4929V15.5539C19.749 15.2249 18.823 14.0929 18.823 12.7509C18.823 11.4079 19.748 10.2769 21 9.94788L20.999 8.00688C20.999 6.62488 19.856 5.49988 18.451 5.49988H5.049C3.644 5.49988 2.501 6.62488 2.501 8.00688L2.5 10.0249C3.767 10.3359 4.677 11.4219 4.677 12.7509C4.677 14.0929 3.751 15.2249 2.5 15.5539ZM18.452 21.4999H5.048C2.816 21.4999 1 19.7019 1 17.4929V14.9009C1 14.4869 1.336 14.1509 1.75 14.1509C2.537 14.1509 3.177 13.5229 3.177 12.7509C3.177 12.0009 2.563 11.4349 1.75 11.4349C1.551 11.4349 1.36 11.3559 1.22 11.2149C1.079 11.0749 1 10.8829 1 10.6849L1.001 8.00688C1.001 5.79788 2.817 3.99988 5.049 3.99988H18.451C20.683 3.99988 22.499 5.79788 22.499 8.00688L22.5 10.6009C22.5 10.7989 22.421 10.9909 22.28 11.1309C22.14 11.2719 21.949 11.3509 21.75 11.3509C20.963 11.3509 20.323 11.9789 20.323 12.7509C20.323 13.5229 20.963 14.1509 21.75 14.1509C22.164 14.1509 22.5 14.4869 22.5 14.9009V17.4929C22.5 19.7019 20.684 21.4999 18.452 21.4999Z" fill="black"/>
</g>
</g>
</g>
</g>
</svg>
