<svg width="24" height="24" viewBox="0 0 24 24" fill="none" xmlns="http://www.w3.org/2000/svg">
<g id="Iconly/Regular/Outline/Shield Fail">
<g id="Shield Fail">
<g id="Group 3">
<mask id="mask0_33437_4807" style="mask-type:luminance" maskUnits="userSpaceOnUse" x="4" y="2" width="17" height="21">
<path id="Clip 2" fill-rule="evenodd" clip-rule="evenodd" d="M4.00024 2.00049H20.967V22.3561H4.00024V2.00049Z" fill="white"/>
</mask>
<g mask="url(#mask0_33437_4807)">
<path id="Fill 1" fill-rule="evenodd" clip-rule="evenodd" d="M12.4837 3.50012C11.6357 3.50012 6.28468 5.38412 5.66768 5.89912C5.48668 6.08112 5.47968 6.39912 5.51768 8.52612C5.53668 9.55212 5.56168 10.9471 5.56168 12.8791C5.56168 18.0801 11.2837 20.3891 12.4827 20.8141C13.6807 20.3871 19.4057 18.0651 19.4057 12.8791C19.4057 10.9491 19.4307 9.55512 19.4487 8.52912C19.4877 6.40012 19.4807 6.08212 19.2877 5.88912C18.6817 5.38412 13.3317 3.50012 12.4837 3.50012ZM12.4837 22.3561C12.4107 22.3561 12.3377 22.3461 12.2667 22.3241C11.9317 22.2231 4.06168 19.7611 4.06168 12.8791C4.06168 10.9591 4.03668 9.57212 4.01868 8.55412C3.97268 6.01412 3.96268 5.48412 4.61768 4.82812C5.40468 4.04112 11.3507 2.00012 12.4837 2.00012C13.6167 2.00012 19.5627 4.04112 20.3487 4.82812C21.0047 5.48412 20.9947 6.01412 20.9487 8.55712C20.9307 9.57512 20.9057 10.9621 20.9057 12.8791C20.9057 19.7611 13.0357 22.2231 12.7007 22.3241C12.6297 22.3461 12.5567 22.3561 12.4837 22.3561Z" fill="black"/>
</g>
</g>
<path id="Fill 4" fill-rule="evenodd" clip-rule="evenodd" d="M14.3625 14.5753C14.1705 14.5753 13.9785 14.5023 13.8325 14.3553L10.0745 10.5973C9.78149 10.3043 9.78149 9.83025 10.0745 9.53725C10.3675 9.24425 10.8415 9.24425 11.1345 9.53725L14.8925 13.2953C15.1855 13.5883 15.1855 14.0623 14.8925 14.3553C14.7465 14.5023 14.5545 14.5753 14.3625 14.5753Z" fill="black"/>
<path id="Fill 6" fill-rule="evenodd" clip-rule="evenodd" d="M10.6047 14.5753C10.4127 14.5753 10.2207 14.5023 10.0747 14.3553C9.78173 14.0623 9.78173 13.5883 10.0747 13.2953L13.8327 9.53725C14.1257 9.24425 14.5997 9.24425 14.8927 9.53725C15.1857 9.83025 15.1857 10.3043 14.8927 10.5973L11.1347 14.3553C10.9887 14.5023 10.7967 14.5753 10.6047 14.5753Z" fill="black"/>
</g>
</g>
</svg>
