<svg width="24" height="24" viewBox="0 0 24 24" fill="none" xmlns="http://www.w3.org/2000/svg">
<g id="Iconly/Regular/Outline/Volume Off">
<g id="Volume Off">
<g id="Group 3">
<mask id="mask0_33437_5036" style="mask-type:luminance" maskUnits="userSpaceOnUse" x="3" y="4" width="13" height="14">
<path id="Clip 2" fill-rule="evenodd" clip-rule="evenodd" d="M3 4.6012H15.0337V17.7875H3V4.6012Z" fill="white"/>
</mask>
<g mask="url(#mask0_33437_5036)">
<path id="Fill 1" fill-rule="evenodd" clip-rule="evenodd" d="M12.2305 6.11145C11.3645 6.11145 10.2515 7.02745 9.32551 7.78945C8.43551 8.52145 7.73351 9.09945 7.02851 9.15545C6.71351 9.17945 6.44351 9.19045 6.20551 9.19945C5.46651 9.22645 5.27951 9.24445 4.94751 9.52845C4.49451 9.91545 4.49851 11.4635 4.50051 12.3875L4.50151 12.6335L4.50051 12.8805C4.49851 13.8045 4.49451 15.3525 4.94751 15.7395C5.28651 16.0295 5.47851 16.0475 6.23551 16.0735C6.46451 16.0815 6.72351 16.0905 7.02251 16.1115C7.10851 16.1175 7.19651 16.1315 7.28651 16.1535L13.5245 9.91545C13.4515 7.69045 13.2265 6.69245 12.6965 6.21845C12.5525 6.14445 12.3965 6.11145 12.2305 6.11145ZM7.46351 17.7875C7.33451 17.7875 7.20551 17.7545 7.08851 17.6865C6.96851 17.6175 6.91351 17.6075 6.91351 17.6075C6.63751 17.5885 6.39751 17.5795 6.18351 17.5725C5.36751 17.5445 4.72251 17.5215 3.97251 16.8805C2.99251 16.0425 2.99651 14.2875 3.00051 12.8765L3.00151 12.6335L3.00051 12.3915C2.99651 10.9805 2.99251 9.22445 3.97351 8.38745C4.71351 7.75445 5.34751 7.73045 6.14851 7.70045C6.36951 7.69145 6.61851 7.68245 6.91051 7.65945C7.16151 7.62745 7.89051 7.02745 8.37251 6.63145C9.77851 5.47245 11.7055 3.88645 13.5075 4.95445C13.5405 4.97245 13.5715 4.99445 13.6005 5.01845C14.7245 5.93345 14.9645 7.48145 15.0335 10.1985C15.0385 10.4035 14.9595 10.6015 14.8135 10.7475L7.99451 17.5675C7.84951 17.7125 7.65751 17.7875 7.46351 17.7875Z" fill="black"/>
</g>
</g>
<path id="Fill 4" fill-rule="evenodd" clip-rule="evenodd" d="M12.2328 20.6661C11.2228 20.6661 10.2638 20.0811 9.55279 19.5661C9.21679 19.3241 9.14179 18.8551 9.38379 18.5201C9.62779 18.1841 10.0968 18.1071 10.4318 18.3521C11.7448 19.3011 12.3368 19.2381 12.6958 19.0501C13.2778 18.5311 13.4988 17.3631 13.5328 14.6571C13.5388 14.2431 13.8418 13.9211 14.2928 13.9171C14.7068 13.9231 15.0388 14.2631 15.0328 14.6771C14.9948 17.6321 14.7628 19.3051 13.5998 20.2501C13.5698 20.2731 13.5398 20.2951 13.5078 20.3131C13.0838 20.5641 12.6538 20.6661 12.2328 20.6661Z" fill="black"/>
<g id="Group 8">
<mask id="mask1_33437_5036" style="mask-type:luminance" maskUnits="userSpaceOnUse" x="3" y="4" width="18" height="18">
<path id="Clip 7" fill-rule="evenodd" clip-rule="evenodd" d="M3.00171 4.00037H20.5V21.5001H3.00171V4.00037Z" fill="white"/>
</mask>
<g mask="url(#mask1_33437_5036)">
<path id="Fill 6" fill-rule="evenodd" clip-rule="evenodd" d="M3.75146 21.5001C3.55946 21.5001 3.36746 21.4271 3.22146 21.2801C2.92846 20.9871 2.92846 20.5131 3.22146 20.2201L19.2205 4.22012C19.5135 3.92712 19.9875 3.92712 20.2805 4.22012C20.5735 4.51312 20.5735 4.98712 20.2805 5.28012L4.28146 21.2801C4.13546 21.4271 3.94346 21.5001 3.75146 21.5001Z" fill="black"/>
</g>
</g>
</g>
</g>
</svg>
