<svg width="24" height="24" viewBox="0 0 24 24" fill="none" xmlns="http://www.w3.org/2000/svg">
<g id="Iconly/Regular/Outline/Time Square">
<g id="Time Square">
<path id="Fill 1" fill-rule="evenodd" clip-rule="evenodd" d="M7.665 3.50012C5.135 3.50012 3.5 5.23312 3.5 7.91612V16.0841C3.5 18.7671 5.135 20.5001 7.665 20.5001H16.333C18.864 20.5001 20.5 18.7671 20.5 16.0841V7.91612C20.5 5.23312 18.865 3.50012 16.334 3.50012H7.665ZM16.333 22.0001H7.665C4.276 22.0001 2 19.6221 2 16.0841V7.91612C2 4.37812 4.276 2.00012 7.665 2.00012H16.334C19.723 2.00012 22 4.37812 22 7.91612V16.0841C22 19.6221 19.723 22.0001 16.333 22.0001Z" fill="black"/>
<path id="Fill 3" fill-rule="evenodd" clip-rule="evenodd" d="M15.39 14.7677C15.259 14.7677 15.127 14.7337 15.006 14.6627L11.615 12.6397C11.389 12.5037 11.249 12.2587 11.249 11.9957V7.63367C11.249 7.21967 11.585 6.88367 11.999 6.88367C12.413 6.88367 12.749 7.21967 12.749 7.63367V11.5697L15.775 13.3727C16.13 13.5857 16.247 14.0457 16.035 14.4017C15.894 14.6367 15.645 14.7677 15.39 14.7677Z" fill="black"/>
</g>
</g>
</svg>
