<svg width="24" height="24" viewBox="0 0 24 24" fill="none" xmlns="http://www.w3.org/2000/svg">
<g id="Iconly/Regular/Bulk/Volume Off">
<g id="Volume Off">
<path id="Combined Shape" opacity="0.4" fill-rule="evenodd" clip-rule="evenodd" d="M15.8579 7.55646C15.8762 7.68976 15.8933 7.81533 15.9025 7.98151L6.29014 17.5927H6.06782C4.65985 17.5927 3.63298 16.5977 3.44243 15.0523C3.2307 13.5069 3.27304 10.8606 3.44243 9.45283C3.64356 7.9921 4.72337 6.98652 6.06782 6.98652H7.89925L11.3927 4.1275C11.8162 3.76867 12.5678 3.42995 13.15 3.4183C14.2087 3.4183 15.1826 4.16032 15.532 5.34584C15.6696 5.84228 15.7225 6.34083 15.7649 6.8161L15.8496 7.4946C15.8524 7.51551 15.8552 7.53608 15.8579 7.55646ZM14.8808 13.7316C15.0248 13.5908 15.3434 13.4913 15.4874 13.5273C15.877 13.6268 15.9521 14.1847 15.9468 14.6229C15.9288 15.8952 15.8854 16.7801 15.8177 17.3274L15.77 17.7783L15.7692 17.7867C15.724 18.2403 15.6771 18.7097 15.5435 19.2104C15.1899 20.3938 14.2446 21.1623 13.1711 21.1623C13.1351 21.1623 13.1002 21.1623 13.0642 21.1613C12.4714 21.1613 11.8267 20.8056 11.4614 20.4955L10.1604 19.4888C9.66706 19.1215 9.81209 18.534 10.0894 18.1943C10.2965 17.9414 12.7843 15.6582 14.0922 14.4579C14.5363 14.0503 14.8443 13.7676 14.8808 13.7316Z" fill="black"/>
<path id="Fill 5" d="M21.7275 3.26991C21.3538 2.90896 20.7801 2.91108 20.4201 3.27097L3.27035 20.4187C2.90936 20.7797 2.90936 21.3544 3.27352 21.7323C3.45984 21.9049 3.69062 22.0001 3.92458 22.0001C4.16383 22.0001 4.40943 21.8996 4.57987 21.7291L21.7286 4.58139C22.0906 4.21939 22.0906 3.63298 21.7275 3.26991Z" fill="black"/>
</g>
</g>
</svg>
