<svg width="24" height="24" viewBox="0 0 24 24" fill="none" xmlns="http://www.w3.org/2000/svg">
<g id="Iconly/Curved/Light/Setting">
<g id="Setting">
<path id="Stroke 1" fill-rule="evenodd" clip-rule="evenodd" d="M12 9.50012C13.3809 9.50012 14.5 10.6192 14.5 12.0001C14.5 13.381 13.3809 14.5001 12 14.5001C10.6191 14.5001 9.5 13.381 9.5 12.0001C9.5 10.6192 10.6191 9.50012 12 9.50012Z" stroke="black" stroke-width="1.5" stroke-linecap="round" stroke-linejoin="round"/>
<path id="Stroke 3" fill-rule="evenodd" clip-rule="evenodd" d="M20.168 7.25037V7.25037C19.4845 6.05812 17.9712 5.65016 16.7885 6.33865C15.7598 6.93625 14.4741 6.1885 14.4741 4.9923C14.4741 3.61632 13.3659 2.50012 11.9998 2.50012V2.50012C10.6337 2.50012 9.52546 3.61632 9.52546 4.9923C9.52546 6.1885 8.23977 6.93625 7.21199 6.33865C6.02829 5.65016 4.51507 6.05812 3.83153 7.25037C3.14896 8.44262 3.55399 9.96677 4.73769 10.6543C5.76546 11.2529 5.76546 12.7474 4.73769 13.346C3.55399 14.0345 3.14896 15.5586 3.83153 16.7499C4.51507 17.9421 6.02829 18.3501 7.21101 17.6626H7.21199C8.23977 17.064 9.52546 17.8117 9.52546 19.0079V19.0079C9.52546 20.3839 10.6337 21.5001 11.9998 21.5001V21.5001C13.3659 21.5001 14.4741 20.3839 14.4741 19.0079V19.0079C14.4741 17.8117 15.7598 17.064 16.7885 17.6626C17.9712 18.3501 19.4845 17.9421 20.168 16.7499C20.8515 15.5586 20.4455 14.0345 19.2628 13.346H19.2618C18.2341 12.7474 18.2341 11.2529 19.2628 10.6543C20.4455 9.96677 20.8515 8.44262 20.168 7.25037Z" stroke="black" stroke-width="1.5" stroke-linecap="round" stroke-linejoin="round"/>
</g>
</g>
</svg>
