<svg width="24" height="24" viewBox="0 0 24 24" fill="none" xmlns="http://www.w3.org/2000/svg">
<g id="Iconly/Regular/Bulk/Bookmark">
<g id="Bookmark">
<path id="Bookmark 2" opacity="0.4" d="M11.9912 18.6216L5.49945 21.8642C5.00921 22.1303 4.39768 21.9527 4.12348 21.4645C4.0434 21.311 4.00106 21.1404 4 20.967V13.7089C4 14.4285 4.40573 14.8727 5.47299 15.3702L11.9912 18.6216Z" fill="black"/>
<path id="Bookmark_2" fill-rule="evenodd" clip-rule="evenodd" d="M8.89526 2.00012H15.0695C17.7773 2.00012 19.9735 3.06617 20 5.79349V20.967C19.9989 21.1375 19.9565 21.3052 19.8765 21.4556C19.7479 21.7008 19.5259 21.8828 19.2615 21.9599C18.997 22.0369 18.7128 22.0024 18.4741 21.8642L11.9912 18.6216L5.47299 15.3702C4.40573 14.8727 4 14.4285 4 13.7089V5.79349C4 3.06617 6.19625 2.00012 8.89526 2.00012ZM8.22492 9.62239H15.7486C16.1822 9.62239 16.5336 9.2684 16.5336 8.83174C16.5336 8.39507 16.1822 8.04108 15.7486 8.04108H8.22492C7.79137 8.04108 7.43991 8.39507 7.43991 8.83174C7.43991 9.2684 7.79137 9.62239 8.22492 9.62239Z" fill="black"/>
</g>
</g>
</svg>
