<svg width="24" height="24" viewBox="0 0 24 24" fill="none" xmlns="http://www.w3.org/2000/svg">
<g id="Iconly/Regular/Outline/Danger Circle">
<g id="Danger Circle">
<path id="Fill 1" fill-rule="evenodd" clip-rule="evenodd" d="M12 3.50012C7.313 3.50012 3.5 7.31312 3.5 12.0001C3.5 16.6871 7.313 20.5001 12 20.5001C16.687 20.5001 20.5 16.6871 20.5 12.0001C20.5 7.31312 16.687 3.50012 12 3.50012ZM12 22.0001C6.486 22.0001 2 17.5141 2 12.0001C2 6.48612 6.486 2.00012 12 2.00012C17.514 2.00012 22 6.48612 22 12.0001C22 17.5141 17.514 22.0001 12 22.0001Z" fill="black"/>
<path id="Fill 3" fill-rule="evenodd" clip-rule="evenodd" d="M11.9941 13.3731C11.5801 13.3731 11.2441 13.0371 11.2441 12.6231V8.2041C11.2441 7.7901 11.5801 7.4541 11.9941 7.4541C12.4081 7.4541 12.7441 7.7901 12.7441 8.2041V12.6231C12.7441 13.0371 12.4081 13.3731 11.9941 13.3731Z" fill="black"/>
<path id="Fill 5" fill-rule="evenodd" clip-rule="evenodd" d="M12.0039 16.796C11.4509 16.796 10.9989 16.349 10.9989 15.796C10.9989 15.243 11.4419 14.796 11.9939 14.796H12.0039C12.5569 14.796 13.0039 15.243 13.0039 15.796C13.0039 16.349 12.5569 16.796 12.0039 16.796Z" fill="black"/>
</g>
</g>
</svg>
