<svg width="24" height="24" viewBox="0 0 24 24" fill="none" xmlns="http://www.w3.org/2000/svg">
<g id="Iconly/Regular/Outline/Wallet">
<g id="Wallet">
<path id="Fill 1" fill-rule="evenodd" clip-rule="evenodd" d="M21.8887 15.8957H17.8407C15.9437 15.8957 14.3997 14.3527 14.3987 12.4567C14.3987 10.5587 15.9427 9.01467 17.8407 9.01367H21.8887C22.3027 9.01367 22.6387 9.34967 22.6387 9.76367C22.6387 10.1777 22.3027 10.5137 21.8887 10.5137H17.8407C16.7697 10.5147 15.8987 11.3857 15.8987 12.4557C15.8987 13.5247 16.7707 14.3957 17.8407 14.3957H21.8887C22.3027 14.3957 22.6387 14.7317 22.6387 15.1457C22.6387 15.5597 22.3027 15.8957 21.8887 15.8957Z" fill="black"/>
<path id="Fill 3" fill-rule="evenodd" clip-rule="evenodd" d="M18.2983 13.1437H17.9863C17.5723 13.1437 17.2363 12.8077 17.2363 12.3937C17.2363 11.9797 17.5723 11.6437 17.9863 11.6437H18.2983C18.7123 11.6437 19.0483 11.9797 19.0483 12.3937C19.0483 12.8077 18.7123 13.1437 18.2983 13.1437Z" fill="black"/>
<g id="Group 7">
<mask id="mask0_33437_4328" style="mask-type:luminance" maskUnits="userSpaceOnUse" x="2" y="3" width="21" height="20">
<path id="Clip 6" fill-rule="evenodd" clip-rule="evenodd" d="M2 3.00012H22.6386V22.173H2V3.00012Z" fill="white"/>
</mask>
<g mask="url(#mask0_33437_4328)">
<path id="Fill 5" fill-rule="evenodd" clip-rule="evenodd" d="M7.99751 4.50012C5.51751 4.50012 3.49951 6.51812 3.49951 8.99812V16.1751C3.49951 18.6551 5.51751 20.6731 7.99751 20.6731H16.6415C19.1215 20.6731 21.1385 18.6551 21.1385 16.1751V8.99812C21.1385 6.51812 19.1215 4.50012 16.6415 4.50012H7.99751ZM16.6415 22.1731H7.99751C4.69051 22.1731 1.99951 19.4821 1.99951 16.1751V8.99812C1.99951 5.69012 4.69051 3.00012 7.99751 3.00012H16.6415C19.9485 3.00012 22.6385 5.69012 22.6385 8.99812V16.1751C22.6385 19.4821 19.9485 22.1731 16.6415 22.1731Z" fill="black"/>
</g>
</g>
<path id="Fill 8" fill-rule="evenodd" clip-rule="evenodd" d="M12.6846 9.03821H7.28564C6.87164 9.03821 6.53564 8.70221 6.53564 8.28821C6.53564 7.87421 6.87164 7.53821 7.28564 7.53821H12.6846C13.0986 7.53821 13.4346 7.87421 13.4346 8.28821C13.4346 8.70221 13.0986 9.03821 12.6846 9.03821Z" fill="black"/>
</g>
</g>
</svg>
