<svg width="24" height="24" viewBox="0 0 24 24" fill="none" xmlns="http://www.w3.org/2000/svg">
<g id="Iconly/Regular/Outline/Chat">
<g id="Chat">
<g id="Group 3">
<mask id="mask0_33437_4384" style="mask-type:luminance" maskUnits="userSpaceOnUse" x="1" y="1" width="22" height="22">
<path id="Clip 2" fill-rule="evenodd" clip-rule="evenodd" d="M1 1.00037H22.493V22.4942H1V1.00037Z" fill="white"/>
</mask>
<g mask="url(#mask0_33437_4384)">
<path id="Fill 1" fill-rule="evenodd" clip-rule="evenodd" d="M6.10844 19.6754C6.68844 19.6754 7.23544 19.8954 7.81444 20.1284C11.3614 21.7684 15.5564 21.0224 18.2894 18.2904C21.8954 14.6824 21.8954 8.81337 18.2894 5.20737C16.5434 3.46137 14.2214 2.50037 11.7494 2.50037C9.27644 2.50037 6.95344 3.46237 5.20844 5.20837C2.47444 7.94037 1.73044 12.1354 3.35544 15.6484C3.58944 16.2274 3.81544 16.7914 3.81544 17.3774C3.81544 17.9624 3.61444 18.5514 3.43744 19.0714C3.29144 19.4994 3.07044 20.1454 3.21244 20.2874C3.35144 20.4314 4.00144 20.2044 4.43044 20.0574C4.94544 19.8814 5.52944 19.6794 6.10844 19.6754ZM11.7244 22.4944C10.1964 22.4944 8.65844 22.1714 7.21944 21.5054C6.79544 21.3354 6.39844 21.1754 6.11344 21.1754C5.78544 21.1774 5.34444 21.3294 4.91844 21.4764C4.04444 21.7764 2.95644 22.1504 2.15144 21.3484C1.34944 20.5454 1.71944 19.4604 2.01744 18.5874C2.16444 18.1574 2.31544 17.7134 2.31544 17.3774C2.31544 17.1014 2.18244 16.7494 1.97844 16.2424C0.105437 12.1974 0.971437 7.32237 4.14844 4.14737C6.17644 2.11837 8.87544 1.00037 11.7484 1.00037C14.6214 1.00037 17.3214 2.11737 19.3494 4.14637C23.5414 8.33837 23.5414 15.1584 19.3494 19.3504C17.2944 21.4064 14.5274 22.4944 11.7244 22.4944Z" fill="black"/>
</g>
</g>
<path id="Fill 4" fill-rule="evenodd" clip-rule="evenodd" d="M15.6964 13.1631C15.1444 13.1631 14.6924 12.7161 14.6924 12.1631C14.6924 11.6101 15.1354 11.1631 15.6874 11.1631H15.6964C16.2484 11.1631 16.6964 11.6101 16.6964 12.1631C16.6964 12.7161 16.2484 13.1631 15.6964 13.1631Z" fill="black"/>
<path id="Fill 6" fill-rule="evenodd" clip-rule="evenodd" d="M11.6876 13.1631C11.1356 13.1631 10.6836 12.7161 10.6836 12.1631C10.6836 11.6101 11.1256 11.1631 11.6786 11.1631H11.6876C12.2396 11.1631 12.6876 11.6101 12.6876 12.1631C12.6876 12.7161 12.2396 13.1631 11.6876 13.1631Z" fill="black"/>
<path id="Fill 8" fill-rule="evenodd" clip-rule="evenodd" d="M7.67832 13.1631C7.12632 13.1631 6.67432 12.7161 6.67432 12.1631C6.67432 11.6101 7.11732 11.1631 7.66932 11.1631H7.67832C8.23032 11.1631 8.67832 11.6101 8.67832 12.1631C8.67832 12.7161 8.23032 13.1631 7.67832 13.1631Z" fill="black"/>
</g>
</g>
</svg>
