<svg width="24" height="24" viewBox="0 0 24 24" fill="none" xmlns="http://www.w3.org/2000/svg">
<g id="Iconly/Regular/Bulk/Danger">
<g id="Group">
<path id="Fill 5" opacity="0.4" d="M4.72276 21.1674C4.70976 21.1674 4.69776 21.1674 4.68376 21.1664C4.36876 21.1504 4.05976 21.0824 3.76576 20.9634C2.31876 20.3754 1.62076 18.7224 2.20776 17.2764L9.52876 4.45043C9.78076 3.99443 10.1628 3.61243 10.6288 3.35443C11.9938 2.59843 13.7198 3.09543 14.4748 4.45943L21.7478 17.1874C21.9098 17.5684 21.9788 17.8784 21.9958 18.1944C22.0348 18.9504 21.7768 19.6754 21.2708 20.2364C20.7648 20.7974 20.0698 21.1284 19.3148 21.1664L4.79476 21.1674H4.72276Z" fill="black"/>
<path id="Combined Shape" fill-rule="evenodd" clip-rule="evenodd" d="M11.1245 10.0209C11.1245 9.53894 11.5175 9.14594 11.9995 9.14594C12.4815 9.14594 12.8745 9.53894 12.8745 10.0209V12.8489C12.8745 13.3319 12.4815 13.7239 11.9995 13.7239C11.5175 13.7239 11.1245 13.3319 11.1245 12.8489V10.0209ZM11.1245 16.27C11.1245 15.785 11.5175 15.39 11.9995 15.39C12.4815 15.39 12.8745 15.78 12.8745 16.259C12.8745 16.752 12.4815 17.145 11.9995 17.145C11.5175 17.145 11.1245 16.752 11.1245 16.27Z" fill="black"/>
</g>
</g>
</svg>
