<svg width="24" height="24" viewBox="0 0 24 24" fill="none" xmlns="http://www.w3.org/2000/svg">
<g id="Iconly/Curved/Light/Image 2">
<g id="Image 2">
<path id="Stroke 1" fill-rule="evenodd" clip-rule="evenodd" d="M2.75 12.0002C2.75 18.9372 5.063 21.2502 12 21.2502C18.937 21.2502 21.25 18.9372 21.25 12.0002C21.25 5.06324 18.937 2.75024 12 2.75024C5.063 2.75024 2.75 5.06324 2.75 12.0002Z" stroke="black" stroke-width="1.5" stroke-linecap="round" stroke-linejoin="round"/>
<path id="Stroke 3" fill-rule="evenodd" clip-rule="evenodd" d="M10.5987 8.78432C10.5987 9.75732 9.81066 10.5453 8.83766 10.5453C7.86566 10.5453 7.07666 9.75732 7.07666 8.78432C7.07666 7.81132 7.86566 7.02332 8.83766 7.02332C9.81066 7.02332 10.5987 7.81132 10.5987 8.78432Z" stroke="black" stroke-width="1.5" stroke-linecap="round" stroke-linejoin="round"/>
<path id="Stroke 5" d="M21.1201 14.6667C20.2391 13.7607 18.9931 11.9297 16.7041 11.9297C14.4151 11.9297 14.3651 15.9677 12.0291 15.9677C9.69206 15.9677 8.75106 14.5967 7.22806 15.3127C5.70606 16.0277 4.46606 18.8737 4.46606 18.8737" stroke="black" stroke-width="1.5" stroke-linecap="round" stroke-linejoin="round"/>
</g>
</g>
</svg>
