<svg width="24" height="24" viewBox="0 0 24 24" fill="none" xmlns="http://www.w3.org/2000/svg">
<g id="Iconly/Regular/Outline/Shield Done">
<g id="Shield Done">
<g id="Group 3">
<mask id="mask0_33437_4720" style="mask-type:luminance" maskUnits="userSpaceOnUse" x="4" y="2" width="17" height="21">
<path id="Clip 2" fill-rule="evenodd" clip-rule="evenodd" d="M4.00024 2.00049H20.9671V22.3561H4.00024V2.00049Z" fill="white"/>
</mask>
<g mask="url(#mask0_33437_4720)">
<path id="Fill 1" fill-rule="evenodd" clip-rule="evenodd" d="M12.4837 3.50012C11.6357 3.50012 6.28566 5.38412 5.66866 5.89912C5.48666 6.08212 5.47966 6.40012 5.51866 8.52912C5.53666 9.55512 5.56166 10.9491 5.56166 12.8791C5.56166 18.0801 11.2837 20.3891 12.4827 20.8141C13.6807 20.3871 19.4057 18.0651 19.4057 12.8791C19.4057 10.9471 19.4307 9.55212 19.4497 8.52612C19.4877 6.39912 19.4807 6.08112 19.2877 5.88912C18.6827 5.38412 13.3317 3.50012 12.4837 3.50012ZM12.4837 22.3561C12.4107 22.3561 12.3377 22.3461 12.2667 22.3241C11.9317 22.2231 4.06166 19.7611 4.06166 12.8791C4.06166 10.9621 4.03666 9.57512 4.01866 8.55712C3.97266 6.01412 3.96266 5.48412 4.61966 4.82812C5.40466 4.04112 11.3497 2.00012 12.4837 2.00012C13.6167 2.00012 19.5617 4.04112 20.3487 4.82812C21.0047 5.48412 20.9947 6.01412 20.9487 8.55412C20.9307 9.57212 20.9057 10.9591 20.9057 12.8791C20.9057 19.7611 13.0357 22.2231 12.7007 22.3241C12.6297 22.3461 12.5567 22.3561 12.4837 22.3561Z" fill="black"/>
</g>
</g>
<path id="Fill 4" fill-rule="evenodd" clip-rule="evenodd" d="M11.7771 14.5196C11.5781 14.5196 11.3871 14.4406 11.2461 14.2996L9.35413 12.4056C9.06213 12.1126 9.06213 11.6366 9.35513 11.3446C9.64713 11.0516 10.1231 11.0516 10.4161 11.3446L11.7771 12.7076L15.1451 9.33962C15.4381 9.04662 15.9121 9.04662 16.2051 9.33962C16.4981 9.63262 16.4981 10.1076 16.2051 10.4006L12.3071 14.2996C12.1671 14.4406 11.9761 14.5196 11.7771 14.5196Z" fill="black"/>
</g>
</g>
</svg>
