<svg width="24" height="24" viewBox="0 0 24 24" fill="none" xmlns="http://www.w3.org/2000/svg">
<g id="Iconly/Regular/Outline/Arrow - Up Circle">
<g id="Arrow - Up Circle">
<path id="Fill 1" fill-rule="evenodd" clip-rule="evenodd" d="M12 3.50012C7.313 3.50012 3.5 7.31312 3.5 12.0001C3.5 16.6871 7.313 20.5001 12 20.5001C16.687 20.5001 20.5 16.6871 20.5 12.0001C20.5 7.31312 16.687 3.50012 12 3.50012ZM12 22.0001C6.486 22.0001 2 17.5141 2 12.0001C2 6.48612 6.486 2.00012 12 2.00012C17.514 2.00012 22 6.48612 22 12.0001C22 17.5141 17.514 22.0001 12 22.0001Z" fill="black"/>
<path id="Fill 3" fill-rule="evenodd" clip-rule="evenodd" d="M15.4717 14.1925C15.2797 14.1925 15.0867 14.1195 14.9407 13.9715L11.9997 11.0185L9.06068 13.9715C8.76868 14.2655 8.29368 14.2655 7.99968 13.9735C7.70668 13.6815 7.70468 13.2075 7.99768 12.9135L11.4687 9.42648C11.7497 9.14348 12.2497 9.14348 12.5317 9.42648L16.0027 12.9135C16.2947 13.2075 16.2937 13.6815 16.0007 13.9735C15.8547 14.1195 15.6627 14.1925 15.4717 14.1925Z" fill="black"/>
</g>
</g>
</svg>
