<svg width="24" height="24" viewBox="0 0 24 24" fill="none" xmlns="http://www.w3.org/2000/svg">
<g id="Iconly/Regular/Bulk/More Square">
<path id="Fill 1" opacity="0.4" d="M16.3401 1.99992H7.67012C4.28012 1.99992 2.00012 4.37992 2.00012 7.91992V16.0899C2.00012 19.6199 4.28012 21.9999 7.67012 21.9999H16.3401C19.7301 21.9999 22.0001 19.6199 22.0001 16.0899V7.91992C22.0001 4.37992 19.7301 1.99992 16.3401 1.99992Z" fill="black"/>
<path id="Combined Shape" fill-rule="evenodd" clip-rule="evenodd" d="M7.52124 10.8036C6.86024 10.8036 6.32324 11.3406 6.32324 11.9996C6.32324 12.6596 6.86024 13.1976 7.52124 13.1976C8.18224 13.1976 8.71924 12.6596 8.71924 11.9996C8.71924 11.3406 8.18224 10.8036 7.52124 10.8036ZM12.0002 10.8036C11.3392 10.8036 10.8022 11.3406 10.8022 11.9996C10.8022 12.6596 11.3392 13.1976 12.0002 13.1976C12.6612 13.1976 13.1982 12.6596 13.1982 11.9996C13.1982 11.3406 12.6612 10.8036 12.0002 10.8036ZM15.2817 11.9996C15.2817 11.3406 15.8187 10.8036 16.4797 10.8036C17.1407 10.8036 17.6777 11.3406 17.6777 11.9996C17.6777 12.6596 17.1407 13.1976 16.4797 13.1976C15.8187 13.1976 15.2817 12.6596 15.2817 11.9996Z" fill="black"/>
</g>
</svg>
