<svg width="24" height="24" viewBox="0 0 24 24" fill="none" xmlns="http://www.w3.org/2000/svg">
<g id="Iconly/Regular/Outline/Arrow - Left 3">
<g id="Arrow - Left 3">
<path id="Fill 1" fill-rule="evenodd" clip-rule="evenodd" d="M12.2998 13.5005H21.2498C21.6638 13.5005 21.9998 13.1645 21.9998 12.7505C21.9998 12.3365 21.6638 12.0005 21.2498 12.0005H12.2998C11.8858 12.0005 11.5498 12.3365 11.5498 12.7505C11.5498 13.1645 11.8858 13.5005 12.2998 13.5005Z" fill="black"/>
<g id="Group 5">
<mask id="mask0_33437_5123" style="mask-type:luminance" maskUnits="userSpaceOnUse" x="3" y="7" width="11" height="12">
<path id="Clip 4" fill-rule="evenodd" clip-rule="evenodd" d="M13.0498 7.00049H3.6128V18.5015H13.0498V7.00049Z" fill="white"/>
</mask>
<g mask="url(#mask0_33437_5123)">
<path id="Fill 3" fill-rule="evenodd" clip-rule="evenodd" d="M11.5498 9.10893V16.3919L5.7698 12.7509L11.5498 9.10893ZM12.2998 18.5019C12.4248 18.5019 12.5488 18.4699 12.6618 18.4079C12.9018 18.2759 13.0498 18.0249 13.0498 17.7519V7.74993C13.0498 7.47593 12.9018 7.22493 12.6618 7.09293C12.4228 6.96193 12.1298 6.96993 11.9008 7.11493L3.9628 12.1159C3.7438 12.2539 3.6128 12.4929 3.6128 12.7509C3.6128 13.0079 3.7438 13.2479 3.9628 13.3849L11.9008 18.3859C12.0218 18.4629 12.1608 18.5019 12.2998 18.5019Z" fill="black"/>
</g>
</g>
</g>
</g>
</svg>
