<svg width="24" height="24" viewBox="0 0 24 24" fill="none" xmlns="http://www.w3.org/2000/svg">
<g id="Iconly/Regular/Outline/Buy">
<g id="Buy">
<g id="Group 7">
<path id="Fill 1" fill-rule="evenodd" clip-rule="evenodd" d="M6.32772 8.34749L6.93072 15.5195C6.97472 16.0715 7.42572 16.4855 7.97672 16.4855H7.98072H18.8917H18.8937C19.4147 16.4855 19.8597 16.0975 19.9337 15.5825L20.8837 9.02349C20.9057 8.86749 20.8667 8.71149 20.7717 8.58549C20.6777 8.45849 20.5397 8.37649 20.3837 8.35449C20.1747 8.36249 11.5017 8.35049 6.32772 8.34749ZM7.97472 17.9855C6.65772 17.9855 5.54272 16.9575 5.43572 15.6425L4.51972 4.74849L3.01272 4.48849C2.60372 4.41649 2.33072 4.02949 2.40072 3.62049C2.47272 3.21149 2.86772 2.94549 3.26772 3.00949L5.34772 3.36949C5.68272 3.42849 5.93772 3.70649 5.96672 4.04649L6.20172 6.84749C20.4777 6.85349 20.5237 6.86049 20.5927 6.86849C21.1497 6.94949 21.6397 7.24049 21.9737 7.68849C22.3077 8.13549 22.4477 8.68649 22.3677 9.23849L21.4187 15.7965C21.2397 17.0445 20.1557 17.9855 18.8957 17.9855H18.8907H7.98272H7.97472Z" fill="black"/>
<path id="Fill 3" fill-rule="evenodd" clip-rule="evenodd" d="M17.2876 12.0438H14.5156C14.1006 12.0438 13.7656 11.7078 13.7656 11.2938C13.7656 10.8798 14.1006 10.5438 14.5156 10.5438H17.2876C17.7016 10.5438 18.0376 10.8798 18.0376 11.2938C18.0376 11.7078 17.7016 12.0438 17.2876 12.0438Z" fill="black"/>
<path id="Fill 5" fill-rule="evenodd" clip-rule="evenodd" d="M7.54451 20.702C7.84551 20.702 8.08851 20.945 8.08851 21.246C8.08851 21.547 7.84551 21.791 7.54451 21.791C7.24251 21.791 6.99951 21.547 6.99951 21.246C6.99951 20.945 7.24251 20.702 7.54451 20.702Z" fill="black"/>
</g>
<g id="Group 10">
<mask id="mask0_33437_4502" style="mask-type:luminance" maskUnits="userSpaceOnUse" x="6" y="20" width="3" height="2">
<path id="Clip 9" fill-rule="evenodd" clip-rule="evenodd" d="M6.99902 21.2455C6.99902 21.5475 7.24202 21.7915 7.54502 21.7915C7.84602 21.7915 8.08902 21.5475 8.08902 21.2455C8.08902 20.9445 7.84602 20.7015 7.54502 20.7015C7.24202 20.7015 6.99902 20.9445 6.99902 21.2455Z" fill="white"/>
</mask>
<g mask="url(#mask0_33437_4502)">
<path id="Fill 8" fill-rule="evenodd" clip-rule="evenodd" d="M2 26.7905H13.089V15.7015H2V26.7905Z" fill="black"/>
</g>
</g>
<g id="Group 15">
<path id="Fill 11" fill-rule="evenodd" clip-rule="evenodd" d="M7.54351 21.0409C7.43051 21.0409 7.33851 21.1329 7.33851 21.2459C7.33851 21.4729 7.74951 21.4729 7.74951 21.2459C7.74951 21.1329 7.65651 21.0409 7.54351 21.0409ZM7.54351 22.5409C6.82951 22.5409 6.24951 21.9599 6.24951 21.2459C6.24951 20.5319 6.82951 19.9519 7.54351 19.9519C8.25751 19.9519 8.83851 20.5319 8.83851 21.2459C8.83851 21.9599 8.25751 22.5409 7.54351 22.5409Z" fill="black"/>
<path id="Fill 13" fill-rule="evenodd" clip-rule="evenodd" d="M18.8248 20.702C19.1258 20.702 19.3698 20.945 19.3698 21.246C19.3698 21.547 19.1258 21.791 18.8248 21.791C18.5228 21.791 18.2798 21.547 18.2798 21.246C18.2798 20.945 18.5228 20.702 18.8248 20.702Z" fill="black"/>
</g>
<g id="Group 18">
<mask id="mask1_33437_4502" style="mask-type:luminance" maskUnits="userSpaceOnUse" x="18" y="20" width="2" height="2">
<path id="Clip 17" fill-rule="evenodd" clip-rule="evenodd" d="M18.28 21.2455C18.28 21.5475 18.523 21.7915 18.825 21.7915C19.125 21.7915 19.37 21.5475 19.37 21.2455C19.37 20.9445 19.125 20.7015 18.825 20.7015C18.523 20.7015 18.28 20.9445 18.28 21.2455Z" fill="white"/>
</mask>
<g mask="url(#mask1_33437_4502)">
<path id="Fill 16" fill-rule="evenodd" clip-rule="evenodd" d="M13.28 26.7905H24.37V15.7015H13.28V26.7905Z" fill="black"/>
</g>
</g>
<path id="Fill 19" fill-rule="evenodd" clip-rule="evenodd" d="M18.8238 21.0409C18.7118 21.0409 18.6198 21.1329 18.6198 21.2459C18.6208 21.4749 19.0308 21.4729 19.0298 21.2459C19.0298 21.1329 18.9368 21.0409 18.8238 21.0409ZM18.8238 22.5409C18.1098 22.5409 17.5298 21.9599 17.5298 21.2459C17.5298 20.5319 18.1098 19.9519 18.8238 19.9519C19.5388 19.9519 20.1198 20.5319 20.1198 21.2459C20.1198 21.9599 19.5388 22.5409 18.8238 22.5409Z" fill="black"/>
</g>
</g>
</svg>
