<svg width="24" height="24" viewBox="0 0 24 24" fill="none" xmlns="http://www.w3.org/2000/svg">
<g id="Iconly/Regular/Outline/Voice 3">
<g id="Voice 2">
<path id="Fill 1" fill-rule="evenodd" clip-rule="evenodd" d="M11.75 22.5001C11.336 22.5001 11 22.1641 11 21.7501V18.5891C11 18.1751 11.336 17.8391 11.75 17.8391C12.164 17.8391 12.5 18.1751 12.5 18.5891V21.7501C12.5 22.1641 12.164 22.5001 11.75 22.5001Z" fill="black"/>
<path id="Fill 3" fill-rule="evenodd" clip-rule="evenodd" d="M11.75 2.50012C9.92399 2.50012 8.43799 3.99412 8.43799 5.83112V10.5191C8.43799 12.3541 9.92399 13.8491 11.75 13.8491C13.576 13.8491 15.061 12.3541 15.061 10.5191V5.83112C15.061 3.99412 13.576 2.50012 11.75 2.50012ZM11.75 15.3491C9.09699 15.3491 6.93799 13.1821 6.93799 10.5191V5.83112C6.93799 3.16712 9.09699 1.00012 11.75 1.00012C14.403 1.00012 16.561 3.16712 16.561 5.83112V10.5191C16.561 13.1821 14.403 15.3491 11.75 15.3491Z" fill="black"/>
<path id="Fill 5" fill-rule="evenodd" clip-rule="evenodd" d="M11.75 19.339C6.925 19.339 3 15.397 3 10.551C3 10.137 3.336 9.80103 3.75 9.80103C4.164 9.80103 4.5 10.137 4.5 10.551C4.5 14.569 7.752 17.839 11.75 17.839C15.748 17.839 19 14.569 19 10.551C19 10.137 19.336 9.80103 19.75 9.80103C20.164 9.80103 20.5 10.137 20.5 10.551C20.5 15.397 16.575 19.339 11.75 19.339Z" fill="black"/>
<path id="Fill 7" fill-rule="evenodd" clip-rule="evenodd" d="M15.8086 7.25598H13.8186C13.4046 7.25598 13.0686 6.91998 13.0686 6.50598C13.0686 6.09198 13.4046 5.75598 13.8186 5.75598H15.8086C16.2226 5.75598 16.5586 6.09198 16.5586 6.50598C16.5586 6.91998 16.2226 7.25598 15.8086 7.25598Z" fill="black"/>
<path id="Fill 9" fill-rule="evenodd" clip-rule="evenodd" d="M15.8106 10.5939H12.8206C12.4066 10.5939 12.0706 10.2579 12.0706 9.84387C12.0706 9.42987 12.4066 9.09387 12.8206 9.09387H15.8106C16.2246 9.09387 16.5606 9.42987 16.5606 9.84387C16.5606 10.2579 16.2246 10.5939 15.8106 10.5939Z" fill="black"/>
</g>
</g>
</svg>
