<svg width="24" height="24" viewBox="0 0 24 24" fill="none" xmlns="http://www.w3.org/2000/svg">
<g id="Iconly/Regular/Bulk/Wallet">
<g id="Wallet">
<path id="Fill 1" fill-rule="evenodd" clip-rule="evenodd" d="M21.9964 8.37525H17.7618C15.7911 8.37872 14.1947 9.93527 14.1911 11.8567C14.1884 13.7824 15.7867 15.3459 17.7618 15.3485H22V15.6545C22 19.0137 19.9636 21.0001 16.5173 21.0001H7.48356C4.03644 21.0001 2 19.0137 2 15.6545V8.33798C2 4.97874 4.03644 3.00012 7.48356 3.00012H16.5138C19.96 3.00012 21.9964 4.97874 21.9964 8.33798V8.37525ZM6.73956 8.36745H12.3796H12.3831H12.3902C12.8124 8.36572 13.1538 8.03031 13.152 7.61777C13.1502 7.2061 12.8053 6.8733 12.3831 6.87503H6.73956C6.32 6.87677 5.97956 7.2087 5.97778 7.61864C5.976 8.03031 6.31733 8.36572 6.73956 8.36745Z" fill="black"/>
<path id="Fill 4" opacity="0.4" d="M16.0374 12.2968C16.2465 13.248 17.0805 13.9172 18.0326 13.8998H21.2825C21.6787 13.8998 22 13.5717 22 13.1662V10.6346C21.9991 10.2299 21.6787 9.90099 21.2825 9.90012H17.9561C16.8731 9.9036 15.9983 10.8026 16 11.9104C16 12.0401 16.0128 12.1697 16.0374 12.2968Z" fill="black"/>
<circle id="Oval" cx="18" cy="11.9001" r="1" fill="black"/>
</g>
</g>
</svg>
