<svg width="24" height="24" viewBox="0 0 24 24" fill="none" xmlns="http://www.w3.org/2000/svg">
<g id="Iconly/Regular/Bulk/Chat">
<g id="Chat">
<path id="Fill 1" opacity="0.4" d="M12.02 2.00012C6.21 2.00012 2 6.74012 2 12.0001C2 13.6801 2.49 15.4101 3.35 16.9901C3.51 17.2501 3.53 17.5801 3.42 17.8901L2.75 20.1301C2.6 20.6701 3.06 21.0701 3.57 20.9101L5.59 20.3101C6.14 20.1301 6.57 20.3601 7.081 20.6701C8.541 21.5301 10.36 21.9701 12 21.9701C16.96 21.9701 22 18.1401 22 11.9701C22 6.65012 17.7 2.00012 12.02 2.00012Z" fill="black"/>
<path id="Combined Shape" fill-rule="evenodd" clip-rule="evenodd" d="M11.9805 13.2902C11.2705 13.2802 10.7005 12.7102 10.7005 12.0002C10.7005 11.3002 11.2805 10.7202 11.9805 10.7302C12.6905 10.7302 13.2605 11.3002 13.2605 12.0102C13.2605 12.7102 12.6905 13.2902 11.9805 13.2902ZM7.37009 13.2902C6.67009 13.2902 6.09009 12.7102 6.09009 12.0102C6.09009 11.3002 6.66009 10.7302 7.37009 10.7302C8.08009 10.7302 8.65009 11.3002 8.65009 12.0102C8.65009 12.7102 8.08009 13.2802 7.37009 13.2902ZM15.3103 12.0102C15.3103 12.7102 15.8803 13.2902 16.5903 13.2902C17.3003 13.2902 17.8703 12.7102 17.8703 12.0102C17.8703 11.3002 17.3003 10.7302 16.5903 10.7302C15.8803 10.7302 15.3103 11.3002 15.3103 12.0102Z" fill="black"/>
</g>
</g>
</svg>
