<svg width="24" height="24" viewBox="0 0 24 24" fill="none" xmlns="http://www.w3.org/2000/svg">
<g id="Iconly/Regular/Outline/Paper Fail">
<g id="Paper Fail">
<g id="Group 3">
<mask id="mask0_33437_4591" style="mask-type:luminance" maskUnits="userSpaceOnUse" x="3" y="2" width="18" height="20">
<path id="Clip 2" fill-rule="evenodd" clip-rule="evenodd" d="M3 2.01184H20.0515V21.8668H3V2.01184Z" fill="white"/>
</mask>
<g mask="url(#mask0_33437_4591)">
<path id="Fill 1" fill-rule="evenodd" clip-rule="evenodd" d="M7.47851 3.51184C5.83551 3.51184 4.49951 4.84884 4.49951 6.49084V17.3398C4.50451 18.1508 4.82651 18.9148 5.40551 19.4878C5.98351 20.0588 6.78051 20.3868 7.56651 20.3668C7.57351 20.3668 7.68351 20.3658 7.68951 20.3658H15.5725C17.2145 20.3478 18.5545 18.9908 18.5515 17.3408V8.34184L13.9165 3.51184H7.47851ZM7.54251 21.8668C6.34251 21.8668 5.20751 21.4018 4.35051 20.5538C3.48651 19.6998 3.00651 18.5598 2.99951 17.3438V6.49084C2.99951 4.02184 5.00851 2.01184 7.47851 2.01184H14.2365C14.4405 2.01184 14.6355 2.09484 14.7775 2.24184L19.8425 7.52084C19.9765 7.65984 20.0515 7.84684 20.0515 8.03984V17.3398C20.0565 19.8088 18.0505 21.8398 15.5805 21.8658L7.57151 21.8668H7.54251Z" fill="black"/>
</g>
</g>
<path id="Fill 4" fill-rule="evenodd" clip-rule="evenodd" d="M19.2969 8.98449H16.5409C14.7109 8.97949 13.2239 7.48749 13.2239 5.65949V2.75049C13.2239 2.33649 13.5599 2.00049 13.9739 2.00049C14.3879 2.00049 14.7239 2.33649 14.7239 2.75049V5.65949C14.7239 6.66349 15.5399 7.48149 16.5429 7.48449H19.2969C19.7109 7.48449 20.0469 7.82049 20.0469 8.23449C20.0469 8.64849 19.7109 8.98449 19.2969 8.98449Z" fill="black"/>
<path id="Fill 6" fill-rule="evenodd" clip-rule="evenodd" d="M13.0752 15.3986C12.8832 15.3986 12.6912 15.3256 12.5452 15.1786L9.07925 11.7126C8.78625 11.4196 8.78625 10.9456 9.07925 10.6526C9.37225 10.3596 9.84625 10.3596 10.1392 10.6526L13.6052 14.1186C13.8982 14.4116 13.8982 14.8856 13.6052 15.1786C13.4592 15.3256 13.2672 15.3986 13.0752 15.3986Z" fill="black"/>
<path id="Fill 8" fill-rule="evenodd" clip-rule="evenodd" d="M9.61035 15.3986C9.41835 15.3986 9.22635 15.3256 9.08035 15.1786C8.78735 14.8856 8.78735 14.4116 9.08035 14.1186L12.5463 10.6526C12.8393 10.3596 13.3133 10.3596 13.6063 10.6526C13.8993 10.9456 13.8993 11.4196 13.6063 11.7126L10.1403 15.1786C9.99435 15.3256 9.80235 15.3986 9.61035 15.3986Z" fill="black"/>
</g>
</g>
</svg>
