<svg width="24" height="24" viewBox="0 0 24 24" fill="none" xmlns="http://www.w3.org/2000/svg">
<g id="Iconly/Regular/Bulk/Add User">
<g id="Add User">
<path id="Fill 1" opacity="0.4" d="M21.101 9.58798H19.8979V8.41174C19.8979 7.90957 19.4952 7.50012 18.999 7.50012C18.5038 7.50012 18.1 7.90957 18.1 8.41174V9.58798H16.899C16.4027 9.58798 16 9.99743 16 10.4996C16 11.0018 16.4027 11.4112 16.899 11.4112H18.1V12.5885C18.1 13.0907 18.5038 13.5001 18.999 13.5001C19.4952 13.5001 19.8979 13.0907 19.8979 12.5885V11.4112H21.101C21.5962 11.4112 22 11.0018 22 10.4996C22 9.99743 21.5962 9.58798 21.101 9.58798Z" fill="black"/>
<path id="Fill 4" d="M9.5 15.0156C5.45422 15.0156 2 15.6625 2 18.2467C2 20.83 5.4332 21.5001 9.5 21.5001C13.5448 21.5001 17 20.8533 17 18.269C17 15.6848 13.5668 15.0156 9.5 15.0156Z" fill="black"/>
<path id="Fill 7" opacity="0.4" d="M9.49999 12.5543C12.2546 12.5543 14.4626 10.3178 14.4626 7.52774C14.4626 4.73766 12.2546 2.50012 9.49999 2.50012C6.74541 2.50012 4.53735 4.73766 4.53735 7.52774C4.53735 10.3178 6.74541 12.5543 9.49999 12.5543Z" fill="black"/>
</g>
</g>
</svg>
