<svg width="24" height="24" viewBox="0 0 24 24" fill="none" xmlns="http://www.w3.org/2000/svg">
<g id="Iconly/Regular/Bulk/Paper">
<g id="Paper">
<path id="Fill 3" opacity="0.4" d="M18.8088 9.02112C18.3573 9.02112 17.7592 9.01112 17.0146 9.01112C15.1987 9.01112 13.7055 7.50812 13.7055 5.67512V2.45912C13.7055 2.20612 13.5036 2.00012 13.253 2.00012H7.96363C5.49517 2.00012 3.5 4.02612 3.5 6.50912V17.2841C3.5 19.8891 5.59022 22.0001 8.16958 22.0001H16.0463C18.5058 22.0001 20.5 19.9871 20.5 17.5021V9.47112C20.5 9.21712 20.299 9.01212 20.0475 9.01312C19.6247 9.01612 19.1177 9.02112 18.8088 9.02112Z" fill="black"/>
<path id="Fill 1" opacity="0.4" d="M16.0839 2.56743C15.7849 2.25643 15.2629 2.47043 15.2629 2.90143V5.53843C15.2629 6.64443 16.1739 7.55443 17.2799 7.55443C17.9769 7.56243 18.9449 7.56443 19.7669 7.56243C20.1879 7.56143 20.4019 7.05843 20.1099 6.75443C19.0549 5.65743 17.1659 3.69143 16.0839 2.56743Z" fill="black"/>
<path id="Combined Shape" fill-rule="evenodd" clip-rule="evenodd" d="M8.97386 11.3877H12.3589C12.7699 11.3877 13.1039 11.0547 13.1039 10.6437C13.1039 10.2327 12.7699 9.89871 12.3589 9.89871H8.97386C8.56286 9.89871 8.22986 10.2327 8.22986 10.6437C8.22986 11.0547 8.56286 11.3877 8.97386 11.3877ZM8.97396 16.3819H14.418C14.829 16.3819 15.163 16.0489 15.163 15.6379C15.163 15.2269 14.829 14.8929 14.418 14.8929H8.97396C8.56296 14.8929 8.22996 15.2269 8.22996 15.6379C8.22996 16.0489 8.56296 16.3819 8.97396 16.3819Z" fill="black"/>
</g>
</g>
</svg>
