<svg width="24" height="24" viewBox="0 0 24 24" fill="none" xmlns="http://www.w3.org/2000/svg">
<g id="Iconly/Regular/Bulk/Close Square">
<g id="Group">
<path id="Fill 1" opacity="0.4" d="M16.3399 1.99992H7.66988C4.27988 1.99992 1.99988 4.37992 1.99988 7.91992V16.0899C1.99988 19.6199 4.27988 21.9999 7.66988 21.9999H16.3399C19.7299 21.9999 21.9999 19.6199 21.9999 16.0899V7.91992C21.9999 4.37992 19.7299 1.99992 16.3399 1.99992Z" fill="black"/>
<path id="Fill 4" d="M15.0156 13.7704L13.2366 11.9924L15.0146 10.2144C15.3566 9.87342 15.3566 9.31842 15.0146 8.97742C14.6726 8.63342 14.1196 8.63442 13.7776 8.97642L11.9986 10.7544L10.2196 8.97442C9.87758 8.63242 9.32358 8.63442 8.98158 8.97442C8.64058 9.31642 8.64058 9.87142 8.98158 10.2124L10.7616 11.9924L8.98558 13.7674C8.64358 14.1094 8.64358 14.6644 8.98558 15.0044C9.15658 15.1764 9.37958 15.2614 9.60358 15.2614C9.82858 15.2614 10.0516 15.1764 10.2226 15.0054L11.9986 13.2294L13.7786 15.0084C13.9496 15.1794 14.1726 15.2644 14.3966 15.2644C14.6206 15.2644 14.8446 15.1784 15.0156 15.0084C15.3576 14.6664 15.3576 14.1124 15.0156 13.7704Z" fill="black"/>
</g>
</g>
</svg>
