<svg width="24" height="24" viewBox="0 0 24 24" fill="none" xmlns="http://www.w3.org/2000/svg">
<g id="Iconly/Regular/Bulk/Paper Upload">
<g id="Paper Upload">
<path id="Fill 3" opacity="0.4" d="M18.8088 9.02112C18.3573 9.02112 17.7592 9.01112 17.0146 9.01112C15.1987 9.01112 13.7055 7.50812 13.7055 5.67512V2.45912C13.7055 2.20612 13.5026 2.00012 13.253 2.00012H7.96363C5.49517 2.00012 3.5 4.02612 3.5 6.50912V17.2841C3.5 19.8891 5.59022 22.0001 8.16958 22.0001H16.0453C18.5058 22.0001 20.5 19.9871 20.5 17.5021V9.47112C20.5 9.21712 20.298 9.01212 20.0465 9.01312C19.6247 9.01612 19.1168 9.02112 18.8088 9.02112Z" fill="black"/>
<path id="Fill 1" opacity="0.4" d="M16.0842 2.56743C15.7852 2.25643 15.2632 2.47043 15.2632 2.90143V5.53843C15.2632 6.64443 16.1742 7.55443 17.2792 7.55443C17.9772 7.56243 18.9452 7.56443 19.7672 7.56243C20.1882 7.56143 20.4022 7.05843 20.1102 6.75443C19.0552 5.65743 17.1662 3.69143 16.0842 2.56743Z" fill="black"/>
<path id="Fill 6" d="M15.1052 12.8838C14.8142 13.1728 14.3432 13.1748 14.0512 12.8818L12.4622 11.2848V16.1118C12.4622 16.5228 12.1282 16.8568 11.7172 16.8568C11.3062 16.8568 10.9732 16.5228 10.9732 16.1118V11.2848L9.38223 12.8818C9.09223 13.1748 8.62023 13.1728 8.32923 12.8838C8.03823 12.5948 8.03723 12.1228 8.32723 11.8308L11.1892 8.95582C11.1902 8.95482 11.1902 8.95482 11.1902 8.95482C11.2582 8.88682 11.3402 8.83182 11.4302 8.79482C11.5202 8.75682 11.6182 8.73682 11.7172 8.73682C11.8172 8.73682 11.9152 8.75682 12.0052 8.79482C12.0942 8.83182 12.1752 8.88682 12.2432 8.95382C12.2442 8.95482 12.2452 8.95482 12.2452 8.95582L15.1072 11.8308C15.3972 12.1228 15.3972 12.5948 15.1052 12.8838Z" fill="black"/>
</g>
</g>
</svg>
