<svg width="24" height="24" viewBox="0 0 24 24" fill="none" xmlns="http://www.w3.org/2000/svg">
<g id="Iconly/Regular/Bulk/Shield Done">
<g id="Shield Done">
<path id="Fill 1" opacity="0.4" d="M12.0865 22.0001C11.9627 22.0001 11.8388 21.9717 11.7271 21.9138L8.12599 20.0497C7.10415 19.5202 6.30481 18.926 5.68063 18.2337C4.31449 16.7196 3.5544 14.7761 3.54232 12.76L3.50004 6.12438C3.495 5.35854 3.98931 4.67115 4.72826 4.41228L11.3405 2.10691C11.7331 1.96669 12.1711 1.96472 12.5707 2.10005L19.2081 4.32696C19.9511 4.57505 20.4535 5.25754 20.4575 6.0224L20.4998 12.663C20.5129 14.6761 19.779 16.6275 18.434 18.1582C17.8168 18.8603 17.0245 19.4633 16.0128 20.0027L12.4439 21.9089C12.3331 21.9687 12.2103 21.9991 12.0865 22.0001Z" fill="black"/>
<path id="Fill 4" d="M11.3191 14.321C11.1258 14.322 10.9325 14.2524 10.7835 14.1092L8.86671 12.2657C8.57073 11.9794 8.56771 11.5146 8.86067 11.2263C9.15363 10.937 9.63183 10.9341 9.92882 11.2194L11.308 12.5452L14.6756 9.22491C14.9695 8.93564 15.4477 8.9327 15.7437 9.21805C16.0407 9.50438 16.0437 9.97016 15.7508 10.2575L11.8517 14.1024C11.7047 14.2475 11.5124 14.3201 11.3191 14.321Z" fill="black"/>
</g>
</g>
</svg>
