<svg width="24" height="24" viewBox="0 0 24 24" fill="none" xmlns="http://www.w3.org/2000/svg">
<g id="Iconly/Regular/Bulk/Time Square">
<g id="Time Square">
<path id="Fill 3" opacity="0.4" d="M16.34 1.99992H7.67C4.28 1.99992 2 4.37992 2 7.91992V16.0899C2 19.6199 4.28 21.9999 7.67 21.9999H16.34C19.73 21.9999 22 19.6199 22 16.0899V7.91992C22 4.37992 19.73 1.99992 16.34 1.99992Z" fill="black"/>
<path id="Fill 1" d="M15.5734 15.8144C15.4424 15.8144 15.3104 15.7804 15.1894 15.7094L11.2634 13.3674C11.0374 13.2314 10.8984 12.9864 10.8984 12.7224V7.67543C10.8984 7.26143 11.2344 6.92543 11.6484 6.92543C12.0624 6.92543 12.3984 7.26143 12.3984 7.67543V12.2964L15.9584 14.4194C16.3134 14.6324 16.4304 15.0924 16.2184 15.4484C16.0774 15.6834 15.8284 15.8144 15.5734 15.8144Z" fill="black"/>
</g>
</g>
</svg>
