<svg width="24" height="24" viewBox="0 0 24 24" fill="none" xmlns="http://www.w3.org/2000/svg">
<g id="Iconly/Regular/Outline/Game">
<g id="Game">
<path id="Fill 1" fill-rule="evenodd" clip-rule="evenodd" d="M8.59814 16.5597C8.18414 16.5597 7.84814 16.2237 7.84814 15.8097V12.0647C7.84814 11.6507 8.18414 11.3147 8.59814 11.3147C9.01214 11.3147 9.34814 11.6507 9.34814 12.0647V15.8097C9.34814 16.2237 9.01214 16.5597 8.59814 16.5597Z" fill="black"/>
<path id="Fill 3" fill-rule="evenodd" clip-rule="evenodd" d="M10.5087 14.6866H6.68774C6.27374 14.6866 5.93774 14.3506 5.93774 13.9366C5.93774 13.5226 6.27374 13.1866 6.68774 13.1866H10.5087C10.9227 13.1866 11.2587 13.5226 11.2587 13.9366C11.2587 14.3506 10.9227 14.6866 10.5087 14.6866Z" fill="black"/>
<path id="Fill 5" fill-rule="evenodd" clip-rule="evenodd" d="M15.1163 12.9288H15.0093C14.5953 12.9288 14.2593 12.5928 14.2593 12.1788C14.2593 11.7648 14.5953 11.4288 15.0093 11.4288H15.1163C15.5303 11.4288 15.8663 11.7648 15.8663 12.1788C15.8663 12.5928 15.5303 12.9288 15.1163 12.9288Z" fill="black"/>
<path id="Fill 7" fill-rule="evenodd" clip-rule="evenodd" d="M16.9298 16.5031H16.8228C16.4088 16.5031 16.0728 16.1671 16.0728 15.7531C16.0728 15.3391 16.4088 15.0031 16.8228 15.0031H16.9298C17.3438 15.0031 17.6798 15.3391 17.6798 15.7531C17.6798 16.1671 17.3438 16.5031 16.9298 16.5031Z" fill="black"/>
<g id="Group 11">
<mask id="mask0_33437_4927" style="mask-type:luminance" maskUnits="userSpaceOnUse" x="7" y="1" width="7" height="6">
<path id="Clip 10" fill-rule="evenodd" clip-rule="evenodd" d="M7.07178 1.00012H13.1118V6.58802H7.07178V1.00012Z" fill="white"/>
</mask>
<g mask="url(#mask0_33437_4927)">
<path id="Fill 9" fill-rule="evenodd" clip-rule="evenodd" d="M12.3618 6.588C11.9478 6.588 11.6118 6.252 11.6118 5.838V5.163C11.6088 4.439 10.9948 3.844 10.2438 3.841H9.18978C8.02278 3.841 7.07178 2.903 7.07178 1.75C7.07178 1.336 7.40778 1 7.82178 1C8.23678 1 8.57178 1.336 8.57178 1.75C8.57178 2.076 8.84878 2.341 9.18978 2.341H10.2468C11.8198 2.346 13.1048 3.61 13.1118 5.159V5.838C13.1118 6.252 12.7758 6.588 12.3618 6.588Z" fill="black"/>
</g>
</g>
<g id="Group 14">
<mask id="mask1_33437_4927" style="mask-type:luminance" maskUnits="userSpaceOnUse" x="1" y="5" width="22" height="18">
<path id="Clip 13" fill-rule="evenodd" clip-rule="evenodd" d="M1.00024 5.37341H22.5V22.5002H1.00024V5.37341Z" fill="white"/>
</mask>
<g mask="url(#mask1_33437_4927)">
<path id="Fill 12" fill-rule="evenodd" clip-rule="evenodd" d="M11.7012 6.87316C10.2252 6.87316 8.76724 6.88616 7.33524 6.91016C4.52824 6.91016 2.50024 8.88816 2.50024 11.6122V16.2622C2.50024 18.9852 4.52824 20.9632 7.32324 20.9632C10.2702 21.0122 13.2412 21.0122 16.1652 20.9632H16.1782C18.9722 20.9632 21.0002 18.9852 21.0002 16.2622V11.6122C21.0002 8.88816 18.9722 6.91016 16.1782 6.91016C14.6742 6.88616 13.1792 6.87316 11.7012 6.87316ZM11.7542 22.5002C10.2712 22.5002 8.78624 22.4872 7.31024 22.4632C3.65924 22.4632 1.00024 19.8542 1.00024 16.2622V11.6122C1.00024 8.01916 3.65924 5.41016 7.32324 5.41016C10.1922 5.36116 13.1802 5.36116 16.1902 5.41016C19.8412 5.41016 22.5002 8.01916 22.5002 11.6122V16.2622C22.5002 19.8522 19.8452 22.4602 16.1842 22.4632C14.7162 22.4872 13.2362 22.5002 11.7542 22.5002Z" fill="black"/>
</g>
</g>
</g>
</g>
</svg>
