<svg width="24" height="24" viewBox="0 0 24 24" fill="none" xmlns="http://www.w3.org/2000/svg">
<g id="Iconly/Regular/Bulk/Category">
<g id="Category">
<path id="Fill 1" opacity="0.4" d="M16.0754 2.00012H19.4614C20.8636 2.00012 21.9999 3.14597 21.9999 4.56009V7.97465C21.9999 9.38876 20.8636 10.5346 19.4614 10.5346H16.0754C14.6731 10.5346 13.5369 9.38876 13.5369 7.97465V4.56009C13.5369 3.14597 14.6731 2.00012 16.0754 2.00012Z" fill="black"/>
<path id="Combined Shape" fill-rule="evenodd" clip-rule="evenodd" d="M4.53852 2.00012H7.92449C9.32676 2.00012 10.463 3.14597 10.463 4.56009V7.97465C10.463 9.38876 9.32676 10.5346 7.92449 10.5346H4.53852C3.13626 10.5346 2 9.38876 2 7.97465V4.56009C2 3.14597 3.13626 2.00012 4.53852 2.00012ZM4.53852 13.4656H7.92449C9.32676 13.4656 10.463 14.6115 10.463 16.0256V19.4402C10.463 20.8533 9.32676 22.0001 7.92449 22.0001H4.53852C3.13626 22.0001 2 20.8533 2 19.4402V16.0256C2 14.6115 3.13626 13.4656 4.53852 13.4656ZM19.4615 13.4656H16.0755C14.6732 13.4656 13.537 14.6115 13.537 16.0256V19.4402C13.537 20.8533 14.6732 22.0001 16.0755 22.0001H19.4615C20.8637 22.0001 22 20.8533 22 19.4402V16.0256C22 14.6115 20.8637 13.4656 19.4615 13.4656Z" fill="black"/>
</g>
</g>
</svg>
