<svg width="24" height="24" viewBox="0 0 24 24" fill="none" xmlns="http://www.w3.org/2000/svg">
<g id="Iconly/Regular/Outline/Call Missed">
<g id="Call Missed">
<path id="Stroke 1" d="M20.7846 3.21967C21.0775 2.92678 21.5524 2.92678 21.8453 3.21967C22.1115 3.48594 22.1357 3.9026 21.9179 4.19621L21.8453 4.28033L15.8453 10.2803C15.5524 10.5732 15.0775 10.5732 14.7846 10.2803C14.5183 10.0141 14.4941 9.5974 14.712 9.30379L14.7846 9.21967L20.7846 3.21967Z" fill="black"/>
<path id="Stroke 3" d="M14.7846 3.21967C15.0509 2.9534 15.4675 2.9292 15.7612 3.14705L15.8453 3.21967L21.8453 9.21967C22.1382 9.51256 22.1382 9.98744 21.8453 10.2803C21.579 10.5466 21.1623 10.5708 20.8687 10.3529L20.7846 10.2803L14.7846 4.28033C14.4917 3.98744 14.4917 3.51256 14.7846 3.21967Z" fill="black"/>
<path id="Stroke 5" fill-rule="evenodd" clip-rule="evenodd" d="M2.47109 3.82955L2.54364 3.75374C4.47106 1.82614 5.72622 1.31521 7.06544 2.08532C7.45067 2.30685 7.81183 2.61693 8.30291 3.11571L9.80929 4.67773C10.6413 5.58563 10.8305 6.45648 10.5595 7.47635L10.5222 7.61137L10.4808 7.74562L10.2794 8.33644C9.8484 9.66142 10.0283 10.409 11.5618 11.9421C13.1565 13.5364 13.9009 13.6668 15.3281 13.1681L15.5825 13.0797L15.89 12.9798L16.0247 12.9424C17.1087 12.6532 18.0244 12.884 18.9956 13.8545L20.2093 15.0269L20.5666 15.3783C20.9627 15.7822 21.2245 16.1023 21.4179 16.4406C22.1832 17.7794 21.6717 19.0338 19.6887 21.0094L19.5 21.2006C19.204 21.4859 18.9274 21.6903 18.521 21.8833C17.8388 22.2072 17.033 22.3293 16.0966 22.199C13.7891 21.8781 10.8625 20.0575 7.15425 16.3502C6.85239 16.0484 6.56327 15.7524 6.28662 15.4622L5.74985 14.8893C0.719996 9.42454 0.276261 6.06758 2.33755 3.9622L2.47109 3.82955ZM7.08879 4.02262C6.76299 3.70143 6.52633 3.50564 6.31769 3.38566C5.85616 3.12026 5.35787 3.23244 4.43567 4.02617L4.1459 4.28504C4.09536 4.3317 4.04366 4.38013 3.99075 4.43038L3.65848 4.75401L3.62854 4.79142L3.40328 5.01773C2.85893 5.57374 2.60108 6.25234 2.82328 7.41937C3.18788 9.33439 4.85679 11.9322 8.21478 15.2894C11.7137 18.7873 14.3795 20.4458 16.3032 20.7133C17.4246 20.8693 17.9966 20.5977 18.5799 20.0001L19.0248 19.5512C19.2334 19.3329 19.4116 19.135 19.5621 18.9543L19.7674 18.6956C20.2921 17.9968 20.34 17.5775 20.1156 17.185C20.0302 17.0356 19.906 16.8719 19.7253 16.6717L19.48 16.4127L19.3349 16.2675L17.8036 14.7889C17.2919 14.317 16.9423 14.2501 16.4113 14.3917L16.2581 14.4358L15.6238 14.6511C13.7837 15.2454 12.4562 14.9572 10.5013 13.0029C8.47667 10.9787 8.23922 9.62707 8.91759 7.68087L8.96111 7.55581L9.08145 7.19323L9.14061 6.96213C9.24551 6.45916 9.12574 6.10847 8.58507 5.56771C8.5628 5.54544 8.53792 5.52036 8.51085 5.4929L7.08879 4.02262Z" fill="black"/>
</g>
</g>
</svg>
