<svg width="24" height="24" viewBox="0 0 24 24" fill="none" xmlns="http://www.w3.org/2000/svg">
<g id="Iconly/Regular/Outline/Plus">
<g id="Plus">
<path id="Fill 1" fill-rule="evenodd" clip-rule="evenodd" d="M11.75 16.1544C11.336 16.1544 11 15.8184 11 15.4044V8.07739C11 7.66339 11.336 7.32739 11.75 7.32739C12.164 7.32739 12.5 7.66339 12.5 8.07739V15.4044C12.5 15.8184 12.164 16.1544 11.75 16.1544Z" fill="black"/>
<path id="Fill 3" fill-rule="evenodd" clip-rule="evenodd" d="M15.4165 12.4904H8.0835C7.6685 12.4904 7.3335 12.1544 7.3335 11.7404C7.3335 11.3264 7.6685 10.9904 8.0835 10.9904H15.4165C15.8305 10.9904 16.1665 11.3264 16.1665 11.7404C16.1665 12.1544 15.8305 12.4904 15.4165 12.4904Z" fill="black"/>
<path id="Fill 5" fill-rule="evenodd" clip-rule="evenodd" d="M7.064 2.50012C4.292 2.50012 2.5 4.39712 2.5 7.33512V16.1651C2.5 19.1031 4.292 21.0001 7.064 21.0001H16.436C19.209 21.0001 21 19.1031 21 16.1651V7.33512C21 4.39712 19.209 2.50012 16.436 2.50012H7.064ZM16.436 22.5001H7.064C3.437 22.5001 1 19.9541 1 16.1651V7.33512C1 3.54612 3.437 1.00012 7.064 1.00012H16.436C20.063 1.00012 22.5 3.54612 22.5 7.33512V16.1651C22.5 19.9541 20.063 22.5001 16.436 22.5001Z" fill="black"/>
</g>
</g>
</svg>
