<svg width="24" height="24" viewBox="0 0 24 24" fill="none" xmlns="http://www.w3.org/2000/svg">
<g id="Iconly/Regular/Outline/Bag 3">
<g id="Bag 2">
<g id="Group 3">
<mask id="mask0_33437_4955" style="mask-type:luminance" maskUnits="userSpaceOnUse" x="7" y="2" width="10" height="9">
<path id="Clip 2" fill-rule="evenodd" clip-rule="evenodd" d="M7.21094 2.00012H16.2729V10.3058H7.21094V2.00012Z" fill="white"/>
</mask>
<g mask="url(#mask0_33437_4955)">
<path id="Fill 1" fill-rule="evenodd" clip-rule="evenodd" d="M15.5229 10.3059C15.1089 10.3059 14.7729 9.96988 14.7729 9.55588V6.52388C14.7729 4.85688 13.4179 3.49988 11.7509 3.49988C10.9399 3.52788 10.1799 3.80788 9.60594 4.37588C9.03194 4.94488 8.71394 5.70188 8.71094 6.50888V9.55588C8.71094 9.96988 8.37494 10.3059 7.96094 10.3059C7.54694 10.3059 7.21094 9.96988 7.21094 9.55588V6.52388C7.21594 5.29488 7.69094 4.16088 8.54994 3.31088C9.40794 2.45988 10.5599 2.03488 11.7539 1.99988C14.2449 1.99988 16.2729 4.02988 16.2729 6.52388V9.55588C16.2729 9.96988 15.9369 10.3059 15.5229 10.3059Z" fill="black"/>
</g>
</g>
<g id="Group 6">
<mask id="mask1_33437_4955" style="mask-type:luminance" maskUnits="userSpaceOnUse" x="2" y="6" width="20" height="16">
<path id="Clip 5" fill-rule="evenodd" clip-rule="evenodd" d="M2 6.47473H21.4998V21.9997H2V6.47473Z" fill="white"/>
</mask>
<g mask="url(#mask1_33437_4955)">
<path id="Fill 4" fill-rule="evenodd" clip-rule="evenodd" d="M7.00776 7.97473C5.07376 7.97473 3.49976 9.54673 3.49976 11.4797V16.9957C3.49976 18.9277 5.07376 20.4997 7.00776 20.4997H16.4918C18.4258 20.4997 19.9998 18.9277 19.9998 16.9957V11.4797C19.9998 9.54673 18.4258 7.97473 16.4918 7.97473H7.00776ZM16.4918 21.9997H7.00776C4.24676 21.9997 1.99976 19.7547 1.99976 16.9957V11.4797C1.99976 8.71973 4.24676 6.47473 7.00776 6.47473H16.4918C19.2538 6.47473 21.4998 8.71973 21.4998 11.4797V16.9957C21.4998 19.7547 19.2538 21.9997 16.4918 21.9997Z" fill="black"/>
</g>
</g>
</g>
</g>
</svg>
