<svg width="24" height="24" viewBox="0 0 24 24" fill="none" xmlns="http://www.w3.org/2000/svg">
<g id="Iconly/Regular/Outline/Arrow - Down">
<g id="Arrow - Down">
<path id="Stroke 1" d="M12.2744 4.00012C12.6541 4.00012 12.9679 4.28228 13.0176 4.64835L13.0244 4.75012V19.7501C13.0244 20.1643 12.6886 20.5001 12.2744 20.5001C11.8947 20.5001 11.5809 20.218 11.5313 19.8519L11.5244 19.7501V4.75012C11.5244 4.33591 11.8602 4.00012 12.2744 4.00012Z" fill="black"/>
<path id="Stroke 3" d="M17.7673 13.1711C18.0595 12.8776 18.5344 12.8766 18.8279 13.1688C19.0948 13.4345 19.1199 13.8511 18.9027 14.1452L18.8302 14.2295L12.8062 20.2795C12.5397 20.5471 12.1216 20.5715 11.8276 20.3525L11.7433 20.2795L5.71833 14.2295C5.42604 13.936 5.42703 13.4612 5.72052 13.1689C5.98734 12.9032 6.40406 12.8798 6.69721 13.0983L6.78118 13.1711L12.2751 18.6871L17.7673 13.1711Z" fill="black"/>
</g>
</g>
</svg>
