<svg width="24" height="24" viewBox="0 0 24 24" fill="none" xmlns="http://www.w3.org/2000/svg">
<g id="Iconly/Regular/Bulk/Ticket">
<g id="Ticket">
<path id="Fill 1" opacity="0.4" d="M13.7505 9.70314V7.68329C13.354 7.68329 13.0251 7.36387 13.0251 6.97869V4.57367C13.0251 4.25331 12.764 4.0006 12.4352 4.0006H5.7911C3.70213 4.0006 2 5.65311 2 7.68329V10.1156C2 10.3044 2.07737 10.4829 2.21277 10.6144C2.34816 10.745 2.53191 10.8202 2.72534 10.8202C3.46035 10.8202 4.02128 11.3275 4.02128 11.9945C4.02128 12.6906 3.45068 13.2449 2.73501 13.2534C2.33849 13.2534 2 13.5258 2 13.9204V16.3264C2 18.3556 3.70213 19.9997 5.78143 19.9997H12.4352C12.764 19.9997 13.0251 19.7451 13.0251 19.4266V17.3964C13.0251 17.0028 13.354 16.6918 13.7505 16.6918V14.8702C13.354 14.8702 13.0251 14.5498 13.0251 14.1656V10.4077C13.0251 10.0226 13.354 9.70314 13.7505 9.70314Z" fill="black"/>
<path id="Fill 4" d="M19.9787 11.995C19.9787 12.6902 20.559 13.2444 21.265 13.2538C21.6615 13.2538 22 13.5263 22 13.9115V16.3259C22 18.3561 20.3075 20.0001 18.2186 20.0001H15.0658C14.7466 20.0001 14.4758 19.7455 14.4758 19.4261V17.3969C14.4758 17.0023 14.1567 16.6923 13.7505 16.6923V14.8707C14.1567 14.8707 14.4758 14.5503 14.4758 14.1661V10.4082C14.4758 10.0221 14.1567 9.7036 13.7505 9.7036V7.68282C14.1567 7.68282 14.4758 7.3634 14.4758 6.97822V4.57413C14.4758 4.25378 14.7466 4.00012 15.0658 4.00012H18.2186C20.3075 4.00012 22 5.64418 22 7.67342V10.0409C22 10.2288 21.9226 10.4082 21.7872 10.5388C21.6518 10.6703 21.4681 10.7455 21.2747 10.7455C20.559 10.7455 19.9787 11.3101 19.9787 11.995Z" fill="black"/>
</g>
</g>
</svg>
