<svg width="24" height="24" viewBox="0 0 24 24" fill="none" xmlns="http://www.w3.org/2000/svg">
<g id="Iconly/Curved/Light/Camera">
<g id="Camera">
<path id="Stroke 2" fill-rule="evenodd" clip-rule="evenodd" d="M15.438 12.4982C15.438 10.7614 14.0296 9.35297 12.2927 9.35297C10.5559 9.35297 9.14746 10.7614 9.14746 12.4982C9.14746 14.2351 10.5559 15.6435 12.2927 15.6435C14.0296 15.6435 15.438 14.2351 15.438 12.4982Z" stroke="black" stroke-width="1.5" stroke-linecap="round" stroke-linejoin="round"/>
<path id="Stroke 4" fill-rule="evenodd" clip-rule="evenodd" d="M12.2925 20.2003C20.3377 20.2003 21.2956 17.7897 21.2956 12.5666C21.2956 8.90552 20.8114 6.94657 17.7619 6.10446C17.4819 6.01604 17.1714 5.84762 16.9198 5.57078C16.5135 5.12552 16.2167 3.75815 15.2356 3.34446C14.2546 2.93183 10.3146 2.95078 9.34931 3.34446C8.3851 3.7392 8.07141 5.12552 7.6651 5.57078C7.41352 5.84762 7.10404 6.01604 6.82299 6.10446C3.77352 6.94657 3.28931 8.90552 3.28931 12.5666C3.28931 17.7897 4.2472 20.2003 12.2925 20.2003Z" stroke="black" stroke-width="1.5" stroke-linecap="round" stroke-linejoin="round"/>
<path id="Stroke 11" d="M17.2045 9.00012H17.2135" stroke="black" stroke-width="1.5" stroke-linecap="round" stroke-linejoin="round"/>
</g>
</g>
</svg>
