<svg width="24" height="24" viewBox="0 0 24 24" fill="none" xmlns="http://www.w3.org/2000/svg">
<g id="Iconly/Regular/Outline/Arrow - Left Square">
<g id="Arrow - Left Square">
<path id="Fill 1" fill-rule="evenodd" clip-rule="evenodd" d="M16.084 3.50012C18.767 3.50012 20.5 5.13512 20.5 7.66512V16.3341C20.5 18.8641 18.767 20.5001 16.084 20.5001H7.916C5.233 20.5001 3.5 18.8641 3.5 16.3341V7.66512C3.5 5.13512 5.233 3.50012 7.916 3.50012H16.084ZM7.916 22.0001H16.084C19.622 22.0001 22 19.7231 22 16.3341V7.66512C22 4.27612 19.622 2.00012 16.084 2.00012H7.916C4.378 2.00012 2 4.27612 2 7.66512V16.3341C2 19.7231 4.378 22.0001 7.916 22.0001Z" fill="black"/>
<path id="Fill 3" fill-rule="evenodd" clip-rule="evenodd" d="M7.91406 12.7501H16.0861C16.5001 12.7501 16.8361 12.4141 16.8361 12.0001C16.8361 11.5861 16.5001 11.2501 16.0861 11.2501H7.91406C7.50006 11.2501 7.16406 11.5861 7.16406 12.0001C7.16406 12.4141 7.50006 12.7501 7.91406 12.7501Z" fill="black"/>
<path id="Fill 5" fill-rule="evenodd" clip-rule="evenodd" d="M11.6777 16.4981C11.8697 16.4981 12.0627 16.4251 12.2087 16.2771C12.5007 15.9831 12.4997 15.5091 12.2067 15.2171L8.97675 12.0001L12.2067 8.78307C12.4997 8.49107 12.5007 8.01707 12.2087 7.72307C11.9167 7.42907 11.4427 7.42907 11.1487 7.72107L7.38475 11.4691C7.24275 11.6091 7.16375 11.8011 7.16375 12.0001C7.16375 12.1991 7.24275 12.3911 7.38475 12.5311L11.1487 16.2791C11.2947 16.4251 11.4867 16.4981 11.6777 16.4981Z" fill="black"/>
</g>
</g>
</svg>
