<svg width="24" height="24" viewBox="0 0 24 24" fill="none" xmlns="http://www.w3.org/2000/svg">
<g id="Iconly/Regular/Bulk/Discovery">
<g id="Discovery">
<path id="Fill 1" opacity="0.4" d="M22 12C22 17.523 17.523 22 12 22C6.477 22 2 17.523 2 12C2 6.47802 6.477 2.00002 12 2.00002C17.523 2.00002 22 6.47802 22 12Z" fill="black"/>
<path id="Fill 4" d="M15.86 8.70501L14.24 13.825C14.18 14.035 14.01 14.205 13.8 14.266L8.69996 15.865C8.35996 15.976 8.02996 15.645 8.13996 15.305L9.73996 10.175C9.79996 9.96501 9.96996 9.80501 10.18 9.73501L15.3 8.13501C15.65 8.02501 15.97 8.35501 15.86 8.70501Z" fill="black"/>
</g>
</g>
</svg>
