<svg width="24" height="24" viewBox="0 0 24 24" fill="none" xmlns="http://www.w3.org/2000/svg">
<g id="Iconly/Regular/Bulk/Discount">
<path id="Fill 1" opacity="0.4" d="M11.9991 21.9983C11.2301 21.9983 10.4621 21.7063 9.87514 21.1233L9.14514 20.3933C8.86214 20.1113 8.48314 19.9553 8.08114 19.9543H7.05414C5.39414 19.9543 4.04314 18.6033 4.04314 16.9433V15.9153C4.04214 15.5143 3.88614 15.1353 3.60314 14.8503L2.88514 14.1333C1.70914 12.9643 1.70414 11.0533 2.87414 9.87632L3.60414 9.14532C3.88614 8.86232 4.04214 8.48332 4.04314 8.08132V7.05532C4.04314 5.39432 5.39414 4.04332 7.05414 4.04332H8.08214C8.48314 4.04332 8.86114 3.88732 9.14614 3.60232L9.86514 2.88532C11.0341 1.70932 12.9441 1.70332 14.1221 2.87432L14.8521 3.60432C15.1361 3.88732 15.5141 4.04332 15.9151 4.04332H16.9431C18.6031 4.04332 19.9541 5.39432 19.9541 7.05532V8.08232C19.9551 8.48332 20.1111 8.86232 20.3941 9.14732L21.1121 9.86532C21.6811 10.4313 21.9961 11.1853 21.9991 11.9903C22.0011 12.7903 21.6931 13.5433 21.1321 14.1123C21.1221 14.1223 21.1131 14.1333 21.1031 14.1423L20.3931 14.8523C20.1111 15.1353 19.9551 15.5143 19.9541 15.9163V16.9433C19.9541 18.6033 18.6031 19.9543 16.9431 19.9543H15.9151C15.5141 19.9553 15.1351 20.1113 14.8511 20.3943L14.1321 21.1123C13.5461 21.7023 12.7721 21.9983 11.9991 21.9983Z" fill="black"/>
<path id="Combined Shape" fill-rule="evenodd" clip-rule="evenodd" d="M10.0428 10.051C9.87776 10.216 9.66376 10.305 9.42676 10.305C9.20476 10.305 8.98676 10.214 8.81176 10.05C8.64576 9.88503 8.55176 9.65903 8.55176 9.43003C8.55176 9.21203 8.64376 8.98803 8.80576 8.81503C8.89476 8.72503 9.00076 8.65703 9.10676 8.62103C9.40876 8.48303 9.80976 8.56403 10.0478 8.81403C10.1328 8.89903 10.1978 8.99203 10.2408 9.08903C10.2878 9.19303 10.3118 9.31103 10.3118 9.43003C10.3118 9.66803 10.2168 9.88903 10.0428 10.051ZM15.1905 8.80993C14.8495 8.46993 14.2945 8.46993 13.9535 8.80993L8.81346 13.9499C8.47246 14.2909 8.47246 14.8459 8.81346 15.1879C8.97946 15.3529 9.19846 15.4439 9.43246 15.4439C9.66646 15.4439 9.88546 15.3529 10.0505 15.1879L15.1905 10.0479C15.5315 9.70593 15.5315 9.15193 15.1905 8.80993ZM14.9058 13.764C14.5818 13.628 14.1978 13.702 13.9418 13.958C13.8888 14.02 13.8138 14.116 13.7628 14.229C13.7088 14.351 13.7018 14.482 13.7018 14.57C13.7018 14.658 13.7088 14.788 13.7628 14.91C13.8128 15.022 13.8728 15.113 13.9518 15.192C14.1328 15.36 14.3428 15.445 14.5768 15.445C14.7988 15.445 15.0168 15.355 15.1958 15.188C15.3548 15.029 15.4418 14.809 15.4418 14.57C15.4418 14.33 15.3548 14.111 15.1948 13.951C15.1068 13.864 15.0008 13.796 14.9058 13.764Z" fill="black"/>
</g>
</svg>
