<svg width="24" height="24" viewBox="0 0 24 24" fill="none" xmlns="http://www.w3.org/2000/svg">
<g id="Iconly/Regular/Outline/Voice">
<g id="Voice">
<path id="Fill 1" fill-rule="evenodd" clip-rule="evenodd" d="M11.7495 22.5001C11.3355 22.5001 10.9995 22.1641 10.9995 21.7501V18.5891C10.9995 18.1751 11.3355 17.8391 11.7495 17.8391C12.1635 17.8391 12.4995 18.1751 12.4995 18.5891V21.7501C12.4995 22.1641 12.1635 22.5001 11.7495 22.5001Z" fill="black"/>
<path id="Fill 3" fill-rule="evenodd" clip-rule="evenodd" d="M11.7495 2.50012C9.9235 2.50012 8.4375 3.99412 8.4375 5.83112V10.5191C8.4375 12.3541 9.9235 13.8491 11.7495 13.8491C13.5755 13.8491 15.0615 12.3541 15.0615 10.5191V5.83112C15.0615 3.99412 13.5755 2.50012 11.7495 2.50012ZM11.7495 15.3491C9.0965 15.3491 6.9375 13.1821 6.9375 10.5191V5.83112C6.9375 3.16712 9.0965 1.00012 11.7495 1.00012C14.4025 1.00012 16.5615 3.16712 16.5615 5.83112V10.5191C16.5615 13.1821 14.4025 15.3491 11.7495 15.3491Z" fill="black"/>
<g id="Group 7">
<mask id="mask0_33437_4444" style="mask-type:luminance" maskUnits="userSpaceOnUse" x="3" y="9" width="18" height="11">
<path id="Clip 6" fill-rule="evenodd" clip-rule="evenodd" d="M3 9.80103H20.4995V19.339H3V9.80103Z" fill="white"/>
</mask>
<g mask="url(#mask0_33437_4444)">
<path id="Fill 5" fill-rule="evenodd" clip-rule="evenodd" d="M11.7495 19.339C6.92451 19.339 2.99951 15.397 2.99951 10.551C2.99951 10.137 3.33551 9.80103 3.74951 9.80103C4.16451 9.80103 4.49951 10.137 4.49951 10.551C4.49951 14.569 7.75151 17.839 11.7495 17.839C15.7475 17.839 18.9995 14.569 18.9995 10.551C18.9995 10.137 19.3355 9.80103 19.7495 9.80103C20.1645 9.80103 20.4995 10.137 20.4995 10.551C20.4995 15.397 16.5745 19.339 11.7495 19.339Z" fill="black"/>
</g>
</g>
</g>
</g>
</svg>
