<svg width="24" height="24" viewBox="0 0 24 24" fill="none" xmlns="http://www.w3.org/2000/svg">
<g id="Iconly/Regular/Bulk/Folder">
<g id="Folder">
<path id="Folder 2" opacity="0.4" d="M16.8843 5.11497H13.9413C13.2081 5.11981 12.512 4.79367 12.0474 4.22763L11.0782 2.88775C10.6214 2.31674 9.9253 1.98907 9.19321 2.00041H7.11261C3.37819 2.00041 2.00001 4.19213 2.00001 7.91896V11.9475C1.99536 12.3905 21.9956 12.3899 21.9969 11.9475V10.7762C22.0147 7.04937 20.6721 5.11497 16.8843 5.11497Z" fill="black"/>
<path id="Folder_2" fill-rule="evenodd" clip-rule="evenodd" d="M20.8321 6.5436C21.1521 6.91768 21.3993 7.34799 21.5612 7.81249C21.8798 8.76717 22.0273 9.77043 21.9969 10.7762V16.0293C21.9956 16.4717 21.963 16.9135 21.8991 17.3514C21.7775 18.1241 21.5057 18.8657 21.0989 19.5342C20.9119 19.8572 20.6849 20.1553 20.4231 20.4216C19.2383 21.509 17.665 22.075 16.0574 21.9922H7.93061C6.32049 22.0744 4.74462 21.5086 3.55601 20.4216C3.2974 20.1548 3.07337 19.8567 2.88915 19.5342C2.48475 18.8661 2.21869 18.1239 2.1067 17.3514C2.03549 16.9143 1.99981 16.4721 2 16.0293V10.7762C1.99983 10.3375 2.02357 9.89908 2.07113 9.46294C2.08113 9.38642 2.09614 9.31115 2.11098 9.23665C2.13573 9.11247 2.16005 8.99045 2.16005 8.86842C2.25031 8.3421 2.41496 7.83122 2.64908 7.35107C3.34261 5.86922 4.76525 5.11498 7.09481 5.11498H16.8754C18.1802 5.01407 19.4753 5.40687 20.5032 6.21528C20.6215 6.31566 20.7316 6.42546 20.8321 6.5436ZM6.97033 15.5412H17.0355H17.0533C17.2741 15.5508 17.4896 15.4718 17.6517 15.3217C17.8137 15.1717 17.9088 14.9631 17.9157 14.7426C17.9282 14.5488 17.8644 14.3578 17.7379 14.2102C17.5924 14.0119 17.3618 13.8935 17.1155 13.8908H6.97033C6.51365 13.8908 6.14343 14.2602 6.14343 14.716C6.14343 15.1717 6.51365 15.5412 6.97033 15.5412Z" fill="black"/>
</g>
</g>
</svg>
