<svg width="24" height="24" viewBox="0 0 24 24" fill="none" xmlns="http://www.w3.org/2000/svg">
<g id="Iconly/Regular/Outline/Profile">
<g id="Profile">
<g id="Group 6">
<g id="Union">
<path fill-rule="evenodd" clip-rule="evenodd" d="M11.8889 12.6189H11.9209C14.8489 12.6189 17.2299 10.2379 17.2299 7.30988C17.2299 4.38188 14.8489 1.99988 11.9209 1.99988C8.99189 1.99988 6.60989 4.38188 6.60989 7.30688C6.59989 10.2269 8.9669 12.6099 11.8889 12.6189ZM8.03789 7.30988C8.03789 5.16888 9.77989 3.42788 11.9209 3.42788C14.0609 3.42788 15.8019 5.16888 15.8019 7.30988C15.8019 9.44988 14.0609 11.1919 11.9209 11.1919H11.8919C9.75989 11.1839 8.03089 9.44388 8.03789 7.30988Z" fill="black"/>
<path fill-rule="evenodd" clip-rule="evenodd" d="M3.99988 18.1732C3.99988 21.8702 9.96188 21.8702 11.9209 21.8702C15.3199 21.8702 19.8399 21.4892 19.8399 18.1932C19.8399 14.4962 13.8799 14.4962 11.9209 14.4962C8.52088 14.4962 3.99988 14.8772 3.99988 18.1732ZM5.49988 18.1732C5.49988 16.7282 7.65988 15.9962 11.9209 15.9962C16.1809 15.9962 18.3399 16.7352 18.3399 18.1932C18.3399 19.6382 16.1809 20.3702 11.9209 20.3702C7.65988 20.3702 5.49988 19.6312 5.49988 18.1732Z" fill="black"/>
</g>
</g>
</g>
</g>
</svg>
