<svg width="24" height="24" viewBox="0 0 24 24" fill="none" xmlns="http://www.w3.org/2000/svg">
<g id="Iconly/Regular/Outline/Chart">
<g id="Chart">
<path id="Fill 1" fill-rule="evenodd" clip-rule="evenodd" d="M7.12109 17.5626C6.70709 17.5626 6.37109 17.2266 6.37109 16.8126V9.95264C6.37109 9.53864 6.70709 9.20264 7.12109 9.20264C7.53509 9.20264 7.87109 9.53864 7.87109 9.95264V16.8126C7.87109 17.2266 7.53509 17.5626 7.12109 17.5626Z" fill="black"/>
<path id="Fill 3" fill-rule="evenodd" clip-rule="evenodd" d="M11.7881 17.5616C11.3741 17.5616 11.0381 17.2256 11.0381 16.8116V6.66858C11.0381 6.25458 11.3741 5.91858 11.7881 5.91858C12.2021 5.91858 12.5381 6.25458 12.5381 6.66858V16.8116C12.5381 17.2256 12.2021 17.5616 11.7881 17.5616Z" fill="black"/>
<path id="Fill 5" fill-rule="evenodd" clip-rule="evenodd" d="M16.3784 17.5616C15.9644 17.5616 15.6284 17.2256 15.6284 16.8116V13.5776C15.6284 13.1636 15.9644 12.8276 16.3784 12.8276C16.7924 12.8276 17.1284 13.1636 17.1284 13.5776V16.8116C17.1284 17.2256 16.7924 17.5616 16.3784 17.5616Z" fill="black"/>
<path id="Fill 7" fill-rule="evenodd" clip-rule="evenodd" d="M7.064 2.50012C4.292 2.50012 2.5 4.39712 2.5 7.33512V16.1651C2.5 19.1031 4.292 21.0001 7.064 21.0001H16.436C19.209 21.0001 21 19.1031 21 16.1651V7.33512C21 4.39712 19.209 2.50012 16.436 2.50012H7.064ZM16.436 22.5001H7.064C3.437 22.5001 1 19.9541 1 16.1651V7.33512C1 3.54612 3.437 1.00012 7.064 1.00012H16.436C20.063 1.00012 22.5 3.54612 22.5 7.33512V16.1651C22.5 19.9541 20.063 22.5001 16.436 22.5001Z" fill="black"/>
</g>
</g>
</svg>
