<svg width="24" height="24" viewBox="0 0 24 24" fill="none" xmlns="http://www.w3.org/2000/svg">
<g id="Iconly/Regular/Outline/Call Silent">
<g id="Call Silent">
<g id="Group 3">
<mask id="mask0_33437_4800" style="mask-type:luminance" maskUnits="userSpaceOnUse" x="2" y="2" width="10" height="14">
<path id="Clip 2" fill-rule="evenodd" clip-rule="evenodd" d="M2 2.00061H11.2953V15.1046H2V2.00061Z" fill="white"/>
</mask>
<g mask="url(#mask0_33437_4800)">
<path id="Fill 1" fill-rule="evenodd" clip-rule="evenodd" d="M6.72535 15.1046C6.51835 15.1046 6.31135 15.0186 6.16335 14.8506C0.821355 8.79861 1.58735 5.66461 3.17135 4.10061C3.18735 4.08061 3.24235 4.02661 3.25935 4.00861C4.66335 2.58361 5.62335 2.00061 6.56035 2.00061H6.58935C7.70035 2.01461 8.48535 2.85361 9.47935 3.91661C9.72335 4.17761 9.98935 4.46061 10.2834 4.75961C11.7134 6.21861 11.3074 7.40661 10.9804 8.36061C10.7444 9.05161 10.5384 9.64961 10.9124 10.5006C11.0794 10.8806 10.9074 11.3236 10.5284 11.4896C10.1464 11.6556 9.70535 11.4836 9.53935 11.1046C8.93035 9.71561 9.29435 8.65161 9.56135 7.87461C9.85035 7.03161 9.99535 6.60861 9.21335 5.81161C8.91035 5.50361 8.63635 5.21061 8.38335 4.94161C7.60435 4.10761 7.04035 3.50561 6.57035 3.50061H6.56235C6.09535 3.50061 5.36435 4.01061 4.32835 5.06161C4.32935 5.05961 4.33135 5.05861 4.33135 5.05861C4.33335 5.05861 4.28635 5.10761 4.22535 5.16761C2.08335 7.28361 5.22435 11.5206 7.28735 13.8586C7.56135 14.1686 7.53235 14.6426 7.22135 14.9176C7.07935 15.0426 6.90235 15.1046 6.72535 15.1046Z" fill="black"/>
</g>
</g>
<path id="Fill 4" fill-rule="evenodd" clip-rule="evenodd" d="M17.9628 22.8175C15.6718 22.8175 12.7338 21.0785 9.2258 17.6455C8.9298 17.3555 8.9238 16.8805 9.2138 16.5855C9.5048 16.2885 9.9798 16.2845 10.2748 16.5735C14.3338 20.5465 16.7058 21.3745 18.0278 21.3165C18.9928 21.2965 19.4488 20.8075 19.6678 20.5735C19.7288 20.5085 19.7768 20.4605 19.8128 20.4285C20.8058 19.4125 21.3068 18.6645 21.3008 18.1805C21.2938 17.6875 20.6988 17.1095 19.8748 16.3085C19.6138 16.0555 19.3318 15.7815 19.0328 15.4775C18.2658 14.6955 17.8858 14.8315 17.0508 15.1335C16.0228 15.5035 14.6128 16.0135 12.5658 14.3295C12.2448 14.0665 12.1978 13.5935 12.4618 13.2745C12.7238 12.9535 13.1998 12.9075 13.5168 13.1715C14.9078 14.3095 15.6268 14.0495 16.5428 13.7215C17.4368 13.3995 18.6618 12.9615 20.1038 14.4255C20.3938 14.7215 20.6678 14.9875 20.9198 15.2335C21.9628 16.2465 22.7858 17.0465 22.7998 18.1625C22.8128 19.1145 22.2438 20.0875 20.8418 21.5195L20.7459 21.6167L20.7939 21.5681C20.4909 21.8921 19.6568 22.7815 18.0618 22.8165C18.0278 22.8175 17.9948 22.8175 17.9628 22.8175Z" fill="black"/>
<path id="Fill 6" fill-rule="evenodd" clip-rule="evenodd" d="M4.63941 22.3996C4.45541 22.3996 4.27141 22.3326 4.12641 22.1966C3.82441 21.9136 3.80941 21.4386 4.09241 21.1366L19.0924 5.13656C19.3744 4.83356 19.8504 4.81856 20.1524 5.10256C20.4544 5.38556 20.4694 5.86056 20.1864 6.16256L5.18641 22.1626C5.03841 22.3206 4.83941 22.3996 4.63941 22.3996Z" fill="black"/>
</g>
</g>
</svg>
