<svg width="24" height="24" viewBox="0 0 24 24" fill="none" xmlns="http://www.w3.org/2000/svg">
<g id="Iconly/Regular/Bulk/Setting">
<g id="Setting">
<path id="Path" d="M12.012 14.8302C10.4075 14.8302 9.10962 13.5802 9.10962 12.0102C9.10962 10.4402 10.4075 9.18022 12.012 9.18022C13.6165 9.18022 14.8837 10.4402 14.8837 12.0102C14.8837 13.5802 13.6165 14.8302 12.012 14.8302Z" fill="black"/>
<path id="Path_2" opacity="0.4" d="M21.2301 14.3702C21.036 14.0702 20.76 13.7702 20.4023 13.5802C20.1162 13.4402 19.9322 13.2102 19.7687 12.9402C19.2475 12.0802 19.5541 10.9502 20.4228 10.4402C21.4447 9.87023 21.7718 8.60023 21.179 7.61023L20.4943 6.43023C19.9118 5.44023 18.6344 5.09023 17.6226 5.67023C16.7233 6.15023 15.5685 5.83023 15.0473 4.98023C14.8838 4.70023 14.7918 4.40023 14.8122 4.10023C14.8429 3.71023 14.7203 3.34023 14.5363 3.04023C14.1582 2.42023 13.4735 2.00023 12.7172 2.00023H11.2763C10.5302 2.02023 9.84553 2.42023 9.4674 3.04023C9.27323 3.34023 9.16081 3.71023 9.18125 4.10023C9.20169 4.40023 9.10972 4.70023 8.9462 4.98023C8.425 5.83023 7.27019 6.15023 6.38109 5.67023C5.35913 5.09023 4.09191 5.44023 3.49917 6.43023L2.81446 7.61023C2.23194 8.60023 2.55897 9.87023 3.57071 10.4402C4.43937 10.9502 4.74596 12.0802 4.23498 12.9402C4.06125 13.2102 3.87729 13.4402 3.59115 13.5802C3.24368 13.7702 2.93709 14.0702 2.77358 14.3702C2.39546 14.9902 2.4159 15.7702 2.79402 16.4202L3.49917 17.6202C3.87729 18.2602 4.58245 18.6602 5.31825 18.6602C5.66572 18.6602 6.0745 18.5602 6.40153 18.3602C6.65702 18.1902 6.96361 18.1302 7.30085 18.1302C8.31259 18.1302 9.16081 18.9602 9.18125 19.9502C9.18125 21.1002 10.1215 22.0002 11.3069 22.0002H12.6968C13.872 22.0002 14.8122 21.1002 14.8122 19.9502C14.8429 18.9602 15.6911 18.1302 16.7029 18.1302C17.0299 18.1302 17.3365 18.1902 17.6022 18.3602C17.9292 18.5602 18.3278 18.6602 18.6855 18.6602C19.411 18.6602 20.1162 18.2602 20.4943 17.6202L21.2097 16.4202C21.5776 15.7502 21.6083 14.9902 21.2301 14.3702Z" fill="black"/>
</g>
</g>
</svg>
