<svg width="24" height="24" viewBox="0 0 24 24" fill="none" xmlns="http://www.w3.org/2000/svg">
<g id="Iconly/Regular/Outline/Arrow - Down Square">
<g id="Arrow - Down Square">
<path id="Fill 1" fill-rule="evenodd" clip-rule="evenodd" d="M7.666 3.50012C5.136 3.50012 3.5 5.23312 3.5 7.91612V16.0841C3.5 18.7671 5.136 20.5001 7.666 20.5001H16.335C18.865 20.5001 20.5 18.7671 20.5 16.0841V7.91612C20.5 5.23312 18.865 3.50012 16.335 3.50012H7.666ZM16.335 22.0001H7.666C4.277 22.0001 2 19.6221 2 16.0841V7.91612C2 4.37812 4.277 2.00012 7.666 2.00012H16.335C19.724 2.00012 22 4.37812 22 7.91612V16.0841C22 19.6221 19.724 22.0001 16.335 22.0001Z" fill="black"/>
<path id="Fill 3" fill-rule="evenodd" clip-rule="evenodd" d="M12 16.8361C11.586 16.8361 11.25 16.5001 11.25 16.0861V7.91406C11.25 7.50006 11.586 7.16406 12 7.16406C12.414 7.16406 12.75 7.50006 12.75 7.91406V16.0861C12.75 16.5001 12.414 16.8361 12 16.8361Z" fill="black"/>
<path id="Fill 5" fill-rule="evenodd" clip-rule="evenodd" d="M11.9999 16.837C11.801 16.837 11.6089 16.758 11.4689 16.616L7.72095 12.852C7.42795 12.558 7.42995 12.083 7.72295 11.791C8.01695 11.5 8.49095 11.498 8.78295 11.793L11.9999 15.024L15.2169 11.793C15.5099 11.498 15.9839 11.5 16.2769 11.791C16.57 12.083 16.5719 12.558 16.2789 12.852L12.5309 16.616C12.3909 16.758 12.1989 16.837 11.9999 16.837Z" fill="black"/>
</g>
</g>
</svg>
