<svg width="24" height="24" viewBox="0 0 24 24" fill="none" xmlns="http://www.w3.org/2000/svg">
<g id="Iconly/Regular/Outline/Folder">
<g id="Folder">
<g id="Group 3">
<mask id="mask0_33437_4320" style="mask-type:luminance" maskUnits="userSpaceOnUse" x="2" y="2" width="21" height="21">
<path id="Clip 2" fill-rule="evenodd" clip-rule="evenodd" d="M2 2.00012H22.6966V22.669H2V2.00012Z" fill="white"/>
</mask>
<g mask="url(#mask0_33437_4320)">
<path id="Fill 1" fill-rule="evenodd" clip-rule="evenodd" d="M7.64251 3.50012C4.73851 3.50012 3.49951 4.97612 3.49951 8.43312V16.2321C3.49951 19.4161 5.25751 21.1691 8.44951 21.1691H16.2315C19.4155 21.1691 21.1685 19.4161 21.1685 16.2321V16.2291L21.1965 11.2641C21.1965 7.86512 20.0305 6.54012 17.0355 6.54012H14.2055C13.2565 6.53912 12.3505 6.08612 11.7805 5.32812L10.8675 4.11412C10.5805 3.72912 10.1215 3.50112 9.64151 3.50012H7.64251ZM16.2315 22.6691H8.44951C4.47151 22.6691 1.99951 20.2021 1.99951 16.2321V8.43312C1.99951 4.16412 3.89851 2.00012 7.64251 2.00012H9.64251C10.5935 2.00112 11.4995 2.45512 12.0675 3.21412L12.9785 4.42612C13.2675 4.81012 13.7265 5.03912 14.2065 5.04012H17.0355C20.8975 5.04012 22.6965 7.01912 22.6965 11.2681L22.6685 16.2351C22.6675 20.2031 20.2015 22.6691 16.2315 22.6691Z" fill="black"/>
</g>
</g>
<path id="Fill 4" fill-rule="evenodd" clip-rule="evenodd" d="M16.7157 15.7129H7.98071C7.56671 15.7129 7.23071 15.3769 7.23071 14.9629C7.23071 14.5489 7.56671 14.2129 7.98071 14.2129H16.7157C17.1297 14.2129 17.4657 14.5489 17.4657 14.9629C17.4657 15.3769 17.1297 15.7129 16.7157 15.7129Z" fill="black"/>
</g>
</g>
</svg>
