<svg width="24" height="24" viewBox="0 0 24 24" fill="none" xmlns="http://www.w3.org/2000/svg">
<g id="Iconly/Regular/Bulk/Tick Square">
<g id="Tick Square">
<path id="Fill 1" opacity="0.4" d="M16.3402 1.99992H7.67024C4.28024 1.99992 2.00024 4.37992 2.00024 7.91992V16.0899C2.00024 19.6199 4.28024 21.9999 7.67024 21.9999H16.3402C19.7302 21.9999 22.0002 19.6199 22.0002 16.0899V7.91992C22.0002 4.37992 19.7302 1.99992 16.3402 1.99992Z" fill="black"/>
<path id="Fill 4" d="M10.8133 15.248C10.5893 15.248 10.3653 15.163 10.1943 14.992L7.82132 12.619C7.47932 12.277 7.47932 11.723 7.82132 11.382C8.16332 11.04 8.71632 11.039 9.05832 11.381L10.8133 13.136L14.9413 9.00803C15.2833 8.66603 15.8363 8.66603 16.1783 9.00803C16.5203 9.35003 16.5203 9.90403 16.1783 10.246L11.4323 14.992C11.2613 15.163 11.0373 15.248 10.8133 15.248Z" fill="black"/>
</g>
</g>
</svg>
