<svg width="24" height="24" viewBox="0 0 24 24" fill="none" xmlns="http://www.w3.org/2000/svg">
<g id="Iconly/Curved/Light/Filter">
<g id="Filter">
<path id="Stroke 1" d="M10.4838 17.2447H4.01123" stroke="black" stroke-width="1.5" stroke-linecap="round" stroke-linejoin="round"/>
<path id="Stroke 3" fill-rule="evenodd" clip-rule="evenodd" d="M14.5452 17.2456C14.5452 19.2874 15.2261 19.9674 17.267 19.9674C19.3079 19.9674 19.9887 19.2874 19.9887 17.2456C19.9887 15.2038 19.3079 14.5238 17.267 14.5238C15.2261 14.5238 14.5452 15.2038 14.5452 17.2456Z" stroke="black" stroke-width="1.5" stroke-linecap="round" stroke-linejoin="round"/>
<path id="Stroke 5" d="M13.5168 6.75602H19.9885" stroke="black" stroke-width="1.5" stroke-linecap="round" stroke-linejoin="round"/>
<path id="Stroke 7" fill-rule="evenodd" clip-rule="evenodd" d="M9.45546 6.75469C9.45546 4.71379 8.77457 4.0329 6.73367 4.0329C4.69188 4.0329 4.01099 4.71379 4.01099 6.75469C4.01099 8.79648 4.69188 9.47648 6.73367 9.47648C8.77457 9.47648 9.45546 8.79648 9.45546 6.75469Z" stroke="black" stroke-width="1.5" stroke-linecap="round" stroke-linejoin="round"/>
</g>
</g>
</svg>
