<svg width="24" height="24" viewBox="0 0 24 24" fill="none" xmlns="http://www.w3.org/2000/svg">
<g id="Iconly/Regular/Outline/Paper Upload">
<g id="Paper Upload">
<g id="Group 3">
<mask id="mask0_33437_4643" style="mask-type:luminance" maskUnits="userSpaceOnUse" x="3" y="2" width="18" height="20">
<path id="Clip 2" fill-rule="evenodd" clip-rule="evenodd" d="M3.00024 2.01172H20.0524V21.8652H3.00024V2.01172Z" fill="white"/>
</mask>
<g mask="url(#mask0_33437_4643)">
<path id="Fill 1" fill-rule="evenodd" clip-rule="evenodd" d="M7.57331 3.51172C5.91631 3.51172 4.54031 4.85372 4.50131 6.50872V17.2277C4.46531 18.9287 5.80531 20.3287 7.49031 20.3657H15.5733C17.2423 20.3057 18.5633 18.9287 18.5523 17.2327V8.33972L13.9183 3.51172H7.58531H7.57331ZM7.58531 21.8657H7.45931C4.94731 21.8117 2.94731 19.7237 3.00131 17.2117V6.49072C3.06031 4.00972 5.10831 2.01172 7.57031 2.01172H7.58831H14.2373C14.4413 2.01172 14.6363 2.09472 14.7783 2.24172L19.8443 7.51872C19.9773 7.65772 20.0523 7.84472 20.0523 8.03772V17.2277C20.0683 19.7367 18.1123 21.7757 15.5993 21.8657H7.58531Z" fill="black"/>
</g>
</g>
<path id="Fill 4" fill-rule="evenodd" clip-rule="evenodd" d="M19.298 8.98437H16.544C14.713 8.97937 13.226 7.48737 13.226 5.65937V2.75037C13.226 2.33637 13.562 2.00037 13.976 2.00037C14.39 2.00037 14.726 2.33637 14.726 2.75037V5.65937C14.726 6.66337 15.542 7.48137 16.546 7.48437H19.298C19.712 7.48437 20.048 7.82037 20.048 8.23437C20.048 8.64837 19.712 8.98437 19.298 8.98437Z" fill="black"/>
<path id="Fill 6" fill-rule="evenodd" clip-rule="evenodd" d="M11.1417 16.7003C10.7277 16.7003 10.3917 16.3643 10.3917 15.9503V9.9093C10.3917 9.4953 10.7277 9.1593 11.1417 9.1593C11.5557 9.1593 11.8917 9.4953 11.8917 9.9093V15.9503C11.8917 16.3643 11.5557 16.7003 11.1417 16.7003Z" fill="black"/>
<path id="Fill 8" fill-rule="evenodd" clip-rule="evenodd" d="M8.79699 13.0146C8.60599 13.0146 8.41399 12.9416 8.26799 12.7956C7.97499 12.5036 7.97299 12.0296 8.26599 11.7356L10.61 9.37961C10.892 9.09661 11.392 9.09661 11.673 9.37961L14.019 11.7356C14.311 12.0296 14.31 12.5036 14.017 12.7956C13.723 13.0876 13.248 13.0876 12.956 12.7936L11.142 10.9716L9.32799 12.7936C9.18199 12.9416 8.98899 13.0146 8.79699 13.0146Z" fill="black"/>
</g>
</g>
</svg>
