<svg width="24" height="24" viewBox="0 0 24 24" fill="none" xmlns="http://www.w3.org/2000/svg">
<g id="Iconly/Regular/Outline/Upload">
<g id="Upload">
<g id="Group 3">
<mask id="mask0_33437_4829" style="mask-type:luminance" maskUnits="userSpaceOnUse" x="2" y="8" width="20" height="15">
<path id="Clip 2" fill-rule="evenodd" clip-rule="evenodd" d="M2.00037 8.79419H22V22.5382H2.00037V8.79419Z" fill="white"/>
</mask>
<g mask="url(#mask0_33437_4829)">
<path id="Fill 1" fill-rule="evenodd" clip-rule="evenodd" d="M17.5654 22.5382H6.43537C3.99037 22.5382 2.00037 20.5492 2.00037 18.1032V13.2282C2.00037 10.7832 3.99037 8.79419 6.43537 8.79419H7.36837C7.78237 8.79419 8.11837 9.13019 8.11837 9.54419C8.11837 9.95819 7.78237 10.2942 7.36837 10.2942H6.43537C4.81637 10.2942 3.50037 11.6102 3.50037 13.2282V18.1032C3.50037 19.7222 4.81637 21.0382 6.43537 21.0382H17.5654C19.1834 21.0382 20.5004 19.7222 20.5004 18.1032V13.2192C20.5004 11.6062 19.1884 10.2942 17.5764 10.2942H16.6334C16.2194 10.2942 15.8834 9.95819 15.8834 9.54419C15.8834 9.13019 16.2194 8.79419 16.6334 8.79419H17.5764C20.0154 8.79419 22.0004 10.7792 22.0004 13.2192V18.1032C22.0004 20.5492 20.0104 22.5382 17.5654 22.5382Z" fill="black"/>
</g>
</g>
<g id="Group 6">
<mask id="mask1_33437_4829" style="mask-type:luminance" maskUnits="userSpaceOnUse" x="11" y="2" width="2" height="14">
<path id="Clip 5" fill-rule="evenodd" clip-rule="evenodd" d="M11.25 2.00024H12.75V15.5411H11.25V2.00024Z" fill="white"/>
</mask>
<g mask="url(#mask1_33437_4829)">
<path id="Fill 4" fill-rule="evenodd" clip-rule="evenodd" d="M12 15.5411C11.586 15.5411 11.25 15.2051 11.25 14.7911V2.75012C11.25 2.33612 11.586 2.00012 12 2.00012C12.414 2.00012 12.75 2.33612 12.75 2.75012V14.7911C12.75 15.2051 12.414 15.5411 12 15.5411Z" fill="black"/>
</g>
</g>
<path id="Fill 7" fill-rule="evenodd" clip-rule="evenodd" d="M9.08496 6.42889C8.89396 6.42889 8.70196 6.35589 8.55596 6.20989C8.26296 5.91789 8.26096 5.44389 8.55396 5.14989L11.469 2.22189C11.75 1.93889 12.25 1.93889 12.531 2.22189L15.447 5.14989C15.739 5.44389 15.738 5.91789 15.445 6.20989C15.151 6.50189 14.677 6.50189 14.385 6.20789L12 3.81389L9.61596 6.20789C9.46996 6.35589 9.27696 6.42889 9.08496 6.42889Z" fill="black"/>
</g>
</g>
</svg>
