<svg width="24" height="24" viewBox="0 0 24 24" fill="none" xmlns="http://www.w3.org/2000/svg">
<g id="Iconly/Regular/Outline/Swap">
<g id="Swap">
<path id="Stroke 1" d="M16.8396 5.79651C17.2193 5.79651 17.5331 6.07866 17.5828 6.44474L17.5896 6.54651V20.1643C17.5896 20.5785 17.2538 20.9143 16.8396 20.9143C16.4599 20.9143 16.1461 20.6321 16.0964 20.2661L16.0896 20.1643V6.54651C16.0896 6.1323 16.4254 5.79651 16.8396 5.79651Z" fill="black"/>
<path id="Stroke 3" d="M20.3857 15.539C20.6779 15.2454 21.1528 15.2443 21.4464 15.5366C21.7133 15.8022 21.7384 16.2188 21.5213 16.5129L21.4488 16.5972L17.3711 20.6939C17.1045 20.9616 16.6863 20.986 16.3922 20.7669L16.3079 20.6939L12.2302 16.5972C11.9379 16.3036 11.939 15.8288 12.2326 15.5366C12.4995 15.2709 12.9162 15.2477 13.2093 15.4662L13.2933 15.539L16.8391 19.101L20.3857 15.539Z" fill="black"/>
<path id="Stroke 5" d="M6.91113 3.08301C7.29083 3.08301 7.60462 3.36516 7.65429 3.73124L7.66113 3.83301V17.4508C7.66113 17.865 7.32535 18.2008 6.91113 18.2008C6.53144 18.2008 6.21764 17.9186 6.16798 17.5526L6.16113 17.4508V3.83301C6.16113 3.41879 6.49692 3.08301 6.91113 3.08301Z" fill="black"/>
<path id="Stroke 7" d="M6.37972 3.30329C6.64624 3.03554 7.06449 3.0112 7.3586 3.23027L7.44283 3.30329L11.5206 7.39996C11.8128 7.69353 11.8117 8.1684 11.5182 8.46062C11.2513 8.72627 10.8346 8.74951 10.5414 8.53098L10.4575 8.45817L6.91105 4.89506L3.36505 8.45817C3.0994 8.72505 2.68279 8.75022 2.38868 8.53304L2.30439 8.46062C2.03751 8.19497 2.01234 7.77836 2.22952 7.48425L2.30194 7.39996L6.37972 3.30329Z" fill="black"/>
</g>
</g>
</svg>
