<svg width="24" height="24" viewBox="0 0 24 24" fill="none" xmlns="http://www.w3.org/2000/svg">
<g id="Iconly/Regular/Bulk/Play">
<g id="Play">
<path id="Fill 1" opacity="0.4" d="M22 12.0049C22 17.5139 17.5116 22.0001 12 22.0001C6.48842 22.0001 2 17.5139 2 12.0049C2 6.48637 6.48842 2.00012 12 2.00012C17.5116 2.00012 22 6.48637 22 12.0049Z" fill="black"/>
<path id="Fill 4" d="M16 12.005C16 12.2577 15.9205 12.5114 15.7614 12.7146C15.7315 12.7544 15.5923 12.9187 15.483 13.0256L15.4233 13.084C14.5881 13.9695 12.5099 15.3012 11.456 15.7279C11.456 15.7377 10.8295 15.9914 10.5312 16.0001H10.4915C10.0341 16.0001 9.60653 15.7484 9.38778 15.3401C9.26847 15.1156 9.15909 14.4643 9.14915 14.4555C9.05966 13.8713 9 12.977 9 11.9953C9 10.9659 9.05966 10.0317 9.16903 9.4582C9.16903 9.44848 9.27841 8.92357 9.34801 8.7486C9.45739 8.49684 9.65625 8.28202 9.90483 8.14593C10.1037 8.0497 10.3125 8.00012 10.5312 8.00012C10.7599 8.01081 11.1875 8.15565 11.3565 8.22369C12.4702 8.6514 14.598 10.0512 15.4134 10.9066C15.5526 11.0426 15.7017 11.2089 15.7415 11.2468C15.9105 11.4606 16 11.7231 16 12.005Z" fill="black"/>
</g>
</g>
</svg>
