<svg width="24" height="24" viewBox="0 0 24 24" fill="none" xmlns="http://www.w3.org/2000/svg">
<g id="Iconly/Regular/Outline/Arrow - Up 3">
<g id="Arrow - Up 3">
<path id="Fill 1" fill-rule="evenodd" clip-rule="evenodd" d="M11.7511 11.5499C11.3371 11.5499 11.0011 11.8859 11.0011 12.2999V21.2499C11.0011 21.6639 11.3371 21.9999 11.7511 21.9999C12.1651 21.9999 12.5011 21.6639 12.5011 21.2499V12.2999C12.5011 11.8859 12.1651 11.5499 11.7511 11.5499Z" fill="black"/>
<g id="Group 5">
<mask id="mask0_33437_5095" style="mask-type:luminance" maskUnits="userSpaceOnUse" x="6" y="3" width="12" height="11">
<path id="Clip 4" fill-rule="evenodd" clip-rule="evenodd" d="M6 13.0499H17.502V3.61343H6V13.0499Z" fill="white"/>
</mask>
<g mask="url(#mask0_33437_5095)">
<path id="Fill 3" fill-rule="evenodd" clip-rule="evenodd" d="M8.10955 11.5499L11.7516 5.77093L15.3926 11.5499H8.10955ZM11.7516 3.61293C11.4936 3.61293 11.2546 3.74493 11.1166 3.96393L6.11555 11.9009C5.96955 12.1309 5.96155 12.4229 6.09355 12.6619C6.22555 12.9019 6.47655 13.0499 6.75055 13.0499H16.7526C17.0256 13.0499 17.2766 12.9019 17.4086 12.6619C17.5416 12.4229 17.5326 12.1309 17.3866 11.9009L12.3856 3.96393C12.2486 3.74493 12.0086 3.61293 11.7516 3.61293Z" fill="black"/>
</g>
</g>
</g>
</g>
</svg>
