<svg width="24" height="24" viewBox="0 0 24 24" fill="none" xmlns="http://www.w3.org/2000/svg">
<g id="Iconly/Regular/Bulk/Graph">
<g id="Graph">
<path id="Path" d="M10.1528 5.55565C10.2037 5.65931 10.2373 5.77033 10.2524 5.88446L10.5308 10.0244L10.669 12.1052C10.6705 12.3192 10.704 12.5318 10.7687 12.7362C10.9356 13.1327 11.3372 13.3847 11.7741 13.3671L18.4313 12.9317C18.7196 12.9269 18.998 13.0347 19.2052 13.2314C19.3779 13.3953 19.4894 13.6097 19.5246 13.8403L19.5364 13.9803C19.2609 17.795 16.4592 20.9768 12.6524 21.7981C8.84555 22.6195 4.94186 20.8844 3.06071 17.535C2.51839 16.5619 2.17965 15.4924 2.06438 14.3891C2.01623 14.0625 1.99503 13.7326 2.00098 13.4027C1.99503 9.31285 4.90747 5.77708 8.98433 4.92469C9.47501 4.84829 9.95603 5.10804 10.1528 5.55565Z" fill="black"/>
<path id="Path_2" opacity="0.4" d="M12.8701 2.00094C17.43 2.11695 21.2624 5.39591 22.0001 9.81241L21.993 9.845L21.9729 9.89239L21.9757 10.0225C21.9652 10.1948 21.8987 10.3607 21.784 10.4946C21.6646 10.6341 21.5014 10.7292 21.3217 10.766L21.2121 10.7811L13.5313 11.2787C13.2758 11.3039 13.0214 11.2215 12.8314 11.0521C12.6731 10.9109 12.5719 10.7202 12.5433 10.5148L12.0277 2.84518C12.0188 2.81925 12.0188 2.79114 12.0277 2.7652C12.0348 2.55379 12.1278 2.35396 12.2861 2.21035C12.4444 2.06674 12.6547 1.99132 12.8701 2.00094Z" fill="black"/>
</g>
</g>
</svg>
