<svg width="24" height="24" viewBox="0 0 24 24" fill="none" xmlns="http://www.w3.org/2000/svg">
<g id="Iconly/Regular/Bulk/Unlock">
<g id="Unock">
<path id="Fill 1" opacity="0.4" d="M8.23906 8.7092V7.36738C8.24922 5.37056 9.92585 3.73951 11.9988 3.73951C13.5839 3.73951 15.0065 4.72351 15.5248 6.19553C15.6975 6.65274 16.2056 6.89029 16.6628 6.73226C16.8864 6.66169 17.0693 6.50266 17.1709 6.29393C17.2725 6.0852 17.2929 5.84666 17.2116 5.62799C16.4393 3.4622 14.3461 2.00012 11.9784 2.00012C8.95036 2.00012 6.48114 4.41638 6.46082 7.38726V8.91097L8.23906 8.7092Z" fill="black"/>
<path id="Fill 4" fill-rule="evenodd" clip-rule="evenodd" d="M7.7688 8.71118H16.2312C18.5886 8.71118 20.5 10.5808 20.5 12.8867V17.8246C20.5 20.1305 18.5886 22.0001 16.2312 22.0001H7.7688C5.41136 22.0001 3.5 20.1305 3.5 17.8246V12.8867C3.5 10.5808 5.41136 8.71118 7.7688 8.71118ZM11.9949 17.3286C12.4928 17.3286 12.8891 16.941 12.8891 16.454V14.2474C12.8891 13.7703 12.4928 13.3827 11.9949 13.3827C11.5072 13.3827 11.1109 13.7703 11.1109 14.2474V16.454C11.1109 16.941 11.5072 17.3286 11.9949 17.3286Z" fill="black"/>
</g>
</g>
</svg>
