<svg width="24" height="24" viewBox="0 0 24 24" fill="none" xmlns="http://www.w3.org/2000/svg">
<g id="Iconly/Regular/Outline/Download">
<g id="Download">
<path id="Fill 1" fill-rule="evenodd" clip-rule="evenodd" d="M12.0011 16.5412C11.5871 16.5412 11.2511 16.2052 11.2511 15.7912V3.75024C11.2511 3.33624 11.5871 3.00024 12.0011 3.00024C12.4151 3.00024 12.7511 3.33624 12.7511 3.75024V15.7912C12.7511 16.2052 12.4151 16.5412 12.0011 16.5412Z" fill="black"/>
<path id="Fill 3" fill-rule="evenodd" clip-rule="evenodd" d="M12.0011 16.5413C11.8021 16.5413 11.6101 16.4623 11.4701 16.3203L8.55407 13.3933C8.26207 13.0993 8.26307 12.6243 8.55607 12.3323C8.85007 12.0403 9.32407 12.0403 9.61607 12.3343L12.0011 14.7293L14.3861 12.3343C14.6781 12.0403 15.1521 12.0403 15.4461 12.3323C15.7391 12.6243 15.7401 13.0993 15.4481 13.3933L12.5321 16.3203C12.3921 16.4623 12.2001 16.5413 12.0011 16.5413Z" fill="black"/>
<g id="Group 7">
<mask id="mask0_33437_4741" style="mask-type:luminance" maskUnits="userSpaceOnUse" x="2" y="7" width="20" height="15">
<path id="Clip 6" fill-rule="evenodd" clip-rule="evenodd" d="M2.00024 7.73279H22V21.4768H2.00024V7.73279Z" fill="white"/>
</mask>
<g mask="url(#mask0_33437_4741)">
<path id="Fill 5" fill-rule="evenodd" clip-rule="evenodd" d="M17.5752 21.4768H6.43524C3.99024 21.4768 2.00024 19.4878 2.00024 17.0418V12.1568C2.00024 9.71679 3.98524 7.73279 6.42624 7.73279H7.36724C7.78124 7.73279 8.11724 8.06879 8.11724 8.48279C8.11724 8.89679 7.78124 9.23279 7.36724 9.23279H6.42624C4.81224 9.23279 3.50024 10.5438 3.50024 12.1568V17.0418C3.50024 18.6608 4.81624 19.9768 6.43524 19.9768H17.5752C19.1872 19.9768 20.5002 18.6638 20.5002 17.0518V12.1678C20.5002 10.5488 19.1832 9.23279 17.5662 9.23279H16.6342C16.2202 9.23279 15.8842 8.89679 15.8842 8.48279C15.8842 8.06879 16.2202 7.73279 16.6342 7.73279H17.5662C20.0112 7.73279 22.0002 9.72279 22.0002 12.1678V17.0518C22.0002 19.4918 20.0142 21.4768 17.5752 21.4768Z" fill="black"/>
</g>
</g>
</g>
</g>
</svg>
