<svg width="24" height="24" viewBox="0 0 24 24" fill="none" xmlns="http://www.w3.org/2000/svg">
<g id="Iconly/Regular/Bulk/Ticket Star">
<g id="Ticket Star">
<path id="Fill 1" opacity="0.4" d="M21.25 13.4765C20.429 13.4765 19.761 12.8146 19.761 12.0011C19.761 11.1866 20.429 10.5247 21.25 10.5247C21.449 10.5247 21.64 10.4465 21.78 10.3077C21.921 10.168 22 9.97876 22 9.78158L21.999 7.10427C21.999 4.84114 20.14 3.00012 17.856 3.00012H6.144C3.86 3.00012 2.001 4.84114 2.001 7.10427L2 9.86779C2 10.065 2.079 10.2542 2.22 10.3939C2.36 10.5327 2.551 10.6109 2.75 10.6109C3.599 10.6109 4.239 11.2084 4.239 12.0011C4.239 12.8146 3.571 13.4765 2.75 13.4765C2.336 13.4765 2 13.8094 2 14.2197V16.895C2 19.1581 3.858 21.0001 6.143 21.0001H17.857C20.142 21.0001 22 19.1581 22 16.895V14.2197C22 13.8094 21.664 13.4765 21.25 13.4765Z" fill="black"/>
<path id="Fill 4" d="M15.4305 11.5887L14.2515 12.7367L14.5305 14.3597C14.5785 14.6407 14.4655 14.9177 14.2345 15.0837C14.0055 15.2517 13.7065 15.2727 13.4545 15.1387L11.9995 14.3737L10.5415 15.1397C10.4335 15.1967 10.3155 15.2267 10.1985 15.2267C10.0455 15.2267 9.89446 15.1787 9.76446 15.0847C9.53446 14.9177 9.42146 14.6407 9.46946 14.3597L9.74746 12.7367L8.56846 11.5887C8.36446 11.3907 8.29346 11.0997 8.38146 10.8287C8.47046 10.5587 8.70046 10.3667 8.98146 10.3267L10.6075 10.0897L11.3365 8.61273C11.4635 8.35873 11.7175 8.20073 11.9995 8.20073H12.0015C12.2845 8.20173 12.5385 8.35973 12.6635 8.61373L13.3925 10.0897L15.0215 10.3277C15.2995 10.3667 15.5295 10.5587 15.6175 10.8287C15.7065 11.0997 15.6355 11.3907 15.4305 11.5887Z" fill="black"/>
</g>
</g>
</svg>
