<svg width="24" height="24" viewBox="0 0 24 24" fill="none" xmlns="http://www.w3.org/2000/svg">
<g id="Iconly/Regular/Bulk/2 User">
<g id="2 User">
<path id="Fill 1" d="M9.34933 14.8578C5.38553 14.8578 2 15.4702 2 17.9175C2 20.3667 5.364 21.0001 9.34933 21.0001C13.3131 21.0001 16.6987 20.3878 16.6987 17.9405C16.6987 15.4912 13.3347 14.8578 9.34933 14.8578Z" fill="black"/>
<path id="Fill 3" opacity="0.4" d="M9.34935 12.5249C12.049 12.5249 14.2124 10.4063 14.2124 7.76253C14.2124 5.11877 12.049 3.00012 9.34935 3.00012C6.65072 3.00012 4.48633 5.11877 4.48633 7.76253C4.48633 10.4063 6.65072 12.5249 9.34935 12.5249Z" fill="black"/>
<path id="Fill 5" opacity="0.4" d="M16.1734 7.84887C16.1734 9.19518 15.7605 10.4514 15.0364 11.4949C14.9611 11.6023 15.0276 11.747 15.1587 11.77C15.3407 11.7997 15.5276 11.8179 15.7184 11.8217C17.6167 11.8706 19.3202 10.6737 19.7908 8.8713C20.4885 6.19688 18.4415 3.79555 15.8339 3.79555C15.5511 3.79555 15.2801 3.82429 15.0159 3.877C14.9797 3.88466 14.9405 3.90191 14.921 3.93257C14.8955 3.97186 14.9141 4.02265 14.9395 4.05619C15.7233 5.13228 16.1734 6.44218 16.1734 7.84887Z" fill="black"/>
<path id="Fill 7" d="M21.7791 15.1695C21.4317 14.4441 20.5932 13.9468 19.3172 13.7024C18.7155 13.5587 17.0853 13.3546 15.5697 13.3833C15.5472 13.3862 15.5344 13.4015 15.5325 13.4111C15.5295 13.4265 15.5364 13.4495 15.5658 13.4657C16.2663 13.805 18.9738 15.2806 18.6333 18.393C18.6186 18.529 18.7292 18.644 18.8671 18.6249C19.5335 18.5319 21.2478 18.1707 21.7791 17.0476C22.0736 16.4535 22.0736 15.7636 21.7791 15.1695Z" fill="black"/>
</g>
</g>
</svg>
