<svg width="24" height="24" viewBox="0 0 24 24" fill="none" xmlns="http://www.w3.org/2000/svg">
<g id="Iconly/Regular/Outline/Arrow - Right Circle">
<g id="Arrow - Right Circle">
<path id="Fill 1" fill-rule="evenodd" clip-rule="evenodd" d="M12 3.50012C7.313 3.50012 3.5 7.31312 3.5 12.0001C3.5 16.6871 7.313 20.5001 12 20.5001C16.687 20.5001 20.5 16.6871 20.5 12.0001C20.5 7.31312 16.687 3.50012 12 3.50012ZM12 22.0001C6.486 22.0001 2 17.5141 2 12.0001C2 6.48612 6.486 2.00012 12 2.00012C17.514 2.00012 22 6.48612 22 12.0001C22 17.5141 17.514 22.0001 12 22.0001Z" fill="black"/>
<path id="Fill 3" fill-rule="evenodd" clip-rule="evenodd" d="M10.5586 16.2208C10.3666 16.2208 10.1736 16.1478 10.0276 15.9998C9.73558 15.7058 9.73658 15.2318 10.0296 14.9398L12.9816 11.9998L10.0296 9.0608C9.73658 8.7688 9.73558 8.2938 10.0276 7.9998C10.3196 7.7048 10.7936 7.7068 11.0876 7.9978L14.5736 11.4688C14.7146 11.6098 14.7936 11.8008 14.7936 11.9998C14.7936 12.1998 14.7146 12.3908 14.5736 12.5318L11.0876 16.0018C10.9416 16.1478 10.7496 16.2208 10.5586 16.2208Z" fill="black"/>
</g>
</g>
</svg>
