<svg width="24" height="24" viewBox="0 0 24 24" fill="none" xmlns="http://www.w3.org/2000/svg">
<g id="Iconly/Regular/Outline/Add User">
<g id="Add User">
<g id="Union">
<path fill-rule="evenodd" clip-rule="evenodd" d="M9.84597 12.6361H9.87697C12.81 12.6361 15.195 10.2501 15.195 7.31812C15.195 4.38612 12.81 2.00012 9.87697 2.00012C6.94497 2.00012 4.55997 4.38612 4.55997 7.31512C4.55497 8.73112 5.10197 10.0651 6.09997 11.0701C7.09697 12.0741 8.42697 12.6311 9.84597 12.6361ZM6.05997 7.31812C6.05997 5.21312 7.77297 3.50012 9.87697 3.50012C11.982 3.50012 13.695 5.21312 13.695 7.31812C13.695 9.42312 11.982 11.1361 9.87697 11.1361H9.84897C8.83297 11.1321 7.87897 10.7331 7.16297 10.0131C6.44797 9.29212 6.05597 8.33712 6.05997 7.31812Z" fill="black"/>
<path fill-rule="evenodd" clip-rule="evenodd" d="M2 18.1152C2 21.7952 7.929 21.7952 9.877 21.7952C13.259 21.7952 17.754 21.4162 17.754 18.1372C17.754 14.4562 11.825 14.4562 9.877 14.4562C6.495 14.4562 2 14.8352 2 18.1152ZM3.5 18.1152C3.5 16.6832 5.646 15.9562 9.877 15.9562C14.108 15.9562 16.254 16.6892 16.254 18.1372C16.254 19.5682 14.108 20.2952 9.877 20.2952C5.646 20.2952 3.5 19.5612 3.5 18.1152Z" fill="black"/>
<path d="M19.2041 13.4298C18.7901 13.4298 18.4541 13.0938 18.4541 12.6798V11.424H17.16C16.746 11.424 16.41 11.0879 16.41 10.674C16.41 10.26 16.746 9.92395 17.16 9.92395H18.4541V8.66882C18.4541 8.25482 18.7901 7.91882 19.2041 7.91882C19.6181 7.91882 19.9541 8.25482 19.9541 8.66882V9.92395H21.25C21.664 9.92395 22 10.26 22 10.674C22 11.0879 21.664 11.424 21.25 11.424H19.9541V12.6798C19.9541 13.0938 19.6181 13.4298 19.2041 13.4298Z" fill="black"/>
</g>
</g>
</g>
</svg>
