<svg width="24" height="24" viewBox="0 0 24 24" fill="none" xmlns="http://www.w3.org/2000/svg">
<g id="Iconly/Regular/Bulk/Video">
<g id="Video">
<path id="Fill 1" opacity="0.4" d="M21.3309 7.44266C20.9119 7.1787 20.3969 7.15535 19.9579 7.3787L18.4759 8.12692C17.9279 8.40306 17.5879 8.96144 17.5879 9.58276V15.4163C17.5879 16.0376 17.9279 16.5949 18.4759 16.8731L19.9569 17.6203C20.1579 17.7239 20.3729 17.7736 20.5879 17.7736C20.8459 17.7736 21.1019 17.7005 21.3309 17.5574C21.7499 17.2944 21.9999 16.8386 21.9999 16.3391V8.66195C21.9999 8.16245 21.7499 7.70662 21.3309 7.44266Z" fill="black"/>
<path id="Fill 3" d="M11.9051 20.0001H6.11304C3.69102 20.0001 2 18.3301 2 15.9392V9.06104C2 6.66916 3.69102 5.00012 6.11304 5.00012H11.9051C14.3271 5.00012 16.0181 6.66916 16.0181 9.06104V15.9392C16.0181 18.3301 14.3271 20.0001 11.9051 20.0001Z" fill="black"/>
</g>
</g>
</svg>
