<svg width="24" height="24" viewBox="0 0 24 24" fill="none" xmlns="http://www.w3.org/2000/svg">
<g id="Iconly/Regular/Outline/Arrow - Left Circle">
<g id="Arrow - Left Circle">
<path id="Fill 1" fill-rule="evenodd" clip-rule="evenodd" d="M12 3.50012C7.313 3.50012 3.5 7.31312 3.5 12.0001C3.5 16.6871 7.313 20.5001 12 20.5001C16.687 20.5001 20.5 16.6871 20.5 12.0001C20.5 7.31312 16.687 3.50012 12 3.50012ZM12 22.0001C6.486 22.0001 2 17.5141 2 12.0001C2 6.48612 6.486 2.00012 12 2.00012C17.514 2.00012 22 6.48612 22 12.0001C22 17.5141 17.514 22.0001 12 22.0001Z" fill="black"/>
<path id="Fill 3" fill-rule="evenodd" clip-rule="evenodd" d="M13.4424 16.2208C13.2514 16.2208 13.0594 16.1478 12.9134 16.0018L9.42642 12.5318C9.28542 12.3908 9.20642 12.1998 9.20642 11.9998C9.20642 11.8008 9.28542 11.6098 9.42642 11.4688L12.9134 7.9978C13.2064 7.7058 13.6804 7.7058 13.9734 7.9998C14.2664 8.2938 14.2644 8.7688 13.9714 9.0608L11.0194 11.9998L13.9714 14.9398C14.2644 15.2318 14.2664 15.7058 13.9734 15.9998C13.8274 16.1478 13.6344 16.2208 13.4424 16.2208Z" fill="black"/>
</g>
</g>
</svg>
