<svg width="24" height="24" viewBox="0 0 24 24" fill="none" xmlns="http://www.w3.org/2000/svg">
<g id="Iconly/Curved/Light/Add User">
<g id="Add User">
<path id="Stroke 1" fill-rule="evenodd" clip-rule="evenodd" d="M9.92234 21.8084C6.10834 21.8084 2.85034 21.2314 2.85034 18.9214C2.85034 16.6114 6.08734 14.5104 9.92234 14.5104C13.7363 14.5104 16.9943 16.5914 16.9943 18.9004C16.9943 21.2094 13.7573 21.8084 9.92234 21.8084Z" stroke="black" stroke-width="1.5" stroke-linecap="round" stroke-linejoin="round"/>
<path id="Stroke 3" fill-rule="evenodd" clip-rule="evenodd" d="M9.92243 11.2161C12.4254 11.2161 14.4554 9.18615 14.4554 6.68315C14.4554 4.17915 12.4254 2.15015 9.92243 2.15015C7.41943 2.15015 5.38943 4.17915 5.38943 6.68315C5.38043 9.17715 7.39643 11.2071 9.89043 11.2161H9.92243Z" stroke="black" stroke-width="1.5" stroke-linecap="round" stroke-linejoin="round"/>
<path id="Stroke 5" d="M19.1313 8.12927V12.1393" stroke="black" stroke-width="1.5" stroke-linecap="round" stroke-linejoin="round"/>
<path id="Stroke 7" d="M21.1776 10.134H17.0876" stroke="black" stroke-width="1.5" stroke-linecap="round" stroke-linejoin="round"/>
</g>
</g>
</svg>
