<svg width="24" height="24" viewBox="0 0 24 24" fill="none" xmlns="http://www.w3.org/2000/svg">
<g id="Iconly/Regular/Outline/Message">
<g id="Message">
<path id="Fill 1" fill-rule="evenodd" clip-rule="evenodd" d="M11.777 13.4649C11.108 13.4649 10.441 13.2439 9.88298 12.8019L5.39798 9.18587C5.07498 8.92587 5.02498 8.45287 5.28398 8.13087C5.54498 7.80987 6.01698 7.75887 6.33898 8.01787L10.82 11.6299C11.383 12.0759 12.176 12.0759 12.743 11.6259L17.179 8.01987C17.501 7.75687 17.973 7.80687 18.235 8.12887C18.496 8.44987 18.447 8.92187 18.126 9.18387L13.682 12.7959C13.12 13.2419 12.448 13.4649 11.777 13.4649Z" fill="black"/>
<g id="Group 5">
<mask id="mask0_33437_4892" style="mask-type:luminance" maskUnits="userSpaceOnUse" x="1" y="2" width="22" height="20">
<path id="Clip 4" fill-rule="evenodd" clip-rule="evenodd" d="M1 2.00012H22.4999V21.5001H1V2.00012Z" fill="white"/>
</mask>
<g mask="url(#mask0_33437_4892)">
<path id="Fill 3" fill-rule="evenodd" clip-rule="evenodd" d="M6.839 20.0001H16.659C16.661 19.9981 16.669 20.0001 16.675 20.0001C17.816 20.0001 18.828 19.5921 19.604 18.8171C20.505 17.9201 21 16.6311 21 15.1881V8.32012C21 5.52712 19.174 3.50012 16.659 3.50012H6.841C4.326 3.50012 2.5 5.52712 2.5 8.32012V15.1881C2.5 16.6311 2.996 17.9201 3.896 18.8171C4.672 19.5921 5.685 20.0001 6.825 20.0001H6.839ZM6.822 21.5001C5.279 21.5001 3.901 20.9401 2.837 19.8801C1.652 18.6981 1 17.0321 1 15.1881V8.32012C1 4.71712 3.511 2.00012 6.841 2.00012H16.659C19.989 2.00012 22.5 4.71712 22.5 8.32012V15.1881C22.5 17.0321 21.848 18.6981 20.663 19.8801C19.6 20.9391 18.221 21.5001 16.675 21.5001H16.659H6.841H6.822Z" fill="black"/>
</g>
</g>
</g>
</g>
</svg>
