<svg width="24" height="24" viewBox="0 0 24 24" fill="none" xmlns="http://www.w3.org/2000/svg">
<g id="Iconly/Regular/Outline/Logout">
<g id="Logout">
<path id="Fill 1" fill-rule="evenodd" clip-rule="evenodd" d="M11.3192 22.0001H6.43324C3.98924 22.0001 2.00024 20.0111 2.00024 17.5651V6.43612C2.00024 3.99012 3.98924 2.00012 6.43324 2.00012H11.3082C13.7542 2.00012 15.7442 3.99012 15.7442 6.43612V7.36812C15.7442 7.78212 15.4082 8.11812 14.9942 8.11812C14.5802 8.11812 14.2442 7.78212 14.2442 7.36812V6.43612C14.2442 4.81612 12.9272 3.50012 11.3082 3.50012H6.43324C4.81624 3.50012 3.50024 4.81612 3.50024 6.43612V17.5651C3.50024 19.1841 4.81624 20.5001 6.43324 20.5001H11.3192C12.9312 20.5001 14.2442 19.1881 14.2442 17.5761V16.6331C14.2442 16.2191 14.5802 15.8831 14.9942 15.8831C15.4082 15.8831 15.7442 16.2191 15.7442 16.6331V17.5761C15.7442 20.0161 13.7582 22.0001 11.3192 22.0001Z" fill="black"/>
<g id="Group 5">
<mask id="mask0_33437_4791" style="mask-type:luminance" maskUnits="userSpaceOnUse" x="8" y="11" width="15" height="2">
<path id="Clip 4" fill-rule="evenodd" clip-rule="evenodd" d="M8.99609 11.2501H22.537V12.7501H8.99609V11.2501Z" fill="white"/>
</mask>
<g mask="url(#mask0_33437_4791)">
<path id="Fill 3" fill-rule="evenodd" clip-rule="evenodd" d="M21.7871 12.7501H9.74609C9.33209 12.7501 8.99609 12.4141 8.99609 12.0001C8.99609 11.5861 9.33209 11.2501 9.74609 11.2501H21.7871C22.2011 11.2501 22.5371 11.5861 22.5371 12.0001C22.5371 12.4141 22.2011 12.7501 21.7871 12.7501Z" fill="black"/>
</g>
</g>
<g id="Group 8">
<mask id="mask1_33437_4791" style="mask-type:luminance" maskUnits="userSpaceOnUse" x="18" y="8" width="5" height="8">
<path id="Clip 7" fill-rule="evenodd" clip-rule="evenodd" d="M18.1096 8.33533H22.537V15.6661H18.1096V8.33533Z" fill="white"/>
</mask>
<g mask="url(#mask1_33437_4791)">
<path id="Fill 6" fill-rule="evenodd" clip-rule="evenodd" d="M18.8594 15.6661C18.6674 15.6661 18.4744 15.5931 18.3284 15.4451C18.0364 15.1511 18.0374 14.6771 18.3304 14.3851L20.7244 12.0001L18.3304 9.61608C18.0374 9.32408 18.0354 8.85008 18.3284 8.55608C18.6204 8.26208 19.0944 8.26208 19.3884 8.55408L22.3164 11.4691C22.4584 11.6091 22.5374 11.8011 22.5374 12.0001C22.5374 12.1991 22.4584 12.3911 22.3164 12.5311L19.3884 15.4471C19.2424 15.5931 19.0504 15.6661 18.8594 15.6661Z" fill="black"/>
</g>
</g>
</g>
</g>
</svg>
