<svg width="24" height="24" viewBox="0 0 24 24" fill="none" xmlns="http://www.w3.org/2000/svg">
<g id="Iconly/Regular/Outline/Discount">
<g id="Discount">
<g id="Group 3">
<mask id="mask0_33437_4601" style="mask-type:luminance" maskUnits="userSpaceOnUse" x="2" y="2" width="21" height="21">
<path id="Clip 2" fill-rule="evenodd" clip-rule="evenodd" d="M2.00012 2.00037H22.0029V22.0014H2.00012V2.00037Z" fill="white"/>
</mask>
<g mask="url(#mask0_33437_4601)">
<path id="Fill 1" fill-rule="evenodd" clip-rule="evenodd" d="M10.9448 20.0756C11.5348 20.6516 12.4848 20.6446 13.0708 20.0556L13.7928 19.3356C14.3528 18.7766 15.1268 18.4576 15.9158 18.4576H16.9458C17.7798 18.4576 18.4578 17.7796 18.4578 16.9466V15.9176C18.4578 15.1166 18.7678 14.3636 19.3338 13.7966L20.0538 13.0756C20.3468 12.7816 20.5038 12.4006 20.5028 11.9966C20.5018 11.5936 20.3428 11.2146 20.0558 10.9286L19.3348 10.2066C18.7678 9.63563 18.4578 8.88363 18.4578 8.08263V7.05563C18.4578 6.22163 17.7798 5.54363 16.9458 5.54363H15.9178C15.1168 5.54363 14.3638 5.23263 13.7968 4.66963L13.0748 3.94663C12.4738 3.35163 11.5148 3.35463 10.9278 3.94563L10.2088 4.66663C9.63484 5.23363 8.88184 5.54363 8.08384 5.54363H7.05484C6.22184 5.54463 5.54384 6.22263 5.54384 7.05563V8.08063C5.54384 8.88163 5.23284 9.63463 4.66884 10.2026L3.95884 10.9136C3.95184 10.9216 3.94484 10.9276 3.93784 10.9346C3.35084 11.5256 3.35384 12.4846 3.94484 13.0716L4.66684 13.7936C5.23284 14.3616 5.54384 15.1146 5.54384 15.9156V16.9466C5.54384 17.7796 6.22084 18.4576 7.05484 18.4576H8.08184C8.88384 18.4586 9.63684 18.7696 10.2038 19.3346L10.9248 20.0536C10.9308 20.0606 10.9378 20.0676 10.9448 20.0756ZM11.9988 22.0016C11.2318 22.0016 10.4648 21.7116 9.87784 21.1296C9.86984 21.1216 9.86184 21.1136 9.85384 21.1046L9.14384 20.3956C8.86084 20.1146 8.48284 19.9586 8.08084 19.9576H7.05484C5.39384 19.9576 4.04384 18.6066 4.04384 16.9466V15.9156C4.04384 15.5136 3.88684 15.1366 3.60484 14.8526L2.88584 14.1346C1.71784 12.9726 1.70384 11.0806 2.85084 9.90063C2.85984 9.89163 2.86884 9.88263 2.87784 9.87363L3.60584 9.14363C3.88684 8.86063 4.04384 8.48163 4.04384 8.08063V7.05563C4.04384 5.39563 5.39384 4.04463 7.05384 4.04363H8.08384C8.48484 4.04363 8.86284 3.88663 9.14984 3.60363L9.86484 2.88663C11.0338 1.70963 12.9448 1.70363 14.1238 2.87563L14.8548 3.60663C15.1378 3.88763 15.5158 4.04363 15.9178 4.04363H16.9458C18.6068 4.04363 19.9578 5.39463 19.9578 7.05563V8.08263C19.9578 8.48363 20.1138 8.86263 20.3968 9.14763L21.1148 9.86663C21.6838 10.4316 21.9998 11.1866 22.0028 11.9916C22.0058 12.7966 21.6948 13.5536 21.1278 14.1246L20.3948 14.8556C20.1138 15.1386 19.9578 15.5156 19.9578 15.9176V16.9466C19.9578 18.6066 18.6068 19.9576 16.9468 19.9576H15.9158C15.5198 19.9576 15.1328 20.1176 14.8518 20.3966L14.1338 21.1146C13.5468 21.7056 12.7728 22.0016 11.9988 22.0016Z" fill="black"/>
</g>
</g>
<path id="Fill 4" fill-rule="evenodd" clip-rule="evenodd" d="M9.43029 15.3217C9.23829 15.3217 9.04629 15.2487 8.90029 15.1017C8.60729 14.8087 8.60729 14.3347 8.90029 14.0417L14.0403 8.90066C14.3333 8.60766 14.8083 8.60766 15.1013 8.90066C15.3943 9.19366 15.3943 9.66866 15.1013 9.96166L9.96029 15.1017C9.81429 15.2487 9.62229 15.3217 9.43029 15.3217Z" fill="black"/>
<path id="Fill 6" fill-rule="evenodd" clip-rule="evenodd" d="M14.5034 15.4994C13.9504 15.4994 13.4984 15.0524 13.4984 14.4994C13.4984 13.9464 13.9414 13.4994 14.4944 13.4994H14.5034C15.0564 13.4994 15.5034 13.9464 15.5034 14.4994C15.5034 15.0524 15.0564 15.4994 14.5034 15.4994Z" fill="black"/>
<path id="Fill 8" fill-rule="evenodd" clip-rule="evenodd" d="M9.50341 10.4994C8.95041 10.4994 8.49841 10.0524 8.49841 9.49939C8.49841 8.94639 8.94141 8.49939 9.49441 8.49939H9.50341C10.0564 8.49939 10.5034 8.94639 10.5034 9.49939C10.5034 10.0524 10.0564 10.4994 9.50341 10.4994Z" fill="black"/>
</g>
</g>
</svg>
