<svg width="24" height="24" viewBox="0 0 24 24" fill="none" xmlns="http://www.w3.org/2000/svg">
<g id="Iconly/Regular/Bulk/More Circle">
<g id="Group">
<path id="Fill 1" opacity="0.4" d="M22.0002 11.9999C22.0002 17.5239 17.5232 21.9999 12.0002 21.9999C6.47724 21.9999 2.00024 17.5239 2.00024 11.9999C2.00024 6.47792 6.47724 1.99992 12.0002 1.99992C17.5232 1.99992 22.0002 6.47792 22.0002 11.9999Z" fill="black"/>
<path id="Combined Shape" fill-rule="evenodd" clip-rule="evenodd" d="M7.52112 10.8036C6.86012 10.8036 6.32312 11.3406 6.32312 11.9996C6.32312 12.6596 6.86012 13.1976 7.52112 13.1976C8.18212 13.1976 8.71912 12.6596 8.71912 11.9996C8.71912 11.3406 8.18212 10.8036 7.52112 10.8036ZM12.0002 10.8036C11.3392 10.8036 10.8022 11.3406 10.8022 11.9996C10.8022 12.6596 11.3392 13.1976 12.0002 13.1976C12.6612 13.1976 13.1982 12.6596 13.1982 11.9996C13.1982 11.3406 12.6612 10.8036 12.0002 10.8036ZM15.2816 11.9996C15.2816 11.3406 15.8186 10.8036 16.4796 10.8036C17.1406 10.8036 17.6776 11.3406 17.6776 11.9996C17.6776 12.6596 17.1406 13.1976 16.4796 13.1976C15.8186 13.1976 15.2816 12.6596 15.2816 11.9996Z" fill="black"/>
</g>
</g>
</svg>
