<svg width="24" height="24" viewBox="0 0 24 24" fill="none" xmlns="http://www.w3.org/2000/svg">
<g id="Iconly/Regular/Outline/Login">
<g id="Login">
<path id="Fill 1" fill-rule="evenodd" clip-rule="evenodd" d="M15.791 12.7501H3.75C3.336 12.7501 3 12.4141 3 12.0001C3 11.5861 3.336 11.2501 3.75 11.2501H15.791C16.205 11.2501 16.541 11.5861 16.541 12.0001C16.541 12.4141 16.205 12.7501 15.791 12.7501Z" fill="black"/>
<path id="Fill 3" fill-rule="evenodd" clip-rule="evenodd" d="M12.8633 15.6651C12.6713 15.6651 12.4783 15.5921 12.3323 15.4441C12.0393 15.1501 12.0413 14.6761 12.3343 14.3841L14.7283 12.0001L12.3343 9.6151C12.0413 9.3231 12.0393 8.8491 12.3323 8.5551C12.6253 8.2611 13.0993 8.2611 13.3923 8.5531L16.3213 11.4691C16.4633 11.6091 16.5423 11.8011 16.5423 12.0001C16.5423 12.1991 16.4633 12.3911 16.3213 12.5311L13.3923 15.4461C13.2463 15.5921 13.0543 15.6651 12.8633 15.6651Z" fill="black"/>
<path id="Fill 5" fill-rule="evenodd" clip-rule="evenodd" d="M17.042 22.0001H12.157C9.71803 22.0001 7.73303 20.0151 7.73303 17.5751V16.6331C7.73303 16.2191 8.06903 15.8831 8.48303 15.8831C8.89703 15.8831 9.23303 16.2191 9.23303 16.6331V17.5751C9.23303 19.1871 10.545 20.5001 12.157 20.5001H17.042C18.661 20.5001 19.978 19.1841 19.978 17.5641V6.42512C19.978 4.81312 18.665 3.50012 17.053 3.50012H12.168C10.55 3.50012 9.23303 4.81612 9.23303 6.43412V7.36712C9.23303 7.78112 8.89703 8.11712 8.48303 8.11712C8.06903 8.11712 7.73303 7.78112 7.73303 7.36712V6.43412C7.73303 3.98912 9.72303 2.00012 12.168 2.00012H17.053C19.492 2.00012 21.478 3.98512 21.478 6.42512V17.5641C21.478 20.0101 19.487 22.0001 17.042 22.0001Z" fill="black"/>
</g>
</g>
</svg>
