<svg width="24" height="24" viewBox="0 0 24 24" fill="none" xmlns="http://www.w3.org/2000/svg">
<g id="Iconly/Curved/Light/Profile">
<g id="Profile">
<path id="Stroke 1" fill-rule="evenodd" clip-rule="evenodd" d="M11.8445 21.6621C8.15273 21.6621 5 21.0876 5 18.7868C5 16.486 8.13273 14.3621 11.8445 14.3621C15.5364 14.3621 18.6891 16.4654 18.6891 18.7662C18.6891 21.066 15.5564 21.6621 11.8445 21.6621Z" stroke="black" stroke-width="1.5" stroke-linecap="round" stroke-linejoin="round"/>
<path id="Stroke 3" fill-rule="evenodd" clip-rule="evenodd" d="M11.8372 11.1738C14.26 11.1738 16.2236 9.21015 16.2236 6.78742C16.2236 4.36469 14.26 2.40015 11.8372 2.40015C9.41452 2.40015 7.44998 4.36469 7.44998 6.78742C7.4418 9.20196 9.3918 11.1656 11.8063 11.1738C11.8172 11.1738 11.8272 11.1738 11.8372 11.1738Z" stroke="black" stroke-width="1.5" stroke-linecap="round" stroke-linejoin="round"/>
</g>
</g>
</svg>
