<svg width="24" height="24" viewBox="0 0 24 24" fill="none" xmlns="http://www.w3.org/2000/svg">
<g id="Iconly/Regular/Outline/Bookmark">
<g id="Bookmark">
<g id="Group 3">
<mask id="mask0_33437_4348" style="mask-type:luminance" maskUnits="userSpaceOnUse" x="3" y="2" width="18" height="21">
<path id="Clip 2" fill-rule="evenodd" clip-rule="evenodd" d="M3 2.00012H20.0388V22.8468H3V2.00012Z" fill="white"/>
</mask>
<g mask="url(#mask0_33437_4348)">
<path id="Fill 1" fill-rule="evenodd" clip-rule="evenodd" d="M8.34176 3.50012C5.79276 3.50012 4.49976 4.48212 4.49976 6.42112V21.1451C4.49976 21.2391 4.55376 21.2901 4.59876 21.3161C4.64376 21.3441 4.71476 21.3641 4.79676 21.3181L11.1788 17.7381C11.4068 17.6111 11.6858 17.6101 11.9148 17.7391L18.2418 21.3131C18.3248 21.3611 18.3958 21.3391 18.4408 21.3121C18.4858 21.2851 18.5388 21.2341 18.5388 21.1401V6.60412C18.5388 5.83712 18.5388 3.50012 14.7008 3.50012H8.34176ZM4.69876 22.8471C4.40376 22.8471 4.10876 22.7681 3.84076 22.6101C3.31376 22.3031 2.99976 21.7541 2.99976 21.1451V6.42112C2.99976 3.61112 4.94676 2.00012 8.34176 2.00012H14.7008C18.0928 2.00012 20.0388 3.67912 20.0388 6.60412V21.1401C20.0388 21.7501 19.7248 22.2991 19.1968 22.6061C18.6708 22.9141 18.0368 22.9201 17.5048 22.6201L11.5448 19.2531L5.52976 22.6271C5.26976 22.7731 4.98476 22.8471 4.69876 22.8471Z" fill="black"/>
</g>
</g>
<path id="Fill 4" fill-rule="evenodd" clip-rule="evenodd" d="M15.1395 10.2286H7.82153C7.40753 10.2286 7.07153 9.89264 7.07153 9.47864C7.07153 9.06464 7.40753 8.72864 7.82153 8.72864H15.1395C15.5535 8.72864 15.8895 9.06464 15.8895 9.47864C15.8895 9.89264 15.5535 10.2286 15.1395 10.2286Z" fill="black"/>
</g>
</g>
</svg>
